# Blender v2.92.0 OBJ File: 'table_football_man1.blend'
# www.blender.org
mtllib table_football_man1.mtl
o Foot_Cube
v -0.700000 -2.376759 -0.616250
v -0.463959 -3.603447 -0.180321
v 0.700000 -2.376759 -0.616250
v 0.463959 -3.603447 -0.180321
v -0.700000 -2.376759 0.616250
v -0.463959 -3.603447 0.180321
v 0.700000 -2.376759 0.616250
v 0.463959 -3.603447 0.180321
vt 0.625000 0.500000
vt 0.875000 0.500000
vt 0.875000 0.750000
vt 0.625000 0.750000
vt 0.375000 0.750000
vt 0.625000 1.000000
vt 0.375000 1.000000
vt 0.375000 0.000000
vt 0.625000 0.000000
vt 0.625000 0.250000
vt 0.375000 0.250000
vt 0.125000 0.500000
vt 0.375000 0.500000
vt 0.125000 0.750000
vn 0.0000 1.0000 0.0000
vn 0.9820 -0.1890 0.0000
vn -0.0000 -0.3349 0.9423
vn 0.0000 -1.0000 0.0000
vn 0.0000 -0.3349 -0.9423
vn -0.9820 -0.1890 -0.0000
usemtl Material
s off
f 1/1/1 5/2/1 7/3/1 3/4/1
f 4/5/2 3/4/2 7/6/2 8/7/2
f 8/8/3 7/9/3 5/10/3 6/11/3
f 6/12/4 2/13/4 4/5/4 8/14/4
f 2/13/5 1/1/5 3/4/5 4/5/5
f 6/11/6 5/10/6 1/1/6 2/13/6
o Torso_Cylinder.002
v -0.900000 -0.000000 -0.900000
v 0.900000 0.000000 -0.900000
v -0.900000 -0.450000 -0.779423
v 0.900000 -0.450000 -0.779423
v -0.900000 -0.779423 -0.450000
v 0.900000 -0.779423 -0.450000
v -0.900000 -0.900000 0.000000
v 0.900000 -0.900000 0.000000
v -0.900000 -0.779423 0.450000
v 0.900000 -0.779423 0.450000
v -0.900000 -0.450000 0.779423
v 0.900000 -0.450000 0.779423
v -0.900000 -0.000000 0.900000
v 0.900000 -0.000000 0.900000
v -0.900000 0.450000 0.779423
v 0.900000 0.450000 0.779423
v -0.900000 0.779423 0.450000
v 0.900000 0.779423 0.450000
v -0.900000 0.900000 0.000000
v 0.900000 0.900000 0.000000
v -0.900000 0.779423 -0.450000
v 0.900000 0.779423 -0.450000
v -0.900000 0.450000 -0.779423
v 0.900000 0.450001 -0.779423
vt 0.370000 0.457846
vt 0.250000 0.490000
vt 0.130000 0.457846
vt 0.042154 0.370000
vt 0.010000 0.250000
vt 0.042154 0.130000
vt 0.130000 0.042154
vt 0.250000 0.010000
vt 0.370000 0.042154
vt 0.457846 0.130000
vt 0.490000 0.250000
vt 0.457846 0.370000
vt 0.750000 0.490000
vt 0.870000 0.457846
vt 0.957846 0.370000
vt 0.990000 0.250000
vt 0.957846 0.130000
vt 0.870000 0.042154
vt 0.750000 0.010000
vt 0.630000 0.042154
vt 0.542154 0.130000
vt 0.510000 0.250000
vt 0.542154 0.370000
vt 0.630000 0.457846
vt 1.000000 0.500000
vt 1.000000 1.000000
vt 0.916667 1.000000
vt 0.916667 0.500000
vt 0.833333 1.000000
vt 0.833333 0.500000
vt 0.750000 1.000000
vt 0.750000 0.500000
vt 0.666667 1.000000
vt 0.666667 0.500000
vt 0.583333 1.000000
vt 0.583333 0.500000
vt 0.500000 1.000000
vt 0.500000 0.500000
vt 0.416667 1.000000
vt 0.416667 0.500000
vt 0.333333 1.000000
vt 0.333333 0.500000
vt 0.250000 1.000000
vt 0.250000 0.500000
vt 0.166667 1.000000
vt 0.166667 0.500000
vt 0.083333 1.000000
vt 0.083333 0.500000
vt 0.000000 1.000000
vt 0.000000 0.500000
vn 1.0000 0.0000 0.0000
vn -1.0000 -0.0000 -0.0000
vn -0.6532 0.0000 -0.7571
vn 0.6532 0.0000 -0.7571
vn 0.6532 -0.3786 -0.6557
vn -0.6532 -0.3786 -0.6557
vn 0.6532 -0.6557 -0.3786
vn -0.6532 -0.6557 -0.3786
vn 0.6532 -0.7571 0.0000
vn -0.6532 -0.7571 0.0000
vn 0.6532 -0.6557 0.3786
vn -0.6532 -0.6557 0.3786
vn 0.6532 -0.3786 0.6557
vn -0.6532 -0.3786 0.6557
vn 0.6532 0.0000 0.7571
vn -0.6532 0.0000 0.7571
vn 0.6532 0.3786 0.6557
vn -0.6532 0.3786 0.6557
vn 0.6532 0.6557 0.3786
vn -0.6532 0.6557 0.3786
vn 0.6532 0.7571 0.0000
vn -0.6532 0.7571 0.0000
vn 0.6532 0.6557 -0.3786
vn -0.6532 0.6557 -0.3786
vn 0.6532 0.3786 -0.6557
vn -0.6532 0.3786 -0.6557
usemtl Material
s off
f 12/15/7 10/16/7 32/17/7 30/18/7 28/19/7 26/20/7 24/21/7 22/22/7 20/23/7 18/24/7 16/25/7 14/26/7
f 9/27/8 11/28/8 13/29/8 15/30/8 17/31/8 19/32/8 21/33/8 23/34/8 25/35/8 27/36/8 29/37/8 31/38/8
s 1
f 9/39/9 10/40/10 12/41/11 11/42/12
f 11/42/12 12/41/11 14/43/13 13/44/14
f 13/44/14 14/43/13 16/45/15 15/46/16
f 15/46/16 16/45/15 18/47/17 17/48/18
f 17/48/18 18/47/17 20/49/19 19/50/20
f 19/50/20 20/49/19 22/51/21 21/52/22
f 21/52/22 22/51/21 24/53/23 23/54/24
f 23/54/24 24/53/23 26/55/25 25/56/26
f 25/56/26 26/55/25 28/57/27 27/58/28
f 27/58/28 28/57/27 30/59/29 29/60/30
f 29/60/30 30/59/29 32/61/31 31/62/32
f 31/62/32 32/61/31 10/63/10 9/64/9
o Head_Cube.001
v -0.504932 2.103404 0.504932
v -0.504932 1.191939 0.504932
v -0.504932 2.103404 -0.504932
v -0.504932 1.191939 -0.504932
v 0.504932 2.103404 0.504932
v 0.504932 1.191939 0.504932
v 0.504932 2.103404 -0.504932
v 0.504932 1.191939 -0.504932
v -0.540396 2.135413 -0.422981
v -0.578584 2.169880 -0.299576
v -0.605551 2.194219 -0.154914
v -0.615581 2.203271 0.000000
v -0.605551 2.194218 0.154914
v -0.578585 2.169880 0.299576
v -0.540396 2.135413 0.422981
v -0.540396 2.029438 0.540396
v -0.578584 1.918058 0.578584
v -0.605551 1.787491 0.605551
v -0.615581 1.647672 0.615581
v -0.605551 1.507853 0.605551
v -0.578584 1.377286 0.578584
v -0.540396 1.265905 0.540396
v -0.540396 1.159931 0.422981
v -0.578585 1.125464 0.299576
v -0.605551 1.101125 0.154914
v -0.615581 1.092072 -0.000000
v -0.605551 1.101125 -0.154914
v -0.578584 1.125464 -0.299576
v -0.540396 1.159931 -0.422981
v -0.540396 1.265905 -0.540396
v -0.578584 1.377286 -0.578584
v -0.605551 1.507853 -0.605551
v -0.615581 1.647672 -0.615581
v -0.605551 1.787491 -0.605551
v -0.578584 1.918058 -0.578584
v -0.540396 2.029438 -0.540396
v 0.422981 2.135413 -0.540396
v 0.299576 2.169880 -0.578584
v 0.154914 2.194219 -0.605551
v 0.000000 2.203271 -0.615581
v -0.154914 2.194218 -0.605551
v -0.299576 2.169880 -0.578585
v -0.422981 2.135413 -0.540396
v -0.422981 1.159931 -0.540396
v -0.299576 1.125464 -0.578585
v -0.154914 1.101125 -0.605551
v 0.000000 1.092072 -0.615581
v 0.154914 1.101125 -0.605551
v 0.299576 1.125464 -0.578584
v 0.422981 1.159931 -0.540396
v 0.540396 1.265905 -0.540396
v 0.578584 1.377286 -0.578584
v 0.605551 1.507853 -0.605551
v 0.615581 1.647672 -0.615581
v 0.605551 1.787491 -0.605551
v 0.578584 1.918058 -0.578584
v 0.540396 2.029438 -0.540396
v 0.540396 2.135413 0.422981
v 0.578584 2.169880 0.299576
v 0.605551 2.194219 0.154914
v 0.615581 2.203271 0.000000
v 0.605551 2.194218 -0.154914
v 0.578585 2.169880 -0.299576
v 0.540396 2.135413 -0.422981
v 0.540396 1.159931 -0.422981
v 0.578585 1.125464 -0.299576
v 0.605551 1.101125 -0.154914
v 0.615581 1.092072 0.000000
v 0.605551 1.101125 0.154914
v 0.578584 1.125464 0.299576
v 0.540396 1.159931 0.422981
v 0.540396 1.265905 0.540396
v 0.578584 1.377286 0.578584
v 0.605551 1.507853 0.605551
v 0.615581 1.647672 0.615581
v 0.605551 1.787491 0.605551
v 0.578584 1.918058 0.578584
v 0.540396 2.029438 0.540396
v -0.422981 2.135413 0.540396
v -0.299576 2.169880 0.578584
v -0.154914 2.194219 0.605551
v -0.000000 2.203271 0.615581
v 0.154914 2.194218 0.605551
v 0.299576 2.169880 0.578585
v 0.422981 2.135413 0.540396
v 0.422981 1.159931 0.540396
v 0.299576 1.125464 0.578585
v 0.154914 1.101125 0.605551
v -0.000000 1.092072 0.615581
v -0.154914 1.101125 0.605551
v -0.299576 1.125464 0.578584
v -0.422981 1.159931 0.540396
v -0.616483 2.041205 0.436018
v -0.670684 1.923830 0.459794
v -0.704911 1.789943 0.479080
v -0.716952 1.647672 0.486742
v -0.704911 1.505400 0.479080
v -0.670684 1.371514 0.459794
v -0.616483 1.254139 0.436018
v -0.670684 2.062664 0.305971
v -0.736181 1.935838 0.319276
v -0.776023 1.795252 0.331306
v -0.789541 1.647672 0.336427
v -0.776023 1.500092 0.331306
v -0.736181 1.359506 0.319276
v -0.670684 1.232680 0.305971
v -0.704911 2.080071 0.157631
v -0.776023 1.946696 0.163513
v -0.818861 1.800417 0.169235
v -0.833202 1.647672 0.171793
v -0.818861 1.494927 0.169235
v -0.776023 1.348648 0.163513
v -0.704911 1.215273 0.157631
v -0.716952 2.086987 -0.000000
v -0.789541 1.951318 -0.000000
v -0.833202 1.802726 0.000000
v -0.847788 1.647672 0.000000
v -0.833202 1.492618 -0.000000
v -0.789541 1.344026 -0.000000
v -0.716952 1.208357 -0.000000
v -0.704911 2.080071 -0.157631
v -0.776022 1.946696 -0.163513
v -0.818861 1.800417 -0.169235
v -0.833202 1.647672 -0.171793
v -0.818861 1.494927 -0.169235
v -0.776023 1.348648 -0.163513
v -0.704911 1.215273 -0.157631
v -0.670684 2.062664 -0.305971
v -0.736181 1.935838 -0.319276
v -0.776023 1.795252 -0.331306
v -0.789541 1.647672 -0.336427
v -0.776023 1.500092 -0.331306
v -0.736181 1.359506 -0.319276
v -0.670684 1.232680 -0.305971
v -0.616483 2.041205 -0.436018
v -0.670684 1.923830 -0.459794
v -0.704911 1.789943 -0.479080
v -0.716952 1.647672 -0.486742
v -0.704911 1.505400 -0.479080
v -0.670684 1.371514 -0.459794
v -0.616483 1.254139 -0.436018
v -0.436018 2.041205 -0.616483
v -0.459794 1.923830 -0.670684
v -0.479080 1.789943 -0.704911
v -0.486742 1.647672 -0.716952
v -0.479080 1.505400 -0.704911
v -0.459794 1.371514 -0.670684
v -0.436018 1.254139 -0.616483
v -0.305971 2.062664 -0.670684
v -0.319276 1.935838 -0.736181
v -0.331306 1.795252 -0.776022
v -0.336427 1.647672 -0.789541
v -0.331306 1.500092 -0.776022
v -0.319276 1.359506 -0.736181
v -0.305971 1.232680 -0.670684
v -0.157631 2.080071 -0.704911
v -0.163513 1.946696 -0.776022
v -0.169235 1.800417 -0.818861
v -0.171793 1.647672 -0.833202
v -0.169235 1.494927 -0.818861
v -0.163513 1.348648 -0.776023
v -0.157631 1.215273 -0.704911
v 0.000000 2.086987 -0.716952
v 0.000000 1.951318 -0.789541
v 0.000000 1.802726 -0.833202
v 0.000000 1.647672 -0.847788
v 0.000000 1.492618 -0.833202
v 0.000000 1.344026 -0.789541
v 0.000000 1.208357 -0.716952
v 0.157631 2.080071 -0.704911
v 0.163513 1.946696 -0.776022
v 0.169235 1.800417 -0.818861
v 0.171793 1.647672 -0.833202
v 0.169235 1.494927 -0.818861
v 0.163513 1.348648 -0.776023
v 0.157631 1.215273 -0.704911
v 0.305971 2.062664 -0.670684
v 0.319276 1.935838 -0.736181
v 0.331306 1.795252 -0.776023
v 0.336427 1.647672 -0.789541
v 0.331306 1.500092 -0.776023
v 0.319276 1.359506 -0.736181
v 0.305971 1.232680 -0.670684
v 0.436018 2.041205 -0.616483
v 0.459794 1.923830 -0.670684
v 0.479080 1.789943 -0.704911
v 0.486742 1.647672 -0.716952
v 0.479080 1.505400 -0.704911
v 0.459794 1.371514 -0.670684
v 0.436018 1.254139 -0.616483
v 0.616483 2.041205 -0.436018
v 0.670684 1.923830 -0.459794
v 0.704911 1.789943 -0.479080
v 0.716952 1.647672 -0.486742
v 0.704911 1.505400 -0.479080
v 0.670684 1.371514 -0.459794
v 0.616483 1.254139 -0.436018
v 0.670684 2.062664 -0.305971
v 0.736181 1.935838 -0.319276
v 0.776022 1.795252 -0.331306
v 0.789541 1.647672 -0.336427
v 0.776022 1.500092 -0.331306
v 0.736181 1.359506 -0.319276
v 0.670684 1.232680 -0.305971
v 0.704911 2.080071 -0.157631
v 0.776022 1.946696 -0.163513
v 0.818861 1.800417 -0.169235
v 0.833202 1.647672 -0.171793
v 0.818861 1.494927 -0.169235
v 0.776023 1.348648 -0.163513
v 0.704911 1.215273 -0.157631
v 0.716952 2.086987 0.000000
v 0.789541 1.951318 0.000000
v 0.833202 1.802726 0.000000
v 0.847788 1.647672 0.000000
v 0.833202 1.492618 0.000000
v 0.789541 1.344026 0.000000
v 0.716952 1.208357 0.000000
v 0.704911 2.080071 0.157631
v 0.776023 1.946696 0.163513
v 0.818861 1.800417 0.169235
v 0.833202 1.647672 0.171793
v 0.818861 1.494927 0.169235
v 0.776023 1.348648 0.163513
v 0.704911 1.215273 0.157631
v 0.670684 2.062664 0.305971
v 0.736181 1.935838 0.319276
v 0.776023 1.795252 0.331306
v 0.789541 1.647672 0.336427
v 0.776023 1.500092 0.331306
v 0.736181 1.359506 0.319276
v 0.670684 1.232680 0.305971
v 0.616483 2.041205 0.436018
v 0.670684 1.923830 0.459794
v 0.704911 1.789943 0.479080
v 0.716952 1.647672 0.486742
v 0.704911 1.505400 0.479080
v 0.670684 1.371514 0.459794
v 0.616483 1.254139 0.436018
v 0.436018 2.041205 0.616483
v 0.459794 1.923830 0.670684
v 0.479080 1.789943 0.704911
v 0.486742 1.647672 0.716952
v 0.479080 1.505400 0.704911
v 0.459794 1.371514 0.670684
v 0.436018 1.254139 0.616483
v 0.305971 2.062664 0.670684
v 0.319276 1.935838 0.736181
v 0.331306 1.795252 0.776022
v 0.336427 1.647672 0.789541
v 0.331306 1.500092 0.776022
v 0.319276 1.359506 0.736181
v 0.305971 1.232680 0.670684
v 0.157631 2.080071 0.704911
v 0.163513 1.946696 0.776022
v 0.169235 1.800417 0.818861
v 0.171793 1.647672 0.833202
v 0.169235 1.494927 0.818861
v 0.163513 1.348648 0.776023
v 0.157631 1.215273 0.704911
v -0.000000 2.086987 0.716952
v -0.000000 1.951318 0.789541
v -0.000000 1.802726 0.833202
v 0.000000 1.647672 0.847788
v -0.000000 1.492618 0.833202
v -0.000000 1.344026 0.789541
v -0.000000 1.208357 0.716952
v -0.157631 2.080071 0.704911
v -0.163513 1.946696 0.776022
v -0.169235 1.800417 0.818861
v -0.171793 1.647672 0.833202
v -0.169235 1.494927 0.818861
v -0.163513 1.348648 0.776023
v -0.157631 1.215273 0.704911
v -0.305971 2.062664 0.670684
v -0.319276 1.935838 0.736181
v -0.331306 1.795252 0.776023
v -0.336427 1.647672 0.789541
v -0.331306 1.500092 0.776023
v -0.319276 1.359506 0.736181
v -0.305971 1.232680 0.670684
v -0.436018 2.041205 0.616483
v -0.459794 1.923830 0.670684
v -0.479080 1.789943 0.704911
v -0.486742 1.647672 0.716952
v -0.479080 1.505400 0.704911
v -0.459794 1.371514 0.670684
v -0.436018 1.254139 0.616483
v -0.436018 2.204085 -0.436018
v -0.305971 2.253006 -0.459794
v -0.157631 2.283898 -0.479080
v -0.000000 2.294765 -0.486742
v 0.157631 2.283898 -0.479080
v 0.305971 2.253006 -0.459794
v 0.436018 2.204086 -0.436018
v -0.459794 2.253006 -0.305971
v -0.319276 2.312120 -0.319276
v -0.163513 2.348080 -0.331306
v -0.000000 2.360281 -0.336427
v 0.163513 2.348080 -0.331306
v 0.319276 2.312120 -0.319276
v 0.459794 2.253006 -0.305971
v -0.479080 2.283898 -0.157631
v -0.331306 2.348080 -0.163513
v -0.169235 2.386744 -0.169235
v 0.000000 2.399687 -0.171793
v 0.169235 2.386744 -0.169235
v 0.331306 2.348080 -0.163513
v 0.479080 2.283898 -0.157631
v -0.486742 2.294765 0.000000
v -0.336427 2.360281 0.000000
v -0.171793 2.399688 -0.000000
v 0.000000 2.412852 0.000000
v 0.171793 2.399688 0.000000
v 0.336427 2.360281 0.000000
v 0.486742 2.294765 0.000000
v -0.479080 2.283898 0.157631
v -0.331306 2.348080 0.163513
v -0.169235 2.386744 0.169235
v 0.000000 2.399688 0.171793
v 0.169235 2.386744 0.169235
v 0.331306 2.348080 0.163513
v 0.479080 2.283898 0.157631
v -0.459794 2.253006 0.305971
v -0.319276 2.312120 0.319276
v -0.163513 2.348080 0.331306
v 0.000000 2.360281 0.336427
v 0.163513 2.348080 0.331306
v 0.319276 2.312120 0.319276
v 0.459794 2.253006 0.305971
v -0.436018 2.204086 0.436018
v -0.305971 2.253006 0.459794
v -0.157631 2.283898 0.479080
v -0.000000 2.294765 0.486742
v 0.157631 2.283898 0.479080
v 0.305971 2.253006 0.459794
v 0.436018 2.204085 0.436018
v 0.436018 1.091258 -0.436018
v 0.305971 1.042338 -0.459794
v 0.157631 1.011446 -0.479080
v 0.000000 1.000578 -0.486742
v -0.157631 1.011446 -0.479080
v -0.305971 1.042338 -0.459794
v -0.436018 1.091258 -0.436018
v 0.459794 1.042338 -0.305971
v 0.319276 0.983223 -0.319276
v 0.163513 0.947264 -0.331306
v 0.000000 0.935063 -0.336427
v -0.163513 0.947264 -0.331306
v -0.319276 0.983223 -0.319276
v -0.459794 1.042338 -0.305971
v 0.479080 1.011446 -0.157631
v 0.331306 0.947264 -0.163513
v 0.169235 0.908600 -0.169235
v -0.000000 0.895656 -0.171793
v -0.169235 0.908600 -0.169235
v -0.331306 0.947264 -0.163513
v -0.479080 1.011446 -0.157631
v 0.486742 1.000578 0.000000
v 0.336427 0.935063 0.000000
v 0.171793 0.895656 -0.000000
v -0.000000 0.882492 -0.000000
v -0.171793 0.895656 -0.000000
v -0.336427 0.935063 0.000000
v -0.486742 1.000578 0.000000
v 0.479080 1.011446 0.157631
v 0.331306 0.947264 0.163513
v 0.169235 0.908600 0.169235
v -0.000000 0.895656 0.171793
v -0.169235 0.908600 0.169235
v -0.331306 0.947264 0.163513
v -0.479080 1.011446 0.157631
v 0.459794 1.042338 0.305971
v 0.319276 0.983223 0.319276
v 0.163513 0.947264 0.331306
v 0.000000 0.935063 0.336427
v -0.163513 0.947264 0.331306
v -0.319276 0.983223 0.319276
v -0.459794 1.042338 0.305971
v 0.436018 1.091258 0.436018
v 0.305971 1.042338 0.459794
v 0.157631 1.011446 0.479080
v 0.000000 1.000579 0.486742
v -0.157631 1.011446 0.479080
v -0.305971 1.042338 0.459794
v -0.436018 1.091258 0.436018
vt 0.406250 0.031250
vt 0.406250 0.062500
vt 0.437500 0.062500
vt 0.437500 0.031250
vt 0.468750 0.062500
vt 0.468750 0.031250
vt 0.500000 0.062500
vt 0.500000 0.031250
vt 0.531250 0.062500
vt 0.531250 0.031250
vt 0.562500 0.062500
vt 0.562500 0.031250
vt 0.593750 0.062500
vt 0.593750 0.031250
vt 0.406250 0.093750
vt 0.437500 0.093750
vt 0.468750 0.093750
vt 0.500000 0.093750
vt 0.531250 0.093750
vt 0.562500 0.093750
vt 0.593750 0.093750
vt 0.406250 0.125000
vt 0.437500 0.125000
vt 0.468750 0.125000
vt 0.500000 0.125000
vt 0.531250 0.125000
vt 0.562500 0.125000
vt 0.593750 0.125000
vt 0.406250 0.156250
vt 0.437500 0.156250
vt 0.468750 0.156250
vt 0.500000 0.156250
vt 0.531250 0.156250
vt 0.562500 0.156250
vt 0.593750 0.156250
vt 0.406250 0.187500
vt 0.437500 0.187500
vt 0.468750 0.187500
vt 0.500000 0.187500
vt 0.531250 0.187500
vt 0.562500 0.187500
vt 0.593750 0.187500
vt 0.406250 0.218750
vt 0.437500 0.218750
vt 0.468750 0.218750
vt 0.500000 0.218750
vt 0.531250 0.218750
vt 0.562500 0.218750
vt 0.593750 0.218750
vt 0.375000 0.000000
vt 0.375000 0.031250
vt 0.406250 0.000000
vt 0.437500 0.000000
vt 0.468750 0.000000
vt 0.500000 0.000000
vt 0.531250 0.000000
vt 0.562500 0.000000
vt 0.593750 0.000000
vt 0.625000 0.031250
vt 0.625000 0.000000
vt 0.625000 0.062500
vt 0.625000 0.093750
vt 0.625000 0.125000
vt 0.625000 0.156250
vt 0.625000 0.187500
vt 0.625000 0.218750
vt 0.593750 0.250000
vt 0.625000 0.250000
vt 0.562500 0.250000
vt 0.531250 0.250000
vt 0.500000 0.250000
vt 0.468750 0.250000
vt 0.437500 0.250000
vt 0.406250 0.250000
vt 0.375000 0.218750
vt 0.375000 0.250000
vt 0.375000 0.187500
vt 0.375000 0.156250
vt 0.375000 0.125000
vt 0.375000 0.093750
vt 0.375000 0.062500
vt 0.406189 0.281189
vt 0.405762 0.312008
vt 0.437174 0.312147
vt 0.437459 0.281206
vt 0.468587 0.312246
vt 0.468730 0.281218
vt 0.500000 0.312283
vt 0.500000 0.281223
vt 0.531413 0.312246
vt 0.531270 0.281218
vt 0.562826 0.312147
vt 0.562541 0.281206
vt 0.594238 0.312008
vt 0.593811 0.281189
vt 0.404602 0.342091
vt 0.436401 0.342560
vt 0.468201 0.342892
vt 0.500000 0.343018
vt 0.531799 0.342892
vt 0.563599 0.342560
vt 0.595398 0.342091
vt 0.402344 0.371067
vt 0.434896 0.372179
vt 0.467448 0.372966
vt 0.500000 0.373264
vt 0.532552 0.372966
vt 0.565104 0.372179
vt 0.597656 0.371067
vt 0.398695 0.398644
vt 0.432522 0.400862
vt 0.466282 0.402397
vt 0.500000 0.402968
vt 0.533719 0.402397
vt 0.567478 0.400862
vt 0.601305 0.398644
vt 0.393663 0.424835
vt 0.429579 0.428955
vt 0.464952 0.431597
vt 0.500000 0.432509
vt 0.535048 0.431597
vt 0.570421 0.428955
vt 0.606337 0.424835
vt 0.387819 0.450219
vt 0.426704 0.457157
vt 0.463815 0.461125
vt 0.500000 0.462375
vt 0.536185 0.461125
vt 0.573296 0.457157
vt 0.612181 0.450219
vt 0.374919 0.281169
vt 0.625081 0.281169
vt 0.625651 0.311849
vt 0.627197 0.341553
vt 0.630208 0.369792
vt 0.635173 0.396078
vt 0.642578 0.419922
vt 0.652913 0.440837
vt 0.615282 0.478360
vt 0.666667 0.458333
vt 0.574544 0.487088
vt 0.536662 0.491659
vt 0.500000 0.493056
vt 0.463338 0.491659
vt 0.425456 0.487088
vt 0.384718 0.478360
vt 0.347087 0.440837
vt 0.333333 0.458333
vt 0.357422 0.419922
vt 0.364828 0.396078
vt 0.369792 0.369792
vt 0.372803 0.341553
vt 0.374349 0.311849
vt 0.389163 0.514163
vt 0.394999 0.551968
vt 0.429742 0.554742
vt 0.426968 0.519999
vt 0.464851 0.556905
vt 0.463832 0.523694
vt 0.500000 0.557726
vt 0.500000 0.524902
vt 0.535149 0.556905
vt 0.536168 0.523694
vt 0.570258 0.554742
vt 0.573032 0.519999
vt 0.605001 0.551968
vt 0.610837 0.514163
vt 0.398694 0.588833
vt 0.431905 0.589851
vt 0.465792 0.590792
vt 0.500000 0.591200
vt 0.534208 0.590792
vt 0.568095 0.589850
vt 0.601306 0.588833
vt 0.399902 0.625000
vt 0.432726 0.625000
vt 0.466200 0.625000
vt 0.500000 0.625000
vt 0.533800 0.625000
vt 0.567274 0.625000
vt 0.600098 0.625000
vt 0.398694 0.661168
vt 0.431905 0.660150
vt 0.465792 0.659208
vt 0.500000 0.658800
vt 0.534208 0.659208
vt 0.568095 0.660149
vt 0.601306 0.661168
vt 0.394999 0.698032
vt 0.429742 0.695258
vt 0.464851 0.693095
vt 0.500000 0.692274
vt 0.535149 0.693095
vt 0.570258 0.695258
vt 0.605001 0.698032
vt 0.389163 0.735837
vt 0.426968 0.730001
vt 0.463832 0.726306
vt 0.500000 0.725098
vt 0.536168 0.726306
vt 0.573032 0.730001
vt 0.610837 0.735837
vt 0.353360 0.509718
vt 0.646640 0.509718
vt 0.637912 0.550456
vt 0.633342 0.588338
vt 0.631945 0.625000
vt 0.633342 0.661662
vt 0.637912 0.699544
vt 0.646640 0.740282
vt 0.615282 0.771640
vt 0.666667 0.791667
vt 0.574544 0.762912
vt 0.536662 0.758342
vt 0.500000 0.756944
vt 0.463338 0.758342
vt 0.425456 0.762912
vt 0.384718 0.771640
vt 0.353360 0.740282
vt 0.333333 0.791667
vt 0.362088 0.699544
vt 0.366659 0.661662
vt 0.368056 0.625000
vt 0.366659 0.588338
vt 0.362088 0.550456
vt 0.387819 0.799781
vt 0.393663 0.825165
vt 0.429579 0.821045
vt 0.426704 0.792843
vt 0.464952 0.818404
vt 0.463815 0.788875
vt 0.500000 0.817491
vt 0.500000 0.787625
vt 0.535048 0.818404
vt 0.536185 0.788875
vt 0.570421 0.821045
vt 0.573296 0.792843
vt 0.606337 0.825165
vt 0.612181 0.799781
vt 0.398695 0.851356
vt 0.432522 0.849138
vt 0.466282 0.847603
vt 0.500000 0.847032
vt 0.533719 0.847603
vt 0.567478 0.849138
vt 0.601305 0.851356
vt 0.402344 0.878933
vt 0.434896 0.877821
vt 0.467448 0.877035
vt 0.500000 0.876736
vt 0.532552 0.877035
vt 0.565104 0.877821
vt 0.597656 0.878933
vt 0.404602 0.907909
vt 0.436401 0.907440
vt 0.468201 0.907108
vt 0.500000 0.906982
vt 0.531799 0.907108
vt 0.563599 0.907440
vt 0.595398 0.907909
vt 0.405762 0.937992
vt 0.437174 0.937853
vt 0.468587 0.937754
vt 0.500000 0.937717
vt 0.531413 0.937754
vt 0.562826 0.937853
vt 0.594238 0.937992
vt 0.406189 0.968812
vt 0.437459 0.968794
vt 0.468730 0.968782
vt 0.500000 0.968777
vt 0.531270 0.968782
vt 0.562541 0.968794
vt 0.593811 0.968812
vt 0.347087 0.809163
vt 0.652913 0.809163
vt 0.642578 0.830078
vt 0.635173 0.853923
vt 0.630208 0.880208
vt 0.627197 0.908447
vt 0.625651 0.938151
vt 0.625081 0.968832
vt 0.593750 1.000000
vt 0.625000 1.000000
vt 0.562500 1.000000
vt 0.531250 1.000000
vt 0.500000 1.000000
vt 0.468750 1.000000
vt 0.437500 1.000000
vt 0.406250 1.000000
vt 0.374919 0.968832
vt 0.375000 1.000000
vt 0.374349 0.938151
vt 0.372803 0.908447
vt 0.369792 0.880208
vt 0.364828 0.853923
vt 0.357422 0.830078
vt 0.156189 0.531189
vt 0.156206 0.562459
vt 0.187147 0.562174
vt 0.187008 0.530762
vt 0.217560 0.561401
vt 0.217091 0.529602
vt 0.247179 0.559896
vt 0.246067 0.527344
vt 0.275862 0.557522
vt 0.273644 0.523695
vt 0.303955 0.554579
vt 0.299835 0.518663
vt 0.332157 0.551704
vt 0.325220 0.512819
vt 0.156218 0.593730
vt 0.187246 0.593587
vt 0.217892 0.593201
vt 0.247966 0.592448
vt 0.277397 0.591282
vt 0.306597 0.589952
vt 0.336125 0.588815
vt 0.156223 0.625000
vt 0.187283 0.625000
vt 0.218018 0.625000
vt 0.248264 0.625000
vt 0.277968 0.625000
vt 0.307509 0.625000
vt 0.337375 0.625000
vt 0.156218 0.656270
vt 0.187246 0.656413
vt 0.217892 0.656799
vt 0.247966 0.657552
vt 0.277397 0.658719
vt 0.306597 0.660048
vt 0.336125 0.661186
vt 0.156206 0.687541
vt 0.187147 0.687826
vt 0.217560 0.688599
vt 0.247179 0.690104
vt 0.275862 0.692478
vt 0.303955 0.695421
vt 0.332157 0.698297
vt 0.156189 0.718811
vt 0.187008 0.719238
vt 0.217091 0.720398
vt 0.246067 0.722656
vt 0.273644 0.726305
vt 0.299835 0.731337
vt 0.325219 0.737181
vt 0.125000 0.500000
vt 0.125000 0.531250
vt 0.156169 0.499919
vt 0.186849 0.499349
vt 0.216553 0.497803
vt 0.244792 0.494792
vt 0.271077 0.489828
vt 0.294922 0.482422
vt 0.315837 0.472087
vt 0.315837 0.777913
vt 0.294922 0.767578
vt 0.271077 0.760173
vt 0.244792 0.755208
vt 0.216553 0.752197
vt 0.186849 0.750651
vt 0.156169 0.750081
vt 0.125000 0.718750
vt 0.125000 0.750000
vt 0.125000 0.687500
vt 0.125000 0.656250
vt 0.125000 0.625000
vt 0.125000 0.593750
vt 0.125000 0.562500
vt 0.674781 0.512819
vt 0.667843 0.551704
vt 0.696045 0.554579
vt 0.700165 0.518663
vt 0.724138 0.557522
vt 0.726356 0.523695
vt 0.752821 0.559896
vt 0.753933 0.527344
vt 0.782440 0.561401
vt 0.782909 0.529602
vt 0.812853 0.562174
vt 0.812992 0.530762
vt 0.843794 0.562459
vt 0.843812 0.531189
vt 0.663875 0.588815
vt 0.693404 0.589952
vt 0.722603 0.591282
vt 0.752035 0.592448
vt 0.782108 0.593201
vt 0.812754 0.593587
vt 0.843782 0.593730
vt 0.662625 0.625000
vt 0.692491 0.625000
vt 0.722032 0.625000
vt 0.751736 0.625000
vt 0.781982 0.625000
vt 0.812717 0.625000
vt 0.843777 0.625000
vt 0.663875 0.661186
vt 0.693403 0.660048
vt 0.722603 0.658719
vt 0.752035 0.657552
vt 0.782108 0.656799
vt 0.812754 0.656413
vt 0.843782 0.656270
vt 0.667843 0.698297
vt 0.696045 0.695421
vt 0.724138 0.692478
vt 0.752821 0.690104
vt 0.782440 0.688599
vt 0.812853 0.687826
vt 0.843794 0.687541
vt 0.674781 0.737181
vt 0.700165 0.731337
vt 0.726356 0.726305
vt 0.753933 0.722656
vt 0.782909 0.720398
vt 0.812992 0.719238
vt 0.843812 0.718811
vt 0.684163 0.472087
vt 0.705078 0.482422
vt 0.728923 0.489827
vt 0.755208 0.494792
vt 0.783447 0.497803
vt 0.813151 0.499349
vt 0.843831 0.499919
vt 0.875000 0.531250
vt 0.875000 0.500000
vt 0.875000 0.562500
vt 0.875000 0.593750
vt 0.875000 0.625000
vt 0.875000 0.656250
vt 0.875000 0.687500
vt 0.875000 0.718750
vt 0.843831 0.750081
vt 0.875000 0.750000
vt 0.813151 0.750651
vt 0.783447 0.752197
vt 0.755208 0.755208
vt 0.728923 0.760173
vt 0.705078 0.767578
vt 0.684163 0.777914
vn -0.7152 0.5185 0.4686
vn -0.7739 0.5455 0.3217
vn -0.8658 0.3711 0.3356
vn -0.7861 0.3616 0.5013
vn -0.9192 0.1899 0.3448
vn -0.8314 0.1894 0.5224
vn -0.9374 0.0000 0.3481
vn -0.8478 0.0000 0.5303
vn -0.9192 -0.1899 0.3448
vn -0.8314 -0.1894 0.5224
vn -0.8658 -0.3711 0.3356
vn -0.7861 -0.3616 0.5013
vn -0.7739 -0.5455 0.3217
vn -0.7152 -0.5185 0.4686
vn -0.8100 0.5622 0.1667
vn -0.9103 0.3773 0.1700
vn -0.9668 0.1896 0.1715
vn -0.9851 0.0000 0.1719
vn -0.9668 -0.1896 0.1715
vn -0.9103 -0.3773 0.1700
vn -0.8100 -0.5622 0.1667
vn -0.8229 0.5682 0.0000
vn -0.9252 0.3795 0.0000
vn -0.9819 0.1893 0.0000
vn -1.0000 0.0000 0.0000
vn -0.9819 -0.1893 0.0000
vn -0.9252 -0.3795 0.0000
vn -0.8229 -0.5682 0.0000
vn -0.8100 0.5622 -0.1667
vn -0.9103 0.3773 -0.1700
vn -0.9668 0.1896 -0.1715
vn -0.9851 0.0000 -0.1719
vn -0.9668 -0.1896 -0.1715
vn -0.9103 -0.3773 -0.1700
vn -0.8100 -0.5622 -0.1667
vn -0.7739 0.5455 -0.3217
vn -0.8658 0.3711 -0.3356
vn -0.9192 0.1899 -0.3448
vn -0.9374 0.0000 -0.3481
vn -0.9192 -0.1899 -0.3448
vn -0.8658 -0.3711 -0.3356
vn -0.7739 -0.5455 -0.3217
vn -0.7152 0.5185 -0.4686
vn -0.7861 0.3616 -0.5013
vn -0.8314 0.1894 -0.5224
vn -0.8478 0.0000 -0.5303
vn -0.8314 -0.1894 -0.5224
vn -0.7861 -0.3616 -0.5013
vn -0.7152 -0.5185 -0.4686
vn -0.5564 0.6172 0.5564
vn -0.6012 0.6644 0.4440
vn -0.6120 0.5008 0.6120
vn -0.6607 0.3564 0.6607
vn -0.6944 0.1890 0.6944
vn -0.7071 0.0000 0.7071
vn -0.6944 -0.1890 0.6944
vn -0.6607 -0.3564 0.6607
vn -0.6120 -0.5008 0.6120
vn -0.6012 -0.6644 0.4440
vn -0.5564 -0.6172 0.5564
vn -0.6379 -0.7046 0.3107
vn -0.6624 -0.7312 0.1628
vn -0.6715 -0.7410 0.0000
vn -0.6624 -0.7312 -0.1628
vn -0.6379 -0.7046 -0.3107
vn -0.6012 -0.6644 -0.4440
vn -0.6120 -0.5008 -0.6120
vn -0.5564 -0.6171 -0.5564
vn -0.6607 -0.3564 -0.6607
vn -0.6944 -0.1890 -0.6944
vn -0.7071 0.0000 -0.7071
vn -0.6944 0.1890 -0.6944
vn -0.6607 0.3564 -0.6607
vn -0.6120 0.5008 -0.6120
vn -0.6012 0.6644 -0.4440
vn -0.5564 0.6172 -0.5564
vn -0.6379 0.7046 -0.3107
vn -0.6624 0.7312 -0.1628
vn -0.6715 0.7410 0.0000
vn -0.6624 0.7312 0.1628
vn -0.6379 0.7046 0.3107
vn -0.4686 0.5185 -0.7152
vn -0.3217 0.5455 -0.7739
vn -0.3356 0.3711 -0.8658
vn -0.5013 0.3616 -0.7861
vn -0.3448 0.1899 -0.9192
vn -0.5224 0.1894 -0.8314
vn -0.3481 0.0000 -0.9374
vn -0.5303 0.0000 -0.8478
vn -0.3448 -0.1899 -0.9192
vn -0.5224 -0.1894 -0.8314
vn -0.3356 -0.3711 -0.8658
vn -0.5013 -0.3616 -0.7861
vn -0.3217 -0.5455 -0.7739
vn -0.4686 -0.5185 -0.7152
vn -0.1667 0.5622 -0.8100
vn -0.1700 0.3773 -0.9103
vn -0.1715 0.1896 -0.9668
vn -0.1719 0.0000 -0.9851
vn -0.1715 -0.1896 -0.9668
vn -0.1700 -0.3773 -0.9103
vn -0.1667 -0.5622 -0.8100
vn 0.0000 0.5682 -0.8229
vn 0.0000 0.3795 -0.9252
vn 0.0000 0.1893 -0.9819
vn 0.0000 0.0000 -1.0000
vn 0.0000 -0.1893 -0.9819
vn 0.0000 -0.3795 -0.9252
vn 0.0000 -0.5682 -0.8229
vn 0.1667 0.5622 -0.8100
vn 0.1700 0.3773 -0.9103
vn 0.1715 0.1896 -0.9668
vn 0.1719 0.0000 -0.9851
vn 0.1715 -0.1896 -0.9668
vn 0.1700 -0.3773 -0.9103
vn 0.1667 -0.5622 -0.8100
vn 0.3217 0.5455 -0.7739
vn 0.3356 0.3711 -0.8658
vn 0.3448 0.1899 -0.9192
vn 0.3481 0.0000 -0.9374
vn 0.3448 -0.1899 -0.9192
vn 0.3356 -0.3711 -0.8658
vn 0.3217 -0.5455 -0.7739
vn 0.4686 0.5185 -0.7152
vn 0.5013 0.3616 -0.7861
vn 0.5224 0.1894 -0.8314
vn 0.5303 0.0000 -0.8478
vn 0.5224 -0.1894 -0.8314
vn 0.5013 -0.3616 -0.7861
vn 0.4686 -0.5185 -0.7152
vn -0.4440 0.6644 -0.6011
vn -0.4440 -0.6644 -0.6012
vn -0.3107 -0.7046 -0.6379
vn -0.1628 -0.7312 -0.6624
vn 0.0000 -0.7410 -0.6715
vn 0.1628 -0.7312 -0.6624
vn 0.3107 -0.7046 -0.6379
vn 0.4440 -0.6644 -0.6012
vn 0.6120 -0.5008 -0.6120
vn 0.5564 -0.6172 -0.5564
vn 0.6607 -0.3564 -0.6607
vn 0.6944 -0.1890 -0.6944
vn 0.7071 0.0000 -0.7071
vn 0.6944 0.1890 -0.6944
vn 0.6607 0.3564 -0.6607
vn 0.6120 0.5008 -0.6120
vn 0.4440 0.6644 -0.6012
vn 0.5564 0.6172 -0.5564
vn 0.3107 0.7046 -0.6379
vn 0.1628 0.7312 -0.6624
vn 0.0000 0.7410 -0.6715
vn -0.1628 0.7312 -0.6624
vn -0.3107 0.7046 -0.6379
vn 0.7152 0.5185 -0.4686
vn 0.7739 0.5455 -0.3217
vn 0.8658 0.3711 -0.3356
vn 0.7861 0.3616 -0.5013
vn 0.9192 0.1899 -0.3448
vn 0.8314 0.1894 -0.5224
vn 0.9374 0.0000 -0.3481
vn 0.8478 0.0000 -0.5303
vn 0.9192 -0.1899 -0.3448
vn 0.8314 -0.1894 -0.5224
vn 0.8658 -0.3711 -0.3356
vn 0.7861 -0.3616 -0.5013
vn 0.7739 -0.5455 -0.3217
vn 0.7152 -0.5185 -0.4686
vn 0.8100 0.5622 -0.1667
vn 0.9103 0.3773 -0.1700
vn 0.9668 0.1896 -0.1715
vn 0.9851 0.0000 -0.1719
vn 0.9668 -0.1896 -0.1715
vn 0.9103 -0.3773 -0.1700
vn 0.8100 -0.5622 -0.1667
vn 0.8229 0.5682 0.0000
vn 0.9252 0.3795 0.0000
vn 0.9819 0.1893 0.0000
vn 1.0000 0.0000 0.0000
vn 0.9819 -0.1893 0.0000
vn 0.9252 -0.3795 0.0000
vn 0.8229 -0.5682 0.0000
vn 0.8100 0.5622 0.1667
vn 0.9103 0.3773 0.1700
vn 0.9668 0.1896 0.1715
vn 0.9851 0.0000 0.1719
vn 0.9668 -0.1896 0.1715
vn 0.9103 -0.3773 0.1700
vn 0.8100 -0.5622 0.1667
vn 0.7739 0.5455 0.3217
vn 0.8658 0.3711 0.3356
vn 0.9192 0.1899 0.3448
vn 0.9374 0.0000 0.3481
vn 0.9192 -0.1899 0.3448
vn 0.8658 -0.3711 0.3356
vn 0.7739 -0.5455 0.3217
vn 0.7152 0.5185 0.4686
vn 0.7861 0.3616 0.5013
vn 0.8314 0.1894 0.5224
vn 0.8478 0.0000 0.5303
vn 0.8314 -0.1894 0.5224
vn 0.7861 -0.3616 0.5013
vn 0.7152 -0.5185 0.4686
vn 0.6012 0.6644 -0.4440
vn 0.6012 -0.6644 -0.4440
vn 0.6379 -0.7046 -0.3107
vn 0.6624 -0.7312 -0.1628
vn 0.6715 -0.7410 0.0000
vn 0.6624 -0.7312 0.1628
vn 0.6379 -0.7046 0.3107
vn 0.6012 -0.6644 0.4440
vn 0.6120 -0.5008 0.6120
vn 0.5564 -0.6171 0.5564
vn 0.6607 -0.3564 0.6607
vn 0.6944 -0.1890 0.6944
vn 0.7071 0.0000 0.7071
vn 0.6944 0.1890 0.6944
vn 0.6607 0.3564 0.6607
vn 0.6120 0.5008 0.6120
vn 0.6012 0.6644 0.4440
vn 0.5564 0.6172 0.5564
vn 0.6379 0.7046 0.3107
vn 0.6624 0.7312 0.1628
vn 0.6715 0.7410 0.0000
vn 0.6624 0.7312 -0.1628
vn 0.6379 0.7046 -0.3107
vn 0.4686 0.5185 0.7152
vn 0.3217 0.5455 0.7739
vn 0.3356 0.3711 0.8658
vn 0.5013 0.3616 0.7861
vn 0.3448 0.1899 0.9192
vn 0.5224 0.1894 0.8314
vn 0.3481 0.0000 0.9374
vn 0.5303 0.0000 0.8478
vn 0.3448 -0.1899 0.9192
vn 0.5224 -0.1894 0.8314
vn 0.3356 -0.3711 0.8658
vn 0.5013 -0.3616 0.7861
vn 0.3217 -0.5455 0.7739
vn 0.4686 -0.5185 0.7152
vn 0.1667 0.5622 0.8100
vn 0.1700 0.3773 0.9103
vn 0.1715 0.1896 0.9668
vn 0.1719 0.0000 0.9851
vn 0.1715 -0.1896 0.9668
vn 0.1700 -0.3773 0.9103
vn 0.1667 -0.5622 0.8100
vn 0.0000 0.5682 0.8229
vn 0.0000 0.3795 0.9252
vn 0.0000 0.1893 0.9819
vn 0.0000 0.0000 1.0000
vn 0.0000 -0.1893 0.9819
vn 0.0000 -0.3795 0.9252
vn 0.0000 -0.5682 0.8229
vn -0.1667 0.5622 0.8100
vn -0.1700 0.3773 0.9103
vn -0.1715 0.1896 0.9668
vn -0.1719 0.0000 0.9851
vn -0.1715 -0.1896 0.9668
vn -0.1700 -0.3773 0.9103
vn -0.1667 -0.5622 0.8100
vn -0.3217 0.5455 0.7739
vn -0.3356 0.3711 0.8658
vn -0.3448 0.1899 0.9192
vn -0.3481 0.0000 0.9374
vn -0.3448 -0.1899 0.9192
vn -0.3356 -0.3711 0.8658
vn -0.3217 -0.5455 0.7739
vn -0.4686 0.5185 0.7152
vn -0.5013 0.3616 0.7861
vn -0.5224 0.1894 0.8314
vn -0.5303 0.0000 0.8478
vn -0.5224 -0.1894 0.8314
vn -0.5013 -0.3616 0.7861
vn -0.4686 -0.5185 0.7152
vn 0.4440 0.6644 0.6011
vn 0.4440 -0.6644 0.6012
vn 0.3107 -0.7046 0.6379
vn 0.1628 -0.7312 0.6624
vn 0.0000 -0.7410 0.6715
vn -0.1628 -0.7312 0.6624
vn -0.3107 -0.7046 0.6379
vn -0.4440 -0.6644 0.6012
vn -0.4440 0.6644 0.6012
vn -0.3107 0.7046 0.6379
vn -0.1628 0.7312 0.6624
vn 0.0000 0.7410 0.6715
vn 0.1628 0.7312 0.6624
vn 0.3107 0.7046 0.6379
vn -0.4540 0.7666 -0.4540
vn -0.4754 0.8234 -0.3098
vn -0.3142 0.8958 -0.3142
vn -0.3098 0.8234 -0.4754
vn -0.1581 0.9350 -0.3175
vn -0.1600 0.8579 -0.4882
vn 0.0000 0.9479 -0.3186
vn 0.0000 0.8701 -0.4929
vn 0.1581 0.9350 -0.3175
vn 0.1600 0.8579 -0.4882
vn 0.3142 0.8958 -0.3142
vn 0.3098 0.8234 -0.4754
vn 0.4754 0.8234 -0.3098
vn 0.4540 0.7666 -0.4540
vn -0.4882 0.8579 -0.1600
vn -0.3175 0.9350 -0.1581
vn -0.1566 0.9752 -0.1566
vn 0.0000 0.9878 -0.1559
vn 0.1566 0.9752 -0.1566
vn 0.3175 0.9350 -0.1581
vn 0.4882 0.8579 -0.1600
vn -0.4929 0.8701 0.0000
vn -0.3186 0.9479 0.0000
vn -0.1559 0.9878 0.0000
vn 0.0000 1.0000 0.0000
vn 0.1559 0.9878 0.0000
vn 0.3186 0.9479 0.0000
vn 0.4929 0.8701 0.0000
vn -0.4882 0.8579 0.1600
vn -0.3175 0.9350 0.1581
vn -0.1566 0.9752 0.1566
vn 0.0000 0.9878 0.1559
vn 0.1566 0.9752 0.1566
vn 0.3175 0.9350 0.1581
vn 0.4882 0.8579 0.1600
vn -0.4754 0.8234 0.3098
vn -0.3142 0.8958 0.3142
vn -0.1581 0.9350 0.3175
vn 0.0000 0.9479 0.3186
vn 0.1581 0.9350 0.3175
vn 0.3142 0.8958 0.3142
vn 0.4754 0.8234 0.3098
vn -0.4540 0.7666 0.4540
vn -0.3098 0.8234 0.4754
vn -0.1600 0.8579 0.4882
vn 0.0000 0.8701 0.4929
vn 0.1600 0.8579 0.4882
vn 0.3098 0.8234 0.4754
vn 0.4540 0.7666 0.4540
vn 0.4540 -0.7666 -0.4540
vn 0.4754 -0.8234 -0.3098
vn 0.3142 -0.8958 -0.3142
vn 0.3098 -0.8234 -0.4754
vn 0.1581 -0.9350 -0.3175
vn 0.1600 -0.8579 -0.4882
vn 0.0000 -0.9479 -0.3186
vn 0.0000 -0.8701 -0.4929
vn -0.1581 -0.9350 -0.3175
vn -0.1600 -0.8579 -0.4882
vn -0.3142 -0.8958 -0.3142
vn -0.3098 -0.8234 -0.4754
vn -0.4754 -0.8234 -0.3098
vn -0.4540 -0.7666 -0.4540
vn 0.4882 -0.8579 -0.1600
vn 0.3175 -0.9350 -0.1581
vn 0.1566 -0.9752 -0.1566
vn 0.0000 -0.9878 -0.1559
vn -0.1566 -0.9752 -0.1566
vn -0.3175 -0.9350 -0.1581
vn -0.4882 -0.8579 -0.1600
vn 0.4929 -0.8701 0.0000
vn 0.3186 -0.9479 0.0000
vn 0.1559 -0.9878 0.0000
vn 0.0000 -1.0000 0.0000
vn -0.1559 -0.9878 0.0000
vn -0.3186 -0.9479 0.0000
vn -0.4929 -0.8701 0.0000
vn 0.4882 -0.8579 0.1600
vn 0.3175 -0.9350 0.1581
vn 0.1566 -0.9752 0.1566
vn 0.0000 -0.9878 0.1559
vn -0.1566 -0.9752 0.1566
vn -0.3175 -0.9350 0.1581
vn -0.4882 -0.8579 0.1600
vn 0.4754 -0.8234 0.3098
vn 0.3142 -0.8958 0.3142
vn 0.1581 -0.9350 0.3175
vn 0.0000 -0.9479 0.3186
vn -0.1581 -0.9350 0.3175
vn -0.3142 -0.8958 0.3142
vn -0.4754 -0.8234 0.3098
vn 0.4540 -0.7666 0.4540
vn 0.3098 -0.8234 0.4754
vn 0.1600 -0.8579 0.4882
vn 0.0000 -0.8701 0.4929
vn -0.1600 -0.8579 0.4882
vn -0.3098 -0.8234 0.4754
vn -0.4540 -0.7666 0.4540
usemtl Material
s 1
f 125/65/33 132/66/34 133/67/35 126/68/36
f 126/68/36 133/67/35 134/69/37 127/70/38
f 127/70/38 134/69/37 135/71/39 128/72/40
f 128/72/40 135/71/39 136/73/41 129/74/42
f 129/74/42 136/73/41 137/75/43 130/76/44
f 130/76/44 137/75/43 138/77/45 131/78/46
f 132/66/34 139/79/47 140/80/48 133/67/35
f 133/67/35 140/80/48 141/81/49 134/69/37
f 134/69/37 141/81/49 142/82/50 135/71/39
f 135/71/39 142/82/50 143/83/51 136/73/41
f 136/73/41 143/83/51 144/84/52 137/75/43
f 137/75/43 144/84/52 145/85/53 138/77/45
f 139/79/47 146/86/54 147/87/55 140/80/48
f 140/80/48 147/87/55 148/88/56 141/81/49
f 141/81/49 148/88/56 149/89/57 142/82/50
f 142/82/50 149/89/57 150/90/58 143/83/51
f 143/83/51 150/90/58 151/91/59 144/84/52
f 144/84/52 151/91/59 152/92/60 145/85/53
f 146/86/54 153/93/61 154/94/62 147/87/55
f 147/87/55 154/94/62 155/95/63 148/88/56
f 148/88/56 155/95/63 156/96/64 149/89/57
f 149/89/57 156/96/64 157/97/65 150/90/58
f 150/90/58 157/97/65 158/98/66 151/91/59
f 151/91/59 158/98/66 159/99/67 152/92/60
f 153/93/61 160/100/68 161/101/69 154/94/62
f 154/94/62 161/101/69 162/102/70 155/95/63
f 155/95/63 162/102/70 163/103/71 156/96/64
f 156/96/64 163/103/71 164/104/72 157/97/65
f 157/97/65 164/104/72 165/105/73 158/98/66
f 158/98/66 165/105/73 166/106/74 159/99/67
f 160/100/68 167/107/75 168/108/76 161/101/69
f 161/101/69 168/108/76 169/109/77 162/102/70
f 162/102/70 169/109/77 170/110/78 163/103/71
f 163/103/71 170/110/78 171/111/79 164/104/72
f 164/104/72 171/111/79 172/112/80 165/105/73
f 165/105/73 172/112/80 173/113/81 166/106/74
f 33/114/82 47/115/83 125/65/33 48/116/84
f 48/116/84 125/65/33 126/68/36 49/117/85
f 49/117/85 126/68/36 127/70/38 50/118/86
f 50/118/86 127/70/38 128/72/40 51/119/87
f 51/119/87 128/72/40 129/74/42 52/120/88
f 52/120/88 129/74/42 130/76/44 53/121/89
f 53/121/89 130/76/44 131/78/46 54/122/90
f 54/122/90 131/78/46 55/123/91 34/124/92
f 131/78/46 138/77/45 56/125/93 55/123/91
f 138/77/45 145/85/53 57/126/94 56/125/93
f 145/85/53 152/92/60 58/127/95 57/126/94
f 152/92/60 159/99/67 59/128/96 58/127/95
f 159/99/67 166/106/74 60/129/97 59/128/96
f 166/106/74 173/113/81 61/130/98 60/129/97
f 173/113/81 62/131/99 36/132/100 61/130/98
f 172/112/80 63/133/101 62/131/99 173/113/81
f 171/111/79 64/134/102 63/133/101 172/112/80
f 170/110/78 65/135/103 64/134/102 171/111/79
f 169/109/77 66/136/104 65/135/103 170/110/78
f 168/108/76 67/137/105 66/136/104 169/109/77
f 167/107/75 68/138/106 67/137/105 168/108/76
f 41/139/107 35/140/108 68/138/106 167/107/75
f 42/141/109 41/139/107 167/107/75 160/100/68
f 43/142/110 42/141/109 160/100/68 153/93/61
f 44/143/111 43/142/110 153/93/61 146/86/54
f 45/144/112 44/143/111 146/86/54 139/79/47
f 46/145/113 45/144/112 139/79/47 132/66/34
f 47/115/83 46/145/113 132/66/34 125/65/33
f 174/146/114 181/147/115 182/148/116 175/149/117
f 175/149/117 182/148/116 183/150/118 176/151/119
f 176/151/119 183/150/118 184/152/120 177/153/121
f 177/153/121 184/152/120 185/154/122 178/155/123
f 178/155/123 185/154/122 186/156/124 179/157/125
f 179/157/125 186/156/124 187/158/126 180/159/127
f 181/147/115 188/160/128 189/161/129 182/148/116
f 182/148/116 189/161/129 190/162/130 183/150/118
f 183/150/118 190/162/130 191/163/131 184/152/120
f 184/152/120 191/163/131 192/164/132 185/154/122
f 185/154/122 192/164/132 193/165/133 186/156/124
f 186/156/124 193/165/133 194/166/134 187/158/126
f 188/160/128 195/167/135 196/168/136 189/161/129
f 189/161/129 196/168/136 197/169/137 190/162/130
f 190/162/130 197/169/137 198/170/138 191/163/131
f 191/163/131 198/170/138 199/171/139 192/164/132
f 192/164/132 199/171/139 200/172/140 193/165/133
f 193/165/133 200/172/140 201/173/141 194/166/134
f 195/167/135 202/174/142 203/175/143 196/168/136
f 196/168/136 203/175/143 204/176/144 197/169/137
f 197/169/137 204/176/144 205/177/145 198/170/138
f 198/170/138 205/177/145 206/178/146 199/171/139
f 199/171/139 206/178/146 207/179/147 200/172/140
f 200/172/140 207/179/147 208/180/148 201/173/141
f 202/174/142 209/181/149 210/182/150 203/175/143
f 203/175/143 210/182/150 211/183/151 204/176/144
f 204/176/144 211/183/151 212/184/152 205/177/145
f 205/177/145 212/184/152 213/185/153 206/178/146
f 206/178/146 213/185/153 214/186/154 207/179/147
f 207/179/147 214/186/154 215/187/155 208/180/148
f 209/181/149 216/188/156 217/189/157 210/182/150
f 210/182/150 217/189/157 218/190/158 211/183/151
f 211/183/151 218/190/158 219/191/159 212/184/152
f 212/184/152 219/191/159 220/192/160 213/185/153
f 213/185/153 220/192/160 221/193/161 214/186/154
f 214/186/154 221/193/161 222/194/162 215/187/155
f 35/140/108 75/195/163 174/146/114 68/138/106
f 68/138/106 174/146/114 175/149/117 67/137/105
f 67/137/105 175/149/117 176/151/119 66/136/104
f 66/136/104 176/151/119 177/153/121 65/135/103
f 65/135/103 177/153/121 178/155/123 64/134/102
f 64/134/102 178/155/123 179/157/125 63/133/101
f 63/133/101 179/157/125 180/159/127 62/131/99
f 62/131/99 180/159/127 76/196/164 36/132/100
f 180/159/127 187/158/126 77/197/165 76/196/164
f 187/158/126 194/166/134 78/198/166 77/197/165
f 194/166/134 201/173/141 79/199/167 78/198/166
f 201/173/141 208/180/148 80/200/168 79/199/167
f 208/180/148 215/187/155 81/201/169 80/200/168
f 215/187/155 222/194/162 82/202/170 81/201/169
f 222/194/162 83/203/171 40/204/172 82/202/170
f 221/193/161 84/205/173 83/203/171 222/194/162
f 220/192/160 85/206/174 84/205/173 221/193/161
f 219/191/159 86/207/175 85/206/174 220/192/160
f 218/190/158 87/208/176 86/207/175 219/191/159
f 217/189/157 88/209/177 87/208/176 218/190/158
f 216/188/156 89/210/178 88/209/177 217/189/157
f 69/211/179 39/212/180 89/210/178 216/188/156
f 70/213/181 69/211/179 216/188/156 209/181/149
f 71/214/182 70/213/181 209/181/149 202/174/142
f 72/215/183 71/214/182 202/174/142 195/167/135
f 73/216/184 72/215/183 195/167/135 188/160/128
f 74/217/185 73/216/184 188/160/128 181/147/115
f 75/195/163 74/217/185 181/147/115 174/146/114
f 223/218/186 230/219/187 231/220/188 224/221/189
f 224/221/189 231/220/188 232/222/190 225/223/191
f 225/223/191 232/222/190 233/224/192 226/225/193
f 226/225/193 233/224/192 234/226/194 227/227/195
f 227/227/195 234/226/194 235/228/196 228/229/197
f 228/229/197 235/228/196 236/230/198 229/231/199
f 230/219/187 237/232/200 238/233/201 231/220/188
f 231/220/188 238/233/201 239/234/202 232/222/190
f 232/222/190 239/234/202 240/235/203 233/224/192
f 233/224/192 240/235/203 241/236/204 234/226/194
f 234/226/194 241/236/204 242/237/205 235/228/196
f 235/228/196 242/237/205 243/238/206 236/230/198
f 237/232/200 244/239/207 245/240/208 238/233/201
f 238/233/201 245/240/208 246/241/209 239/234/202
f 239/234/202 246/241/209 247/242/210 240/235/203
f 240/235/203 247/242/210 248/243/211 241/236/204
f 241/236/204 248/243/211 249/244/212 242/237/205
f 242/237/205 249/244/212 250/245/213 243/238/206
f 244/239/207 251/246/214 252/247/215 245/240/208
f 245/240/208 252/247/215 253/248/216 246/241/209
f 246/241/209 253/248/216 254/249/217 247/242/210
f 247/242/210 254/249/217 255/250/218 248/243/211
f 248/243/211 255/250/218 256/251/219 249/244/212
f 249/244/212 256/251/219 257/252/220 250/245/213
f 251/246/214 258/253/221 259/254/222 252/247/215
f 252/247/215 259/254/222 260/255/223 253/248/216
f 253/248/216 260/255/223 261/256/224 254/249/217
f 254/249/217 261/256/224 262/257/225 255/250/218
f 255/250/218 262/257/225 263/258/226 256/251/219
f 256/251/219 263/258/226 264/259/227 257/252/220
f 258/253/221 265/260/228 266/261/229 259/254/222
f 259/254/222 266/261/229 267/262/230 260/255/223
f 260/255/223 267/262/230 268/263/231 261/256/224
f 261/256/224 268/263/231 269/264/232 262/257/225
f 262/257/225 269/264/232 270/265/233 263/258/226
f 263/258/226 270/265/233 271/266/234 264/259/227
f 39/212/180 96/267/235 223/218/186 89/210/178
f 89/210/178 223/218/186 224/221/189 88/209/177
f 88/209/177 224/221/189 225/223/191 87/208/176
f 87/208/176 225/223/191 226/225/193 86/207/175
f 86/207/175 226/225/193 227/227/195 85/206/174
f 85/206/174 227/227/195 228/229/197 84/205/173
f 84/205/173 228/229/197 229/231/199 83/203/171
f 83/203/171 229/231/199 97/268/236 40/204/172
f 229/231/199 236/230/198 98/269/237 97/268/236
f 236/230/198 243/238/206 99/270/238 98/269/237
f 243/238/206 250/245/213 100/271/239 99/270/238
f 250/245/213 257/252/220 101/272/240 100/271/239
f 257/252/220 264/259/227 102/273/241 101/272/240
f 264/259/227 271/266/234 103/274/242 102/273/241
f 271/266/234 104/275/243 38/276/244 103/274/242
f 270/265/233 105/277/245 104/275/243 271/266/234
f 269/264/232 106/278/246 105/277/245 270/265/233
f 268/263/231 107/279/247 106/278/246 269/264/232
f 267/262/230 108/280/248 107/279/247 268/263/231
f 266/261/229 109/281/249 108/280/248 267/262/230
f 265/260/228 110/282/250 109/281/249 266/261/229
f 90/283/251 37/284/252 110/282/250 265/260/228
f 91/285/253 90/283/251 265/260/228 258/253/221
f 92/286/254 91/285/253 258/253/221 251/246/214
f 93/287/255 92/286/254 251/246/214 244/239/207
f 94/288/256 93/287/255 244/239/207 237/232/200
f 95/289/257 94/288/256 237/232/200 230/219/187
f 96/267/235 95/289/257 230/219/187 223/218/186
f 272/290/258 279/291/259 280/292/260 273/293/261
f 273/293/261 280/292/260 281/294/262 274/295/263
f 274/295/263 281/294/262 282/296/264 275/297/265
f 275/297/265 282/296/264 283/298/266 276/299/267
f 276/299/267 283/298/266 284/300/268 277/301/269
f 277/301/269 284/300/268 285/302/270 278/303/271
f 279/291/259 286/304/272 287/305/273 280/292/260
f 280/292/260 287/305/273 288/306/274 281/294/262
f 281/294/262 288/306/274 289/307/275 282/296/264
f 282/296/264 289/307/275 290/308/276 283/298/266
f 283/298/266 290/308/276 291/309/277 284/300/268
f 284/300/268 291/309/277 292/310/278 285/302/270
f 286/304/272 293/311/279 294/312/280 287/305/273
f 287/305/273 294/312/280 295/313/281 288/306/274
f 288/306/274 295/313/281 296/314/282 289/307/275
f 289/307/275 296/314/282 297/315/283 290/308/276
f 290/308/276 297/315/283 298/316/284 291/309/277
f 291/309/277 298/316/284 299/317/285 292/310/278
f 293/311/279 300/318/286 301/319/287 294/312/280
f 294/312/280 301/319/287 302/320/288 295/313/281
f 295/313/281 302/320/288 303/321/289 296/314/282
f 296/314/282 303/321/289 304/322/290 297/315/283
f 297/315/283 304/322/290 305/323/291 298/316/284
f 298/316/284 305/323/291 306/324/292 299/317/285
f 300/318/286 307/325/293 308/326/294 301/319/287
f 301/319/287 308/326/294 309/327/295 302/320/288
f 302/320/288 309/327/295 310/328/296 303/321/289
f 303/321/289 310/328/296 311/329/297 304/322/290
f 304/322/290 311/329/297 312/330/298 305/323/291
f 305/323/291 312/330/298 313/331/299 306/324/292
f 307/325/293 314/332/300 315/333/301 308/326/294
f 308/326/294 315/333/301 316/334/302 309/327/295
f 309/327/295 316/334/302 317/335/303 310/328/296
f 310/328/296 317/335/303 318/336/304 311/329/297
f 311/329/297 318/336/304 319/337/305 312/330/298
f 312/330/298 319/337/305 320/338/306 313/331/299
f 37/284/252 117/339/307 272/290/258 110/282/250
f 110/282/250 272/290/258 273/293/261 109/281/249
f 109/281/249 273/293/261 274/295/263 108/280/248
f 108/280/248 274/295/263 275/297/265 107/279/247
f 107/279/247 275/297/265 276/299/267 106/278/246
f 106/278/246 276/299/267 277/301/269 105/277/245
f 105/277/245 277/301/269 278/303/271 104/275/243
f 104/275/243 278/303/271 118/340/308 38/276/244
f 278/303/271 285/302/270 119/341/309 118/340/308
f 285/302/270 292/310/278 120/342/310 119/341/309
f 292/310/278 299/317/285 121/343/311 120/342/310
f 299/317/285 306/324/292 122/344/312 121/343/311
f 306/324/292 313/331/299 123/345/313 122/344/312
f 313/331/299 320/338/306 124/346/314 123/345/313
f 320/338/306 54/347/90 34/348/92 124/346/314
f 319/337/305 53/349/89 54/347/90 320/338/306
f 318/336/304 52/350/88 53/349/89 319/337/305
f 317/335/303 51/351/87 52/350/88 318/336/304
f 316/334/302 50/352/86 51/351/87 317/335/303
f 315/333/301 49/353/85 50/352/86 316/334/302
f 314/332/300 48/354/84 49/353/85 315/333/301
f 111/355/315 33/356/82 48/354/84 314/332/300
f 112/357/316 111/355/315 314/332/300 307/325/293
f 113/358/317 112/357/316 307/325/293 300/318/286
f 114/359/318 113/358/317 300/318/286 293/311/279
f 115/360/319 114/359/318 293/311/279 286/304/272
f 116/361/320 115/360/319 286/304/272 279/291/259
f 117/339/307 116/361/320 279/291/259 272/290/258
f 321/362/321 328/363/322 329/364/323 322/365/324
f 322/365/324 329/364/323 330/366/325 323/367/326
f 323/367/326 330/366/325 331/368/327 324/369/328
f 324/369/328 331/368/327 332/370/329 325/371/330
f 325/371/330 332/370/329 333/372/331 326/373/332
f 326/373/332 333/372/331 334/374/333 327/375/334
f 328/363/322 335/376/335 336/377/336 329/364/323
f 329/364/323 336/377/336 337/378/337 330/366/325
f 330/366/325 337/378/337 338/379/338 331/368/327
f 331/368/327 338/379/338 339/380/339 332/370/329
f 332/370/329 339/380/339 340/381/340 333/372/331
f 333/372/331 340/381/340 341/382/341 334/374/333
f 335/376/335 342/383/342 343/384/343 336/377/336
f 336/377/336 343/384/343 344/385/344 337/378/337
f 337/378/337 344/385/344 345/386/345 338/379/338
f 338/379/338 345/386/345 346/387/346 339/380/339
f 339/380/339 346/387/346 347/388/347 340/381/340
f 340/381/340 347/388/347 348/389/348 341/382/341
f 342/383/342 349/390/349 350/391/350 343/384/343
f 343/384/343 350/391/350 351/392/351 344/385/344
f 344/385/344 351/392/351 352/393/352 345/386/345
f 345/386/345 352/393/352 353/394/353 346/387/346
f 346/387/346 353/394/353 354/395/354 347/388/347
f 347/388/347 354/395/354 355/396/355 348/389/348
f 349/390/349 356/397/356 357/398/357 350/391/350
f 350/391/350 357/398/357 358/399/358 351/392/351
f 351/392/351 358/399/358 359/400/359 352/393/352
f 352/393/352 359/400/359 360/401/360 353/394/353
f 353/394/353 360/401/360 361/402/361 354/395/354
f 354/395/354 361/402/361 362/403/362 355/396/355
f 356/397/356 363/404/363 364/405/364 357/398/357
f 357/398/357 364/405/364 365/406/365 358/399/358
f 358/399/358 365/406/365 366/407/366 359/400/359
f 359/400/359 366/407/366 367/408/367 360/401/360
f 360/401/360 367/408/367 368/409/368 361/402/361
f 361/402/361 368/409/368 369/410/369 362/403/362
f 35/411/108 41/412/107 321/362/321 75/413/163
f 75/413/163 321/362/321 322/365/324 74/414/185
f 74/414/185 322/365/324 323/367/326 73/415/184
f 73/415/184 323/367/326 324/369/328 72/416/183
f 72/416/183 324/369/328 325/371/330 71/417/182
f 71/417/182 325/371/330 326/373/332 70/418/181
f 70/418/181 326/373/332 327/375/334 69/419/179
f 69/419/179 327/375/334 96/267/235 39/212/180
f 327/375/334 334/374/333 95/289/257 96/267/235
f 334/374/333 341/382/341 94/288/256 95/289/257
f 341/382/341 348/389/348 93/287/255 94/288/256
f 348/389/348 355/396/355 92/286/254 93/287/255
f 355/396/355 362/403/362 91/285/253 92/286/254
f 362/403/362 369/410/369 90/283/251 91/285/253
f 369/410/369 117/420/307 37/284/252 90/283/251
f 368/409/368 116/421/320 117/420/307 369/410/369
f 367/408/367 115/422/319 116/421/320 368/409/368
f 366/407/366 114/423/318 115/422/319 367/408/367
f 365/406/365 113/424/317 114/423/318 366/407/366
f 364/405/364 112/425/316 113/424/317 365/406/365
f 363/404/363 111/426/315 112/425/316 364/405/364
f 47/427/83 33/428/82 111/426/315 363/404/363
f 46/429/113 47/427/83 363/404/363 356/397/356
f 45/430/112 46/429/113 356/397/356 349/390/349
f 44/431/111 45/430/112 349/390/349 342/383/342
f 43/432/110 44/431/111 342/383/342 335/376/335
f 42/433/109 43/432/110 335/376/335 328/363/322
f 41/412/107 42/433/109 328/363/322 321/362/321
f 370/434/370 377/435/371 378/436/372 371/437/373
f 371/437/373 378/436/372 379/438/374 372/439/375
f 372/439/375 379/438/374 380/440/376 373/441/377
f 373/441/377 380/440/376 381/442/378 374/443/379
f 374/443/379 381/442/378 382/444/380 375/445/381
f 375/445/381 382/444/380 383/446/382 376/447/383
f 377/435/371 384/448/384 385/449/385 378/436/372
f 378/436/372 385/449/385 386/450/386 379/438/374
f 379/438/374 386/450/386 387/451/387 380/440/376
f 380/440/376 387/451/387 388/452/388 381/442/378
f 381/442/378 388/452/388 389/453/389 382/444/380
f 382/444/380 389/453/389 390/454/390 383/446/382
f 384/448/384 391/455/391 392/456/392 385/449/385
f 385/449/385 392/456/392 393/457/393 386/450/386
f 386/450/386 393/457/393 394/458/394 387/451/387
f 387/451/387 394/458/394 395/459/395 388/452/388
f 388/452/388 395/459/395 396/460/396 389/453/389
f 389/453/389 396/460/396 397/461/397 390/454/390
f 391/455/391 398/462/398 399/463/399 392/456/392
f 392/456/392 399/463/399 400/464/400 393/457/393
f 393/457/393 400/464/400 401/465/401 394/458/394
f 394/458/394 401/465/401 402/466/402 395/459/395
f 395/459/395 402/466/402 403/467/403 396/460/396
f 396/460/396 403/467/403 404/468/404 397/461/397
f 398/462/398 405/469/405 406/470/406 399/463/399
f 399/463/399 406/470/406 407/471/407 400/464/400
f 400/464/400 407/471/407 408/472/408 401/465/401
f 401/465/401 408/472/408 409/473/409 402/466/402
f 402/466/402 409/473/409 410/474/410 403/467/403
f 403/467/403 410/474/410 411/475/411 404/468/404
f 405/469/405 412/476/412 413/477/413 406/470/406
f 406/470/406 413/477/413 414/478/414 407/471/407
f 407/471/407 414/478/414 415/479/415 408/472/408
f 408/472/408 415/479/415 416/480/416 409/473/409
f 409/473/409 416/480/416 417/481/417 410/474/410
f 410/474/410 417/481/417 418/482/418 411/475/411
f 40/204/172 97/268/236 370/434/370 82/483/170
f 82/483/170 370/434/370 371/437/373 81/484/169
f 81/484/169 371/437/373 372/439/375 80/485/168
f 80/485/168 372/439/375 373/441/377 79/486/167
f 79/486/167 373/441/377 374/443/379 78/487/166
f 78/487/166 374/443/379 375/445/381 77/488/165
f 77/488/165 375/445/381 376/447/383 76/489/164
f 76/489/164 376/447/383 61/490/98 36/491/100
f 376/447/383 383/446/382 60/492/97 61/490/98
f 383/446/382 390/454/390 59/493/96 60/492/97
f 390/454/390 397/461/397 58/494/95 59/493/96
f 397/461/397 404/468/404 57/495/94 58/494/95
f 404/468/404 411/475/411 56/496/93 57/495/94
f 411/475/411 418/482/418 55/497/91 56/496/93
f 418/482/418 124/498/314 34/499/92 55/497/91
f 417/481/417 123/500/313 124/498/314 418/482/418
f 416/480/416 122/501/312 123/500/313 417/481/417
f 415/479/415 121/502/311 122/501/312 416/480/416
f 414/478/414 120/503/310 121/502/311 415/479/415
f 413/477/413 119/504/309 120/503/310 414/478/414
f 412/476/412 118/505/308 119/504/309 413/477/413
f 103/274/242 38/276/244 118/505/308 412/476/412
f 102/273/241 103/274/242 412/476/412 405/469/405
f 101/272/240 102/273/241 405/469/405 398/462/398
f 100/271/239 101/272/240 398/462/398 391/455/391
f 99/270/238 100/271/239 391/455/391 384/448/384
f 98/269/237 99/270/238 384/448/384 377/435/371
f 97/268/236 98/269/237 377/435/371 370/434/370
o Body_Cone.001
v 0.000000 -2.950000 -0.400000
v 0.000000 1.550000 -0.600000
v 0.200000 -2.950000 -0.346410
v 0.300000 1.550000 -0.519615
v 0.346410 -2.950000 -0.200000
v 0.519615 1.550000 -0.300000
v 0.400000 -2.950000 0.000000
v 0.600000 1.550000 0.000000
v 0.346410 -2.950000 0.200000
v 0.519615 1.550000 0.300000
v 0.200000 -2.950000 0.346410
v 0.300000 1.550000 0.519615
v 0.000000 -2.950000 0.400000
v 0.000000 1.550000 0.600000
v -0.200000 -2.950000 0.346410
v -0.300000 1.550000 0.519615
v -0.346410 -2.950000 0.200000
v -0.519615 1.550000 0.300000
v -0.400000 -2.950000 0.000000
v -0.600000 1.550000 0.000000
v -0.346410 -2.950000 -0.200000
v -0.519615 1.550000 -0.300000
v -0.200000 -2.950000 -0.346410
v -0.300000 1.550000 -0.519615
vt 1.000000 0.500000
vt 1.000000 1.000000
vt 0.916667 1.000000
vt 0.916667 0.500000
vt 0.833333 1.000000
vt 0.833333 0.500000
vt 0.750000 1.000000
vt 0.750000 0.500000
vt 0.666667 1.000000
vt 0.666667 0.500000
vt 0.583333 1.000000
vt 0.583333 0.500000
vt 0.500000 1.000000
vt 0.500000 0.500000
vt 0.416667 1.000000
vt 0.416667 0.500000
vt 0.333333 1.000000
vt 0.333333 0.500000
vt 0.250000 1.000000
vt 0.250000 0.500000
vt 0.166667 1.000000
vt 0.166667 0.500000
vt 0.370000 0.457846
vt 0.250000 0.490000
vt 0.130000 0.457846
vt 0.042154 0.370000
vt 0.010000 0.250000
vt 0.042154 0.130000
vt 0.130000 0.042154
vt 0.250000 0.010000
vt 0.370000 0.042154
vt 0.457846 0.130000
vt 0.490000 0.250000
vt 0.457846 0.370000
vt 0.083333 1.000000
vt 0.083333 0.500000
vt 0.000000 1.000000
vt 0.000000 0.500000
vt 0.750000 0.490000
vt 0.870000 0.457846
vt 0.957846 0.370000
vt 0.990000 0.250000
vt 0.957846 0.130000
vt 0.870000 0.042154
vt 0.750000 0.010000
vt 0.630000 0.042154
vt 0.542154 0.130000
vt 0.510000 0.250000
vt 0.542154 0.370000
vt 0.630000 0.457846
vn 0.0000 -0.6696 -0.7426
vn 0.0000 0.6366 -0.7712
vn 0.3856 0.6366 -0.6679
vn 0.3713 -0.6696 -0.6431
vn 0.6679 0.6366 -0.3856
vn 0.6431 -0.6696 -0.3713
vn 0.7712 0.6366 0.0000
vn 0.7426 -0.6696 0.0000
vn 0.6679 0.6366 0.3856
vn 0.6431 -0.6696 0.3713
vn 0.3856 0.6366 0.6679
vn 0.3713 -0.6696 0.6431
vn 0.0000 0.6366 0.7712
vn 0.0000 -0.6696 0.7426
vn -0.3856 0.6366 0.6679
vn -0.3713 -0.6696 0.6431
vn -0.6679 0.6366 0.3856
vn -0.6431 -0.6696 0.3713
vn -0.7712 0.6366 0.0000
vn -0.7426 -0.6696 0.0000
vn -0.6679 0.6366 -0.3856
vn -0.6431 -0.6696 -0.3713
vn -0.3856 0.6366 -0.6679
vn -0.3713 -0.6696 -0.6431
usemtl Material
s 1
f 419/506/419 420/507/420 422/508/421 421/509/422
f 421/509/422 422/508/421 424/510/423 423/511/424
f 423/511/424 424/510/423 426/512/425 425/513/426
f 425/513/426 426/512/425 428/514/427 427/515/428
f 427/515/428 428/514/427 430/516/429 429/517/430
f 429/517/430 430/516/429 432/518/431 431/519/432
f 431/519/432 432/518/431 434/520/433 433/521/434
f 433/521/434 434/520/433 436/522/435 435/523/436
f 435/523/436 436/522/435 438/524/437 437/525/438
f 437/525/438 438/524/437 440/526/439 439/527/440
f 422/528/421 420/529/420 442/530/441 440/531/439 438/532/437 436/533/435 434/534/433 432/535/431 430/536/429 428/537/427 426/538/425 424/539/423
f 439/527/440 440/526/439 442/540/441 441/541/442
f 441/541/442 442/540/441 420/542/420 419/543/419
f 419/544/419 421/545/422 423/546/424 425/547/426 427/548/428 429/549/430 431/550/432 433/551/434 435/552/436 437/553/438 439/554/440 441/555/442
