# Blender v2.92.0 OBJ File: 'teleporter.blend'
# www.blender.org
mtllib teleporter.mtl
o TeleporterBase_Cylinder
v 0.000000 0.000000 -2.000000
v -0.000000 0.900000 -1.359345
v 1.000000 0.000000 -1.732051
v 0.679672 0.900000 -1.177227
v 1.732051 0.000000 -1.000000
v 1.177227 0.900000 -0.679672
v 2.000000 0.000000 0.000000
v 1.359345 0.900000 0.000000
v 1.732051 0.000000 1.000000
v 1.177227 0.900000 0.679673
v 1.000000 0.000000 1.732051
v 0.679673 0.900000 1.177227
v 0.000000 0.000000 2.000000
v 0.000000 0.900000 1.359345
v -1.000000 0.000000 1.732051
v -0.679672 0.900000 1.177227
v -1.732050 0.000000 1.000001
v -1.177227 0.900000 0.679673
v -2.000000 0.000000 0.000001
v -1.359345 0.900000 0.000001
v -1.732051 0.000000 -0.999999
v -1.177228 0.900000 -0.679672
v -1.000001 0.000000 -1.732050
v -0.679673 0.900000 -1.177227
v -0.000000 0.500000 -1.397459
v 0.698730 0.500000 -1.210235
v 1.210235 0.500000 -0.698730
v 1.397459 0.500000 0.000000
v 1.210235 0.500000 0.698730
v 0.698730 0.500000 1.210235
v 0.000000 0.500000 1.397459
v -0.698729 0.500000 1.210235
v -1.210235 0.500000 0.698730
v -1.397459 0.500000 0.000001
v -1.210236 0.500000 -0.698729
v -0.698730 0.500000 -1.210235
v 0.582895 1.000000 -1.009605
v -0.000000 1.000000 -1.165791
v 1.009605 1.000000 -0.582895
v 1.165791 1.000000 0.000000
v 1.009605 1.000000 0.582896
v 0.582896 1.000000 1.009605
v 0.000000 1.000000 1.165791
v -0.582895 1.000000 1.009605
v -1.009604 1.000000 0.582896
v -1.165791 1.000000 0.000001
v -1.009605 1.000000 -0.582895
v -0.582896 1.000000 -1.009604
vt 1.000000 0.750000
vt 1.000000 1.000000
vt 0.916667 1.000000
vt 0.916667 0.750000
vt 0.833333 1.000000
vt 0.833333 0.750000
vt 0.750000 1.000000
vt 0.750000 0.750000
vt 0.666667 1.000000
vt 0.666667 0.750000
vt 0.583333 1.000000
vt 0.583333 0.750000
vt 0.500000 1.000000
vt 0.500000 0.750000
vt 0.416667 1.000000
vt 0.416667 0.750000
vt 0.333333 1.000000
vt 0.333333 0.750000
vt 0.250000 1.000000
vt 0.250000 0.750000
vt 0.166667 1.000000
vt 0.166667 0.750000
vt 0.416667 1.000000
vt 0.333333 1.000000
vt 0.083333 1.000000
vt 0.083333 0.750000
vt 0.000000 1.000000
vt 0.000000 0.750000
vt 0.750000 0.490000
vt 0.870000 0.457846
vt 0.957846 0.370000
vt 0.990000 0.250000
vt 0.957846 0.130000
vt 0.870000 0.042154
vt 0.750000 0.010000
vt 0.630000 0.042154
vt 0.542154 0.130000
vt 0.510000 0.250000
vt 0.542154 0.370000
vt 0.630000 0.457846
vt 0.083333 0.500000
vt 0.000000 0.500000
vt 0.166667 0.500000
vt 0.250000 0.500000
vt 0.333333 0.500000
vt 0.416667 0.500000
vt 0.500000 0.500000
vt 0.583333 0.500000
vt 0.666667 0.500000
vt 0.750000 0.500000
vt 0.833333 0.500000
vt 0.916667 0.500000
vt 1.000000 0.500000
vt 0.370000 0.457846
vt 0.250000 0.490000
vt 0.130000 0.457846
vt 0.042154 0.370000
vt 0.010000 0.250000
vt 0.042154 0.130000
vt 0.130000 0.042154
vt 0.250000 0.010000
vt 0.370000 0.042154
vt 0.457846 0.130000
vt 0.490000 0.250000
vt 0.457846 0.370000
vt 0.500000 1.000000
vt 0.583333 1.000000
vt 0.666667 1.000000
vt 0.750000 1.000000
vt 0.083333 1.000000
vt 0.000000 1.000000
vt 1.000000 1.000000
vt 0.916667 1.000000
vt 0.833333 1.000000
vt 0.166667 1.000000
vt 0.250000 1.000000
vn 0.2577 0.0917 -0.9619
vn 0.7041 0.0917 -0.7041
vn 0.9619 0.0917 -0.2577
vn 0.9619 0.0917 0.2577
vn 0.7041 0.0917 0.7041
vn 0.2577 0.0917 0.9619
vn -0.2577 0.0917 0.9619
vn -0.7041 0.0917 0.7041
vn -0.9619 0.0917 0.2577
vn -0.9619 0.0917 -0.2577
vn -0.3335 0.8818 0.3335
vn -0.7041 0.0917 -0.7041
vn -0.2577 0.0917 -0.9619
vn 0.0000 -1.0000 0.0000
vn -0.1687 0.7585 -0.6294
vn -0.4608 0.7585 -0.4608
vn -0.6294 0.7585 -0.1687
vn -0.6294 0.7585 0.1687
vn -0.4608 0.7585 0.4608
vn -0.1687 0.7585 0.6294
vn 0.1687 0.7585 0.6294
vn 0.4608 0.7585 0.4608
vn 0.6294 0.7585 0.1687
vn 0.6294 0.7585 -0.1687
vn 0.4608 0.7585 -0.4608
vn 0.1687 0.7585 -0.6294
vn 0.0000 1.0000 0.0000
vn -0.1221 0.8818 0.4556
vn 0.1221 0.8818 0.4556
vn 0.3335 0.8818 0.3335
vn 0.4556 0.8818 0.1221
vn -0.1221 0.8818 -0.4556
vn 0.1221 0.8818 -0.4556
vn 0.4556 0.8818 -0.1221
vn -0.3335 0.8818 -0.3335
vn 0.3335 0.8818 -0.3335
vn -0.4556 0.8818 -0.1221
vn -0.4556 0.8818 0.1221
usemtl None
s off
f 25/1/1 2/2/1 4/3/1 26/4/1
f 26/4/2 4/3/2 6/5/2 27/6/2
f 27/6/3 6/5/3 8/7/3 28/8/3
f 28/8/4 8/7/4 10/9/4 29/10/4
f 29/10/5 10/9/5 12/11/5 30/12/5
f 30/12/6 12/11/6 14/13/6 31/14/6
f 31/14/7 14/13/7 16/15/7 32/16/7
f 32/16/8 16/15/8 18/17/8 33/18/8
f 33/18/9 18/17/9 20/19/9 34/20/9
f 34/20/10 20/19/10 22/21/10 35/22/10
f 18/17/11 16/15/11 44/23/11 45/24/11
f 35/22/12 22/21/12 24/25/12 36/26/12
f 36/26/13 24/25/13 2/27/13 25/28/13
f 1/29/14 3/30/14 5/31/14 7/32/14 9/33/14 11/34/14 13/35/14 15/36/14 17/37/14 19/38/14 21/39/14 23/40/14
f 23/41/15 36/26/15 25/28/15 1/42/15
f 21/43/16 35/22/16 36/26/16 23/41/16
f 19/44/17 34/20/17 35/22/17 21/43/17
f 17/45/18 33/18/18 34/20/18 19/44/18
f 15/46/19 32/16/19 33/18/19 17/45/19
f 13/47/20 31/14/20 32/16/20 15/46/20
f 11/48/21 30/12/21 31/14/21 13/47/21
f 9/49/22 29/10/22 30/12/22 11/48/22
f 7/50/23 28/8/23 29/10/23 9/49/23
f 5/51/24 27/6/24 28/8/24 7/50/24
f 3/52/25 26/4/25 27/6/25 5/51/25
f 1/53/26 25/1/26 26/4/26 3/52/26
f 37/54/27 38/55/27 48/56/27 47/57/27 46/58/27 45/59/27 44/60/27 43/61/27 42/62/27 41/63/27 40/64/27 39/65/27
f 16/15/28 14/13/28 43/66/28 44/23/28
f 14/13/29 12/11/29 42/67/29 43/66/29
f 12/11/30 10/9/30 41/68/30 42/67/30
f 10/9/31 8/7/31 40/69/31 41/68/31
f 2/27/32 24/25/32 48/70/32 38/71/32
f 4/3/33 2/2/33 38/72/33 37/73/33
f 8/7/34 6/5/34 39/74/34 40/69/34
f 24/25/35 22/21/35 47/75/35 48/70/35
f 6/5/36 4/3/36 37/73/36 39/74/36
f 22/21/37 20/19/37 46/76/37 47/75/37
f 20/19/38 18/17/38 45/24/38 46/76/38
o TeleporterRamp_Cube.001
v 0.875076 0.000000 0.750000
v 0.875076 0.800000 0.750000
v 0.875076 0.000000 -0.750000
v 0.875076 0.800000 -0.750000
v 2.445122 0.000000 0.750000
v 2.445122 0.800000 0.750000
v 2.445122 0.000000 -0.750000
v 2.445122 0.800000 -0.750000
v 4.341641 0.000000 -0.750000
v 4.341641 0.000000 0.750000
vt 0.375000 0.000000
vt 0.625000 0.000000
vt 0.625000 0.250000
vt 0.375000 0.250000
vt 0.625000 0.500000
vt 0.375000 0.500000
vt 0.375000 0.750000
vt 0.375000 0.500000
vt 0.375000 0.750000
vt 0.625000 0.750000
vt 0.625000 1.000000
vt 0.375000 1.000000
vt 0.125000 0.500000
vt 0.125000 0.750000
vt 0.875000 0.500000
vt 0.875000 0.750000
vt 0.625000 0.750000
vt 0.625000 0.500000
vn -1.0000 0.0000 0.0000
vn 0.0000 0.0000 -1.0000
vn 0.0000 -1.0000 0.0000
vn 0.0000 0.0000 1.0000
vn 0.0000 1.0000 0.0000
vn 0.3887 0.9214 0.0000
usemtl None
s off
f 49/77/39 50/78/39 52/79/39 51/80/39
f 51/80/40 52/79/40 56/81/40 55/82/40
f 53/83/41 55/82/41 57/84/41 58/85/41
f 53/83/42 54/86/42 50/87/42 49/88/42
f 51/89/41 55/82/41 53/83/41 49/90/41
f 56/81/43 52/91/43 50/92/43 54/86/43
f 56/81/44 54/86/44 58/93/44 57/94/44
f 55/82/40 56/81/40 57/84/40
f 54/86/42 53/83/42 58/93/42
o TeleporterFance_Cylinder.001
v 0.000000 1.450063 -1.300000
v 0.000000 1.549937 -1.300000
v 0.650000 1.450063 -1.125833
v 0.650000 1.549937 -1.125833
v 0.650000 1.450063 1.125833
v 0.650000 1.549937 1.125833
v 0.000000 1.450063 1.300000
v 0.000000 1.549937 1.300000
v -0.650000 1.450063 1.125833
v -0.650000 1.549937 1.125833
v -1.125833 1.450063 0.650000
v -1.125833 1.549937 0.650000
v -1.300000 1.450063 0.000001
v -1.300000 1.549937 0.000001
v -1.125833 1.450063 -0.649999
v -1.125833 1.549937 -0.649999
v -0.650001 1.450063 -1.125833
v -0.650001 1.549937 -1.125833
v 0.000000 1.454770 -1.177481
v 0.588740 1.454770 -1.019728
v 0.588740 1.545230 -1.019728
v 0.000000 1.545230 -1.177481
v 0.588740 1.454770 1.019728
v 0.588740 1.545230 1.019728
v 0.000000 1.454770 1.177481
v 0.000000 1.545230 1.177481
v -0.588740 1.454770 1.019728
v -0.588740 1.545230 1.019728
v -1.019728 1.454770 0.588741
v -1.019728 1.545230 0.588741
v -1.177481 1.454770 0.000001
v -1.177481 1.545230 0.000001
v -1.019728 1.454770 -0.588740
v -1.019728 1.545230 -0.588740
v -0.588741 1.454770 -1.019728
v -0.588741 1.545230 -1.019728
v -0.588741 2.045230 -1.019728
v -0.588741 1.954770 -1.019728
v -1.019728 2.045230 -0.588740
v -1.019728 1.954770 -0.588740
v -1.177481 2.045230 0.000001
v -1.177481 1.954770 0.000001
v -1.019728 2.045230 0.588741
v -1.019728 1.954770 0.588741
v -0.588740 2.045230 1.019728
v -0.588740 1.954770 1.019728
v 0.000000 2.045230 1.177481
v 0.000000 1.954770 1.177481
v 0.588740 2.045230 1.019728
v 0.588740 1.954770 1.019728
v 0.000000 2.045230 -1.177481
v 0.588740 2.045230 -1.019728
v 0.588740 1.954770 -1.019728
v 0.000000 1.954770 -1.177481
v -0.650001 2.049937 -1.125833
v -0.650001 1.950063 -1.125833
v -1.125833 2.049937 -0.649999
v -1.125833 1.950063 -0.649999
v -1.300000 2.049937 0.000001
v -1.300000 1.950063 0.000001
v -1.125833 2.049937 0.650000
v -1.125833 1.950063 0.650000
v -0.650000 2.049937 1.125833
v -0.650000 1.950063 1.125833
v 0.000000 2.049937 1.300000
v 0.000000 1.950063 1.300000
v 0.650000 2.049937 1.125833
v 0.650000 1.950063 1.125833
v 0.650000 2.049937 -1.125833
v 0.650000 1.950063 -1.125833
v 0.000000 2.049937 -1.300000
v 0.000000 1.950063 -1.300000
vt 1.000000 0.500000
vt 1.000000 1.000000
vt 0.916667 1.000000
vt 0.916667 0.500000
vt 0.583333 0.500000
vt 0.583333 1.000000
vt 0.500000 1.000000
vt 0.500000 0.500000
vt 0.416667 1.000000
vt 0.416667 0.500000
vt 0.333333 1.000000
vt 0.333333 0.500000
vt 0.250000 1.000000
vt 0.250000 0.500000
vt 0.166667 1.000000
vt 0.166667 0.500000
vt 0.250000 1.000000
vt 0.166667 1.000000
vt 0.083333 1.000000
vt 0.083333 0.500000
vt 0.000000 1.000000
vt 0.000000 0.500000
vt 0.333333 0.500000
vt 0.416667 0.500000
vt 0.916667 0.500000
vt 1.000000 0.500000
vt 0.416667 1.000000
vt 0.333333 1.000000
vt 1.000000 1.000000
vt 0.916667 1.000000
vt 0.500000 0.500000
vt 0.583333 0.500000
vt 0.083333 0.500000
vt 0.166667 0.500000
vt 0.583333 1.000000
vt 0.500000 1.000000
vt 0.083333 1.000000
vt 0.250000 0.500000
vt 0.000000 0.500000
vt 0.000000 1.000000
vt 0.583333 0.500000
vt 0.500000 0.500000
vt 0.500000 1.000000
vt 0.583333 1.000000
vt 0.166667 0.500000
vt 0.083333 0.500000
vt 0.083333 1.000000
vt 0.166667 1.000000
vt 1.000000 0.500000
vt 0.916667 0.500000
vt 0.916667 1.000000
vt 1.000000 1.000000
vt 0.416667 1.000000
vt 0.500000 1.000000
vt 0.416667 1.000000
vt 0.250000 1.000000
vt 0.333333 1.000000
vt 0.333333 1.000000
vt 0.250000 1.000000
vt 0.583333 1.000000
vt 0.583333 0.500000
vt 0.500000 0.500000
vt 0.916667 1.000000
vt 1.000000 1.000000
vt 0.416667 0.500000
vt 0.333333 0.500000
vt 0.083333 0.500000
vt 0.000000 0.500000
vt 0.000000 0.500000
vt 0.416667 0.500000
vt 0.000000 1.000000
vt 0.916667 0.500000
vt 1.000000 0.500000
vt 0.333333 0.500000
vt 0.250000 0.500000
vt 0.250000 0.500000
vt 0.083333 1.000000
vt 0.166667 1.000000
vt 0.166667 0.500000
vt 0.000000 1.000000
vn 0.2588 0.0000 -0.9659
vn 0.2588 0.0000 0.9659
vn -0.2588 0.0000 0.9659
vn -0.7071 0.0000 0.7071
vn -0.9659 0.0000 0.2588
vn -0.9659 0.0000 -0.2588
vn 0.0384 0.9992 0.0103
vn -0.7071 0.0000 -0.7071
vn -0.2588 0.0000 -0.9659
vn 0.0281 -0.9992 -0.0281
vn -0.0103 -0.9992 0.0384
vn 0.0281 0.9992 -0.0281
vn -0.0103 0.9992 0.0384
vn -0.0103 -0.9992 -0.0384
vn 0.0281 -0.9992 0.0281
vn -0.0103 0.9992 -0.0384
vn 0.0281 0.9992 0.0281
vn 0.0384 -0.9992 -0.0103
vn 0.0384 0.9992 -0.0103
vn 0.0103 -0.9992 -0.0384
vn 0.0103 -0.9992 0.0384
vn 0.0103 0.9992 -0.0384
vn 0.0103 0.9992 0.0384
vn 0.0384 -0.9992 0.0103
vn 0.8660 0.0000 0.5000
vn 0.7071 0.0000 0.7071
vn 0.9659 0.0000 0.2588
vn 0.9659 0.0000 -0.2588
vn 0.7071 0.0000 -0.7071
vn 0.8660 0.0000 -0.5000
usemtl None
s off
f 59/95/45 60/96/45 62/97/45 61/98/45
f 63/99/46 64/100/46 66/101/46 65/102/46
f 65/102/47 66/101/47 68/103/47 67/104/47
f 67/104/48 68/103/48 70/105/48 69/106/48
f 69/106/49 70/105/49 72/107/49 71/108/49
f 71/108/50 72/107/50 74/109/50 73/110/50
f 74/109/51 72/107/51 90/111/51 92/112/51
f 73/110/52 74/109/52 76/113/52 75/114/52
f 75/114/53 76/113/53 60/115/53 59/116/53
f 67/104/54 69/106/54 87/117/54 85/118/54
f 59/95/55 61/98/55 78/119/55 77/120/55
f 70/105/56 68/103/56 86/121/56 88/122/56
f 62/97/57 60/96/57 80/123/57 79/124/57
f 63/99/58 65/102/58 83/125/58 81/126/58
f 73/110/59 75/114/59 93/127/59 91/128/59
f 66/101/60 64/100/60 82/129/60 84/130/60
f 76/113/61 74/109/61 92/112/61 94/131/61
f 69/106/62 71/108/62 89/132/62 87/117/62
f 72/107/63 70/105/63 88/122/63 90/111/63
f 65/102/64 67/104/64 85/118/64 83/125/64
f 75/114/65 59/116/65 77/133/65 93/127/65
f 68/103/66 66/101/66 84/130/66 86/121/66
f 60/115/67 76/113/67 94/131/67 80/134/67
f 71/108/68 73/110/68 91/128/68 89/132/68
f 77/120/47 78/119/47 79/124/47 80/123/47
f 62/97/69 79/124/69 78/119/69 61/98/69
f 93/127/46 77/120/46 80/134/46 94/131/46
f 91/128/70 93/127/70 94/131/70 92/112/70
f 89/132/71 91/128/71 92/112/71 90/111/71
f 87/117/72 89/132/72 90/111/72 88/122/72
f 85/118/73 87/117/73 88/122/73 86/121/73
f 83/125/45 85/118/45 86/121/45 84/130/45
f 81/126/53 83/125/53 84/130/53 82/129/53
f 64/100/74 63/99/74 81/126/74 82/129/74
f 108/135/53 106/136/53 105/137/53 107/138/53
f 98/139/70 96/140/70 95/141/70 97/142/70
f 112/143/47 111/144/47 110/145/47 109/146/47
f 121/147/66 123/148/66 105/137/66 103/149/66
f 117/150/63 119/151/63 101/152/63 99/153/63
f 123/148/60 125/154/60 107/138/60 105/137/60
f 126/155/58 124/156/58 106/136/58 108/135/58
f 127/157/57 129/158/57 109/146/57 110/145/57
f 104/159/73 102/160/73 101/152/73 103/149/73
f 114/161/65 130/162/65 112/163/65 96/140/65
f 125/154/74 126/155/74 108/135/74 107/138/74
f 124/156/64 122/164/64 104/159/64 106/136/64
f 106/136/45 104/159/45 103/149/45 105/137/45
f 96/140/46 112/143/46 109/165/46 95/141/46
f 119/151/56 121/147/56 103/149/56 101/152/56
f 127/157/69 110/145/69 111/144/69 128/166/69
f 130/167/55 128/166/55 111/144/55 112/143/55
f 120/168/62 118/169/62 100/170/62 102/160/62
f 113/171/61 115/172/61 97/142/61 95/141/61
f 118/169/68 116/173/68 98/139/68 100/170/68
f 122/164/54 120/168/54 102/160/54 104/159/54
f 129/174/67 113/171/67 95/141/67 109/165/67
f 114/161/53 113/171/53 129/174/53 130/162/53
f 116/173/59 114/161/59 96/140/59 98/139/59
f 116/173/52 115/172/52 113/171/52 114/161/52
f 102/160/72 100/170/72 99/153/72 101/152/72
f 130/167/45 129/158/45 127/157/45 128/166/45
f 126/155/46 125/154/46 123/148/46 124/156/46
f 124/156/47 123/148/47 121/147/47 122/164/47
f 122/164/48 121/147/48 119/151/48 120/168/48
f 120/168/49 119/151/49 117/150/49 118/169/49
f 118/169/50 117/150/50 115/172/50 116/173/50
f 115/172/51 117/150/51 99/153/51 97/142/51
f 100/170/71 98/139/71 97/142/71 99/153/71
o TeleporterFanceLeg_Cube.002
v 0.299260 0.821720 1.245854
v 0.299260 2.771364 1.245854
v 0.247380 0.821720 1.052699
v 0.247380 2.771364 1.052699
v 0.675120 0.821720 1.144902
v 0.675120 2.771364 1.144902
v 0.623241 0.821720 0.951747
v 0.623241 2.771364 0.951747
v 0.304161 3.428282 1.264102
v 0.282586 3.372528 1.183776
v 0.658446 3.372528 1.082824
v 0.680021 3.428282 1.163150
v 0.706474 2.857281 1.261636
v 0.330613 2.857281 1.362588
v 0.713042 2.953715 1.286092
v 0.337182 2.953715 1.387044
vt 0.375000 0.000000
vt 0.625000 0.000000
vt 0.625000 0.250000
vt 0.375000 0.250000
vt 0.625000 0.500000
vt 0.375000 0.500000
vt 0.625000 0.750000
vt 0.375000 0.750000
vt 0.625000 1.000000
vt 0.375000 1.000000
vt 0.125000 0.500000
vt 0.125000 0.750000
vt 0.625000 0.000000
vt 0.625000 0.250000
vt 0.625000 0.500000
vt 0.875000 0.500000
vt 0.875000 0.750000
vt 0.625000 0.750000
vt 0.875000 0.750000
vt 0.625000 0.750000
vt 0.625000 1.000000
vt 0.625000 0.750000
vt 0.625000 1.000000
vt 0.625000 0.000000
vt 0.625000 0.000000
vn -0.9658 0.0000 0.2594
vn -0.2594 0.0000 -0.9658
vn 0.9658 0.0000 -0.2594
vn 0.2594 0.0000 0.9658
vn 0.0000 -1.0000 0.0000
vn -0.1444 0.8306 -0.5378
vn 0.2505 0.2591 0.9328
vn -0.2530 0.2202 -0.9421
vn 0.2509 -0.2540 0.9341
vn 0.1503 -0.8151 0.5595
usemtl None
s off
f 131/175/75 132/176/75 134/177/75 133/178/75
f 133/178/76 134/177/76 138/179/76 137/180/76
f 137/180/77 138/179/77 136/181/77 135/182/77
f 135/182/78 136/181/78 132/183/78 131/184/78
f 133/185/79 137/180/79 135/182/79 131/186/79
f 134/177/75 132/176/75 139/187/75 140/188/75
f 141/189/80 140/190/80 139/191/80 142/192/80
f 142/192/81 139/191/81 146/193/81 145/194/81
f 138/179/82 134/177/82 140/188/82 141/189/82
f 136/181/77 138/179/77 141/189/77 142/192/77
f 144/195/83 143/196/83 145/194/83 146/197/83
f 132/183/84 136/181/84 143/196/84 144/195/84
f 136/181/77 142/192/77 145/194/77 143/196/77
f 139/187/75 132/176/75 144/198/75 146/199/75
o Cube.001_Cube.003
v 0.677669 0.821202 -1.109717
v 0.671897 2.769250 -1.188372
v 0.625988 0.828844 -0.916661
v 0.620216 2.776892 -0.995316
v 0.301707 0.816033 -1.210157
v 0.295935 2.764081 -1.288812
v 0.250026 0.823674 -1.017101
v 0.244254 2.771723 -1.095756
v 0.674834 3.424909 -1.233113
v 0.653507 3.372377 -1.150578
v 0.277545 3.367208 -1.251018
v 0.298872 3.419740 -1.333553
v 0.326914 2.845309 -1.408953
v 0.702876 2.850478 -1.308513
v 0.333172 2.940697 -1.437287
v 0.709134 2.945866 -1.336847
vt 0.375000 0.000000
vt 0.625000 0.000000
vt 0.625000 0.250000
vt 0.375000 0.250000
vt 0.625000 0.500000
vt 0.375000 0.500000
vt 0.625000 0.750000
vt 0.375000 0.750000
vt 0.625000 1.000000
vt 0.375000 1.000000
vt 0.125000 0.500000
vt 0.125000 0.750000
vt 0.625000 0.000000
vt 0.625000 0.250000
vt 0.625000 0.500000
vt 0.875000 0.500000
vt 0.875000 0.750000
vt 0.625000 0.750000
vt 0.875000 0.750000
vt 0.625000 0.750000
vt 0.625000 1.000000
vt 0.625000 0.750000
vt 0.625000 1.000000
vt 0.625000 0.000000
vt 0.625000 0.000000
vn 0.9660 0.0133 0.2581
vn -0.2584 0.0382 0.9653
vn -0.9660 -0.0133 -0.2581
vn 0.2584 -0.0382 -0.9653
vn 0.0030 -0.9992 0.0403
vn -0.1463 0.8512 0.5040
vn 0.2488 0.2220 -0.9428
vn -0.2527 0.2573 0.9327
vn 0.2507 -0.2907 -0.9234
vn 0.1521 -0.8365 -0.5264
usemtl None
s off
f 147/200/85 148/201/85 150/202/85 149/203/85
f 149/203/86 150/202/86 154/204/86 153/205/86
f 153/205/87 154/204/87 152/206/87 151/207/87
f 151/207/88 152/206/88 148/208/88 147/209/88
f 149/210/89 153/205/89 151/207/89 147/211/89
f 150/202/85 148/201/85 155/212/85 156/213/85
f 157/214/90 156/215/90 155/216/90 158/217/90
f 158/217/91 155/216/91 162/218/91 161/219/91
f 154/204/92 150/202/92 156/213/92 157/214/92
f 152/206/87 154/204/87 157/214/87 158/217/87
f 160/220/93 159/221/93 161/219/93 162/222/93
f 148/208/94 152/206/94 159/221/94 160/220/94
f 152/206/87 158/217/87 161/219/87 159/221/87
f 155/212/85 148/201/85 160/223/85 162/224/85
