# Blender v2.92.0 OBJ File: 'palm-test2.blend'
# www.blender.org
mtllib palm.mtl
o Cube.002
v 0.474204 5.527668 1.059292
v 0.154738 5.530977 0.973781
v 0.562834 5.692041 0.908787
v 0.887023 5.445446 1.092615
v 0.236422 5.737541 0.714538
v 0.660507 5.541659 0.749505
v 0.434944 5.552019 0.507856
v -0.214818 5.624179 0.438046
v -0.017300 5.438279 0.230742
v -0.297504 5.417234 0.696667
v -0.432439 5.435648 0.298655
v -0.292787 5.298657 0.186163
v -0.460622 5.286050 0.465240
v -0.778936 4.969203 0.097744
v -0.538020 5.268042 0.253839
v -0.514868 5.269779 0.215340
v -0.556041 5.316417 0.218936
v -0.530791 5.263107 0.231714
v -0.753766 4.971095 0.055891
v -0.773661 5.031709 0.075201
v -0.765262 4.956979 0.076877
v 0.305514 6.072321 0.270266
v 0.037736 5.972342 0.346558
v 0.254414 6.207314 0.111536
v 0.645175 6.123092 0.113066
v -0.076824 6.121567 0.106010
v 0.308657 6.081029 -0.053204
v 0.042462 5.985438 -0.139947
v -0.480663 5.854794 0.094905
v -0.362234 5.717963 -0.151080
v -0.366962 5.704867 0.335425
v -0.634363 5.613557 0.086918
v -0.534815 5.518144 -0.060505
v -0.537647 5.510299 0.230899
v -0.816349 5.094620 0.093049
v -0.674784 5.437072 0.101890
v -0.674395 5.438154 0.061691
v -0.717931 5.466322 0.082142
v -0.677035 5.431083 0.081591
v -0.815924 5.095796 0.049347
v -0.842125 5.144204 0.072264
v -0.811038 5.084544 0.070960
v 0.168359 5.492169 -1.114854
v 0.035347 5.526650 -0.827351
v -0.001898 5.568945 -1.250942
v 0.295153 5.352664 -1.475366
v -0.246576 5.604910 -0.977637
v -0.081261 5.363674 -1.321419
v -0.340086 5.333392 -1.138029
v -0.537530 5.496611 -0.558671
v -0.631652 5.224739 -0.718101
v -0.256221 5.417996 -0.407423
v -0.641935 5.324377 -0.325368
v -0.676229 5.138859 -0.433441
v -0.451357 5.254614 -0.247353
v -0.737985 4.910799 0.087700
v -0.648635 5.181489 -0.191840
v -0.679658 5.165520 -0.217510
v -0.697973 5.215658 -0.190021
v -0.665684 5.168240 -0.199540
v -0.771708 4.893439 0.059792
v -0.776572 4.957200 0.065734
v -0.750538 4.890327 0.075873
v -1.069137 5.055674 -1.503090
v -0.952608 5.194943 -1.247158
v -1.283497 5.132020 -1.499452
v -1.239578 4.802445 -1.762596
v -1.252262 5.296156 -1.177204
v -1.382069 4.944569 -1.416167
v -1.423265 5.027843 -1.116423
v -1.143496 5.377300 -0.681925
v -1.314211 5.109062 -0.620006
v -0.843555 5.276165 -0.750740
v -1.041236 5.305737 -0.405244
v -1.137096 5.115592 -0.382821
v -0.855184 5.215683 -0.461127
v -0.797619 5.057709 0.063210
v -0.945879 5.211189 -0.267025
v -0.984768 5.197381 -0.256223
v -0.978632 5.255044 -0.244662
v -0.962522 5.201172 -0.255523
v -0.839896 5.042698 0.074954
v -0.840584 5.103945 0.059193
v -0.814015 5.038889 0.071684
v 0.869750 4.777408 -0.396691
v 0.629439 4.924365 -0.220434
v 0.846056 4.907818 -0.598702
v 1.094121 4.505263 -0.649051
v 0.526095 5.098652 -0.495583
v 0.735629 4.729505 -0.722527
v 0.428884 4.849706 -0.710497
v 0.034041 5.173976 -0.307467
v -0.063263 4.935416 -0.521930
v 0.136242 5.011817 -0.031867
v -0.241229 5.088499 -0.182140
v -0.285277 4.915306 -0.311480
v -0.165726 4.960591 -0.017945
v -0.706329 4.807546 0.077725
v -0.376173 4.977549 -0.085706
v -0.392622 4.971155 -0.126198
v -0.401031 5.028949 -0.107817
v -0.390476 4.970801 -0.102922
v -0.724327 4.801033 0.033704
v -0.704092 4.858457 0.042373
v -0.718255 4.792894 0.058735
v -2.555242 4.781881 -0.491121
v -2.204667 4.919139 -0.520985
v -2.652471 4.933535 -0.284811
v -2.947775 4.527183 -0.374744
v -2.270531 5.126887 -0.197745
v -2.629485 4.746237 -0.086299
v -2.316323 4.865532 0.087874
v -1.668996 5.206620 -0.080411
v -1.713397 4.945309 0.205467
v -1.601740 4.998916 -0.403392
v -1.323041 5.102633 -0.026123
v -1.365154 4.909350 0.139028
v -1.298275 4.941459 -0.225662
v -0.716310 4.767583 0.026803
v -1.133397 4.969162 -0.029291
v -1.142627 4.964732 0.021018
v -1.121480 5.030641 0.004503
v -1.130252 4.962703 -0.003087
v -0.726443 4.763134 0.081495
v -0.736358 4.828527 0.057139
v -0.717650 4.752017 0.053635
v -2.124278 4.511730 0.880945
v -1.977086 4.637151 0.632413
v -2.107744 4.648158 1.047986
v -2.217974 4.336069 1.217635
v -1.901979 4.886965 0.843269
v -1.928186 4.579741 1.168289
v -1.686086 4.756886 1.064582
v -1.516948 5.079013 0.530803
v -1.300125 4.949259 0.751398
v -1.591124 4.829526 0.319230
v -1.254873 5.066762 0.357730
v -1.125522 4.955670 0.499458
v -1.299823 4.883952 0.240599
v -0.765264 4.904532 0.043300
v -1.105013 4.989698 0.250853
v -1.080967 4.999592 0.286563
v -1.099087 5.050285 0.257398
v -1.086593 4.992804 0.264911
v -0.739124 4.915287 0.082121
v -0.782133 4.962687 0.068247
v -0.745453 4.898914 0.061218
v -1.406461 4.132014 -0.628686
v -1.281575 4.295017 -0.592567
v -1.548837 4.163676 -0.558477
v -1.542315 3.914910 -0.608732
v -1.457799 4.355985 -0.460164
v -1.532829 4.094875 -0.417232
v -1.470507 4.235200 -0.274536
v -1.246483 4.578972 -0.282786
v -1.255049 4.454560 -0.096734
v -1.067800 4.519969 -0.414765
v -1.075207 4.650792 -0.165748
v -1.072798 4.554126 -0.055402
v -0.961018 4.594566 -0.245894
v -0.710130 4.712352 0.041011
v -0.947995 4.659280 -0.108261
v -0.963357 4.653543 -0.081982
v -0.971641 4.688676 -0.096414
v -0.951168 4.657242 -0.092305
v -0.726811 4.706007 0.069579
v -0.749292 4.733141 0.043253
v -0.711733 4.704317 0.058030
v -1.239869 4.636961 1.507205
v -1.279115 4.757179 1.234710
v -1.109985 4.775467 1.607026
v -1.117336 4.461213 1.809847
v -1.070547 4.977379 1.320080
v -0.917963 4.681293 1.583933
v -0.795400 4.826840 1.350209
v -0.978179 5.116519 0.849318
v -0.702800 4.966189 0.878346
v -1.186517 4.896527 0.762848
v -0.904888 5.077310 0.566018
v -0.737654 4.956061 0.592639
v -1.027387 4.914336 0.523459
v -0.776316 4.874063 0.052071
v -0.874897 4.989748 0.403016
v -0.834928 4.995505 0.412559
v -0.860653 5.045388 0.400003
v -0.853010 4.990226 0.401273
v -0.732866 4.880319 0.062446
v -0.766709 4.929796 0.076279
v -0.751927 4.866179 0.052744
v -1.122520 5.541844 1.819657
v -1.241126 5.514339 1.479215
v -1.004462 5.775839 1.811932
v -0.875470 5.522290 2.209096
v -1.051431 5.825669 1.399359
v -0.756932 5.690831 1.796033
v -0.691276 5.738418 1.443685
v -1.044294 5.715978 0.817992
v -0.684074 5.628355 0.861018
v -1.233926 5.404276 0.896548
v -0.986126 5.527455 0.529243
v -0.758023 5.448747 0.580574
v -1.087369 5.314531 0.601856
v -0.849519 5.049587 0.076771
v -0.948840 5.350341 0.400647
v -0.903407 5.368856 0.397712
v -0.948118 5.408067 0.364483
v -0.924127 5.353771 0.393285
v -0.800128 5.069715 0.073579
v -0.850627 5.122104 0.069721
v -0.819343 5.046294 0.075738
v -0.022511 4.409093 1.364662
v -0.248936 4.536497 1.218393
v 0.121511 4.571996 1.370883
v 0.290396 4.208135 1.460015
v -0.069582 4.780363 1.169597
v 0.251532 4.502448 1.210246
v 0.160602 4.683702 0.986150
v -0.345315 4.932281 0.794387
v -0.114101 4.842516 0.610037
v -0.520604 4.688293 0.842279
v -0.482468 4.909366 0.539807
v -0.331865 4.827148 0.430079
v -0.575049 4.734344 0.569186
v -0.716769 4.744206 0.062685
v -0.560666 4.831214 0.392512
v -0.527290 4.844612 0.373323
v -0.560691 4.887581 0.388528
v -0.546771 4.835985 0.376713
v -0.680289 4.757993 0.041823
v -0.700488 4.795716 0.081046
v -0.698425 4.741775 0.045766
v -1.852900 5.563506 -0.906020
v -1.609563 5.616019 -0.783866
v -1.977450 5.669954 -0.789420
v -2.164062 5.425954 -1.003952
v -1.752613 5.749492 -0.574939
v -2.051119 5.517365 -0.681119
v -1.907689 5.546623 -0.445612
v -1.409692 5.715046 -0.279763
v -1.563979 5.511999 -0.149781
v -1.265851 5.581395 -0.488035
v -1.219921 5.588775 -0.138414
v -1.322909 5.443380 -0.074753
v -1.144339 5.484945 -0.277358
v -0.883252 5.253767 0.061952
v -1.110092 5.467213 -0.091971
v -1.134725 5.461478 -0.064022
v -1.109923 5.507098 -0.058223
v -1.118247 5.460154 -0.075189
v -0.910029 5.247535 0.092336
v -0.902635 5.302031 0.082403
v -0.895022 5.239720 0.076330
v 0.169304 1.462655 -0.196528
v 0.177915 -0.100546 -0.176308
v 0.165619 1.457801 0.209465
v 0.177740 -0.100689 0.176401
v -0.238814 1.419791 -0.199658
v -0.176356 -0.104632 -0.176357
v -0.242192 1.415355 0.206363
v -0.176357 -0.104632 0.176356
v -0.240576 -0.104632 -0.000000
v 0.241662 1.468277 0.007107
v -0.314846 1.410141 0.002858
v 0.242566 -0.098990 0.000099
v 0.000050 -0.104549 -0.240580
v -0.038852 1.435372 0.281753
v -0.000000 -0.104632 0.240576
v -0.034032 1.441702 -0.272100
v -0.218235 -0.104632 0.109117
v 0.155206 1.175814 0.091758
v -0.196551 1.144946 0.089568
v 0.219984 -0.099615 0.109194
v -0.195320 1.146511 -0.085356
v 0.220108 -0.099516 -0.109038
v -0.218235 -0.104632 -0.109117
v 0.156552 1.177518 -0.083155
v -0.109118 -0.104632 -0.218235
v -0.109203 1.151641 0.177528
v -0.109118 -0.104632 0.218235
v -0.106686 1.154839 -0.172314
v 0.109958 -0.102301 0.218247
v 0.069284 1.170385 -0.171211
v 0.110113 -0.102150 -0.218223
v 0.066646 1.167052 0.178621
v 0.073238 1.011203 -0.165515
v 0.070972 1.008396 0.171168
v -0.098338 0.995104 0.170251
v -0.096184 0.997792 -0.166442
v -0.181448 0.990650 -0.082687
v 0.157335 1.017392 -0.080838
v 0.156174 1.015958 0.087502
v -0.182499 0.989334 0.085662
v 0.152746 0.580606 -0.149185
v -0.151680 0.562486 0.150873
v 0.151382 0.579026 0.151858
v -0.150496 0.563924 -0.150184
v 0.207240 0.583041 0.001559
v -0.206302 0.560402 0.000206
v 0.001376 0.572292 -0.204547
v -0.000362 0.570235 0.206130
v -0.187454 0.560928 0.093391
v 0.187617 0.581418 0.094613
v 0.188476 0.582408 -0.091652
v -0.186734 0.561809 -0.092885
v -0.092533 0.567122 -0.185769
v -0.094040 0.565310 0.186776
v 0.093462 0.575539 0.187384
v 0.095108 0.577461 -0.185150
v -0.016745 1.064511 0.202791
v -0.013984 1.067965 -0.197487
v -0.216743 1.050042 0.001576
v 0.185896 1.083216 0.003896
v -0.162006 1.055504 -0.144870
v 0.131131 1.077303 0.150258
v 0.133236 1.079926 -0.143163
v -0.163944 1.053062 0.148564
v 0.092927 0.959236 -0.099395
v 0.091601 0.957608 0.104732
v -0.112511 0.943623 -0.100463
v -0.113753 0.942077 0.103671
v 0.134787 0.961749 0.002911
v -0.155684 0.939733 0.001406
v -0.011329 0.949410 0.146457
v -0.009509 0.951654 -0.142228
v 0.119039 0.960026 0.067373
v -0.140736 0.940367 0.066030
v -0.139956 0.941338 -0.063077
v 0.119882 0.961064 -0.061728
v -0.076174 0.944660 0.130892
v -0.074580 0.946635 -0.127318
v 0.055356 0.956519 -0.126642
v 0.053697 0.954479 0.131562
v 0.001430 2.115239 -0.082172
v -0.000754 2.112072 0.105198
v -0.186358 2.087575 -0.084236
v -0.188481 2.084524 0.103141
v 0.000000 1.895368 0.000000
v -0.226331 2.080396 0.009042
v -0.095043 2.097593 0.142959
v -0.091994 2.101990 -0.122027
v 0.024498 2.116342 0.071048
v -0.212973 2.081471 0.068443
v -0.211632 2.083391 -0.050064
v 0.025886 2.118353 -0.047454
v -0.154253 2.089141 0.128327
v -0.151549 2.093029 -0.108686
v -0.032778 2.110538 -0.107379
v -0.035528 2.106558 0.129629
v -0.184654 3.330246 -0.050235
v -0.187062 3.325973 0.107655
v -0.341341 3.293334 -0.052929
v -0.343718 3.289175 0.104967
v -0.153435 3.335757 0.029279
v -0.374998 3.283642 0.025473
v -0.265866 3.306683 0.139001
v -0.262479 3.312645 -0.084293
v -0.165882 3.331645 0.079002
v -0.364046 3.285074 0.075600
v -0.362544 3.287697 -0.024262
v -0.164357 3.334357 -0.020855
v -0.315235 3.295372 0.126368
v -0.312216 3.300660 -0.073354
v -0.213117 3.324016 -0.071650
v -0.216160 3.318637 0.128068
v -0.537697 4.485504 0.004813
v -0.538822 4.483035 0.104536
v -0.632131 4.454206 0.002906
v -0.633265 4.451766 0.102629
v -0.518710 4.490801 0.055069
v -0.652266 4.446558 0.052372
v -0.586264 4.466842 0.124236
v -0.584666 4.470312 -0.016794
v -0.526113 4.487662 0.086462
v -0.645572 4.448102 0.084050
v -0.644853 4.449643 0.020980
v -0.525402 4.489227 0.023392
v -0.616052 4.457158 0.116188
v -0.614618 4.460251 -0.009952
v -0.554892 4.480048 -0.008746
v -0.556320 4.476932 0.117394
v -1.077835 5.692723 0.082561
v -0.443913 3.893947 0.120959
v -0.466569 3.888488 0.103447
v -0.441792 3.897856 -0.041954
v -0.342124 3.920705 0.105910
v -0.402314 3.908258 -0.050790
v -0.363096 3.918266 -0.040396
v -0.060150 2.726575 0.073963
v -0.315531 3.929034 0.042023
v -0.083389 2.721540 0.105358
v -0.166675 2.709696 -0.104254
v -0.115349 2.715029 0.127771
v -0.221352 2.699082 -0.092129
v -0.325345 3.925600 0.082568
v -0.169993 2.704433 0.139887
v -0.224304 2.694424 0.126240
v -0.046548 2.730228 0.019558
v -0.365207 3.914319 0.122517
v -0.058649 2.728975 -0.035219
v -0.112367 2.719783 -0.090593
v -0.081025 2.725318 -0.067273
v -0.290216 2.684050 0.016130
v -0.276610 2.687625 -0.038287
v -0.253345 2.692605 -0.069700
v -0.255666 2.688944 0.102937
v -0.278075 2.685320 0.070898
v -0.404679 3.903867 0.131353
v -0.324291 3.927583 0.001111
v -0.340459 3.923834 -0.022884
v -0.491515 3.883437 0.038540
v -0.481692 3.886781 -0.002005
v -0.464891 3.891567 -0.025347
v -0.482755 3.884836 0.079452
vt 0.218074 0.853601
vt 0.185787 0.763967
vt 0.485313 0.747810
vt 0.475642 0.840434
vt 0.799500 0.770144
vt 0.500621 0.608762
vt 0.841691 0.610035
vt 0.728815 0.857635
vt 0.460358 0.986917
vt 0.178906 0.603348
vt 0.252106 0.506760
vt 0.510637 0.517519
vt 0.504464 0.313915
vt 0.485479 0.060387
vt 0.499503 0.056637
vt 0.770945 0.512149
vt 0.513674 0.060461
vt 0.498803 0.020318
vt 0.495930 0.022537
vt 0.441804 0.455417
vt 0.593030 0.456987
vt 0.499561 0.059606
vt 0.498932 0.026993
vt 0.501762 0.022552
vt 0.499090 0.035226
vt 0.218074 0.853601
vt 0.185787 0.763967
vt 0.485313 0.747810
vt 0.475642 0.840434
vt 0.799500 0.770144
vt 0.500621 0.608762
vt 0.841691 0.610035
vt 0.728815 0.857635
vt 0.460358 0.986917
vt 0.178906 0.603348
vt 0.252106 0.506760
vt 0.510637 0.517519
vt 0.504464 0.313915
vt 0.485479 0.060387
vt 0.499503 0.056637
vt 0.770945 0.512149
vt 0.513674 0.060461
vt 0.498803 0.020318
vt 0.495930 0.022537
vt 0.441804 0.455417
vt 0.593030 0.456987
vt 0.499561 0.059606
vt 0.498932 0.026993
vt 0.501762 0.022552
vt 0.499090 0.035226
vt 0.218074 0.853601
vt 0.185787 0.763967
vt 0.485313 0.747810
vt 0.475642 0.840434
vt 0.799500 0.770144
vt 0.500621 0.608762
vt 0.841691 0.610035
vt 0.728815 0.857635
vt 0.460358 0.986917
vt 0.178906 0.603348
vt 0.252106 0.506760
vt 0.510637 0.517519
vt 0.504464 0.313915
vt 0.485479 0.060387
vt 0.499503 0.056637
vt 0.770945 0.512149
vt 0.513674 0.060461
vt 0.498803 0.020318
vt 0.495930 0.022537
vt 0.441804 0.455417
vt 0.593030 0.456987
vt 0.499561 0.059606
vt 0.498932 0.026993
vt 0.501762 0.022552
vt 0.499090 0.035226
vt 0.218074 0.853601
vt 0.185787 0.763967
vt 0.485313 0.747810
vt 0.475642 0.840434
vt 0.799500 0.770144
vt 0.500621 0.608762
vt 0.841691 0.610035
vt 0.728815 0.857635
vt 0.460358 0.986917
vt 0.178906 0.603348
vt 0.252106 0.506760
vt 0.510637 0.517519
vt 0.504464 0.313915
vt 0.485479 0.060387
vt 0.499503 0.056637
vt 0.770945 0.512149
vt 0.513674 0.060461
vt 0.498803 0.020318
vt 0.495930 0.022537
vt 0.441804 0.455417
vt 0.593030 0.456987
vt 0.499561 0.059606
vt 0.498932 0.026993
vt 0.501762 0.022552
vt 0.499090 0.035226
vt 0.218074 0.853601
vt 0.185787 0.763967
vt 0.485313 0.747810
vt 0.475642 0.840434
vt 0.799500 0.770144
vt 0.500621 0.608762
vt 0.841691 0.610035
vt 0.728815 0.857635
vt 0.460358 0.986917
vt 0.178906 0.603348
vt 0.252106 0.506760
vt 0.510637 0.517519
vt 0.504464 0.313915
vt 0.485479 0.060387
vt 0.499503 0.056637
vt 0.770945 0.512149
vt 0.513674 0.060461
vt 0.498803 0.020318
vt 0.495930 0.022537
vt 0.441804 0.455417
vt 0.593030 0.456987
vt 0.499561 0.059606
vt 0.498932 0.026993
vt 0.501762 0.022552
vt 0.499090 0.035226
vt 0.218074 0.853601
vt 0.185787 0.763967
vt 0.485313 0.747810
vt 0.475642 0.840434
vt 0.799500 0.770144
vt 0.500621 0.608762
vt 0.841691 0.610035
vt 0.728815 0.857635
vt 0.460358 0.986917
vt 0.178906 0.603348
vt 0.252106 0.506760
vt 0.510637 0.517519
vt 0.504464 0.313915
vt 0.485479 0.060387
vt 0.499503 0.056637
vt 0.770945 0.512149
vt 0.513674 0.060461
vt 0.498803 0.020318
vt 0.495930 0.022537
vt 0.441804 0.455417
vt 0.593030 0.456987
vt 0.499561 0.059606
vt 0.498932 0.026993
vt 0.501762 0.022552
vt 0.499090 0.035226
vt 0.218074 0.853601
vt 0.185787 0.763967
vt 0.485313 0.747810
vt 0.475642 0.840434
vt 0.799500 0.770144
vt 0.500621 0.608762
vt 0.841691 0.610035
vt 0.728815 0.857635
vt 0.460358 0.986917
vt 0.178906 0.603348
vt 0.252106 0.506760
vt 0.510637 0.517519
vt 0.504464 0.313915
vt 0.485479 0.060387
vt 0.499503 0.056637
vt 0.770945 0.512149
vt 0.513674 0.060461
vt 0.498803 0.020318
vt 0.495930 0.022537
vt 0.441804 0.455417
vt 0.593030 0.456987
vt 0.499561 0.059606
vt 0.498932 0.026993
vt 0.501762 0.022552
vt 0.499090 0.035226
vt 0.218074 0.853601
vt 0.185787 0.763967
vt 0.485313 0.747810
vt 0.475642 0.840434
vt 0.799500 0.770144
vt 0.500621 0.608762
vt 0.841691 0.610035
vt 0.728815 0.857635
vt 0.460358 0.986917
vt 0.178906 0.603348
vt 0.252106 0.506760
vt 0.510637 0.517519
vt 0.504464 0.313915
vt 0.485479 0.060387
vt 0.499503 0.056637
vt 0.770945 0.512149
vt 0.513674 0.060461
vt 0.498803 0.020318
vt 0.495930 0.022537
vt 0.441804 0.455417
vt 0.593030 0.456987
vt 0.499561 0.059606
vt 0.498932 0.026993
vt 0.501762 0.022552
vt 0.499090 0.035226
vt 0.218074 0.853601
vt 0.185787 0.763967
vt 0.485313 0.747810
vt 0.475642 0.840434
vt 0.799500 0.770144
vt 0.500621 0.608762
vt 0.841691 0.610035
vt 0.728815 0.857635
vt 0.460358 0.986917
vt 0.178906 0.603348
vt 0.252106 0.506760
vt 0.510637 0.517519
vt 0.504464 0.313915
vt 0.485479 0.060387
vt 0.499503 0.056637
vt 0.770945 0.512149
vt 0.513674 0.060461
vt 0.498803 0.020318
vt 0.495930 0.022537
vt 0.441804 0.455417
vt 0.593030 0.456987
vt 0.499561 0.059606
vt 0.498932 0.026993
vt 0.501762 0.022552
vt 0.499090 0.035226
vt 0.218074 0.853601
vt 0.185787 0.763967
vt 0.485313 0.747810
vt 0.475642 0.840434
vt 0.799500 0.770144
vt 0.500621 0.608762
vt 0.841691 0.610035
vt 0.728815 0.857635
vt 0.460358 0.986917
vt 0.178906 0.603348
vt 0.252106 0.506760
vt 0.510637 0.517519
vt 0.504464 0.313915
vt 0.485479 0.060387
vt 0.499503 0.056637
vt 0.770945 0.512149
vt 0.513674 0.060461
vt 0.498803 0.020318
vt 0.495930 0.022537
vt 0.441804 0.455417
vt 0.593030 0.456987
vt 0.499561 0.059606
vt 0.498932 0.026993
vt 0.501762 0.022552
vt 0.499090 0.035226
vt 0.218074 0.853601
vt 0.185787 0.763967
vt 0.485313 0.747810
vt 0.475642 0.840434
vt 0.799500 0.770144
vt 0.500621 0.608762
vt 0.841691 0.610035
vt 0.728815 0.857635
vt 0.460358 0.986917
vt 0.178906 0.603348
vt 0.252106 0.506760
vt 0.510637 0.517519
vt 0.504464 0.313915
vt 0.485479 0.060387
vt 0.499503 0.056637
vt 0.770945 0.512149
vt 0.513674 0.060461
vt 0.498803 0.020318
vt 0.495930 0.022537
vt 0.441804 0.455417
vt 0.593030 0.456987
vt 0.499561 0.059606
vt 0.498932 0.026993
vt 0.501762 0.022552
vt 0.499090 0.035226
vt 0.218074 0.853601
vt 0.185787 0.763967
vt 0.485313 0.747810
vt 0.475642 0.840434
vt 0.799500 0.770144
vt 0.500621 0.608762
vt 0.841691 0.610035
vt 0.728815 0.857635
vt 0.460358 0.986917
vt 0.178906 0.603348
vt 0.252106 0.506760
vt 0.510637 0.517519
vt 0.504464 0.313915
vt 0.485479 0.060387
vt 0.499503 0.056637
vt 0.770945 0.512149
vt 0.513674 0.060461
vt 0.498803 0.020318
vt 0.495930 0.022537
vt 0.441804 0.455417
vt 0.593030 0.456987
vt 0.499561 0.059606
vt 0.498932 0.026993
vt 0.501762 0.022552
vt 0.499090 0.035226
vt 0.541986 0.146063
vt 0.539631 0.229849
vt 0.587756 0.242461
vt 0.590810 0.146334
vt 0.538947 0.259893
vt 0.591574 0.312501
vt 0.347380 0.220751
vt 0.344451 0.250765
vt 0.389565 0.303498
vt 0.393213 0.233459
vt 0.319784 0.139610
vt 0.323494 0.222641
vt 0.261886 0.234502
vt 0.254784 0.140474
vt 0.310541 0.229753
vt 0.307474 0.259767
vt 0.354696 0.312501
vt 0.358515 0.242461
vt 0.415303 0.222737
vt 0.415957 0.252781
vt 0.365678 0.305389
vt 0.369327 0.235349
vt 0.320564 0.252655
vt 0.235425 0.305033
vt 0.635729 0.229753
vt 0.638796 0.259767
vt 0.727913 0.312145
vt 0.700216 0.241614
vt 0.591254 0.139222
vt 0.588335 0.235349
vt 0.542359 0.222737
vt 0.544609 0.138951
vt 0.541705 0.252781
vt 0.478831 0.305376
vt 0.478831 0.235283
vt 0.637879 0.139610
vt 0.634168 0.222641
vt 0.406639 0.229849
vt 0.407324 0.259893
vt 0.473135 0.312488
vt 0.473135 0.242394
vt 0.478832 0.138872
vt 0.413054 0.138951
vt 0.246054 0.241614
vt 0.218357 0.312145
vt 0.639613 0.146722
vt 0.707650 0.147586
vt 0.695776 0.234502
vt 0.722236 0.305033
vt 0.637098 0.252655
vt 0.306657 0.146722
vt 0.355460 0.146334
vt 0.591983 0.305389
vt 0.473135 0.145984
vt 0.702879 0.140474
vt 0.404285 0.146063
vt 0.366409 0.139222
vt 0.478832 0.010114
vt 0.402946 0.010318
vt 0.337317 0.017852
vt 0.393704 0.017430
vt 0.473135 0.017226
vt 0.552567 0.017430
vt 0.608588 0.010740
vt 0.554719 0.010318
vt 0.738193 0.013081
vt 0.662404 0.011543
vt 0.349077 0.010740
vt 0.295261 0.011543
vt 0.201657 0.020193
vt 0.238620 0.147586
vt 0.280987 0.018655
vt 0.608953 0.017852
vt 0.665284 0.018655
vt 0.744614 0.020193
vt 0.219471 0.013081
vt 0.678003 0.439602
vt 0.678003 0.382204
vt 0.678003 0.382204
vt 0.678003 0.439602
vt 0.678003 0.898782
vt 0.678003 0.841384
vt 0.678003 0.841384
vt 0.678003 0.898782
vt 0.678003 0.611794
vt 0.678003 0.554397
vt 0.678003 0.554397
vt 0.678003 0.611794
vt 0.678003 0.669192
vt 0.678003 0.669192
vt 0.678003 0.956179
vt 0.678003 0.956179
vt 0.678003 0.324807
vt 0.678003 0.324807
vt 0.678003 0.783987
vt 0.678003 0.726589
vt 0.678003 0.726589
vt 0.678003 0.783987
vt 0.678003 0.152614
vt 0.678003 0.095217
vt 0.678003 0.095217
vt 0.678003 0.152614
vt 0.678003 0.037820
vt 0.678003 0.037820
vt 0.678003 0.496999
vt 0.678003 0.496999
vt 0.678003 0.267409
vt 0.678003 0.267409
vt 0.678003 0.210012
vt 0.678003 0.210012
vt 0.341014 0.027455
vt 0.387306 0.027352
vt 0.396552 0.275426
vt 0.354059 0.275520
vt 0.274620 0.027664
vt 0.293111 0.275712
vt 0.574719 0.040153
vt 0.509549 0.040096
vt 0.509548 0.432523
vt 0.569372 0.432575
vt 0.730754 0.040754
vt 0.665590 0.040423
vt 0.652787 0.432824
vt 0.712605 0.433127
vt 0.566401 0.027284
vt 0.612694 0.027352
vt 0.603449 0.275426
vt 0.560954 0.275363
vt 0.444378 0.040153
vt 0.449724 0.432575
vt 0.433599 0.027284
vt 0.500000 0.027248
vt 0.500000 0.275330
vt 0.439047 0.275363
vt 0.620155 0.040260
vt 0.611080 0.432674
vt 0.398942 0.040260
vt 0.408016 0.432674
vt 0.353507 0.040423
vt 0.288343 0.040754
vt 0.306491 0.433127
vt 0.366309 0.432824
vt 0.658986 0.027455
vt 0.645942 0.275520
vt 0.725380 0.027664
vt 0.706890 0.275712
vt 0.635128 0.334888
vt 0.594552 0.334939
vt 0.600238 0.453044
vt 0.637273 0.453045
vt 0.556386 0.298590
vt 0.594147 0.298927
vt 0.569289 0.426731
vt 0.534835 0.426369
vt 0.648305 0.299495
vt 0.618728 0.427357
vt 0.372425 0.297633
vt 0.410210 0.297737
vt 0.401602 0.425550
vt 0.367130 0.425489
vt 0.334633 0.297578
vt 0.332635 0.425490
vt 0.280440 0.297581
vt 0.283115 0.425599
vt 0.553983 0.335035
vt 0.495785 0.335250
vt 0.510187 0.453281
vt 0.563226 0.453100
vt 0.693313 0.334891
vt 0.690441 0.453146
vt 0.518616 0.298300
vt 0.500389 0.426069
vt 0.437592 0.335555
vt 0.457163 0.453579
vt 0.464416 0.297969
vt 0.451003 0.425746
vt 0.397040 0.335823
vt 0.420180 0.453857
vt 0.356498 0.336134
vt 0.298350 0.336659
vt 0.330107 0.454770
vt 0.383187 0.454191
vt 0.396272 0.561261
vt 0.436719 0.561406
vt 0.422478 0.697012
vt 0.391637 0.696918
vt 0.477155 0.561684
vt 0.453302 0.697245
vt 0.599218 0.578443
vt 0.568950 0.578461
vt 0.573927 0.703772
vt 0.597576 0.703789
vt 0.482109 0.578851
vt 0.451868 0.579104
vt 0.484104 0.704301
vt 0.507721 0.704073
vt 0.421641 0.579418
vt 0.378323 0.579975
vt 0.427447 0.705101
vt 0.460497 0.704590
vt 0.629488 0.578485
vt 0.621233 0.703866
vt 0.505321 0.561957
vt 0.533475 0.562297
vt 0.497285 0.697804
vt 0.475297 0.697492
vt 0.573821 0.562900
vt 0.528068 0.698357
vt 0.368081 0.561241
vt 0.369611 0.696937
vt 0.339887 0.561288
vt 0.347577 0.697020
vt 0.299469 0.561468
vt 0.316699 0.697247
vt 0.525524 0.578595
vt 0.540815 0.703858
vt 0.672884 0.578652
vt 0.654386 0.704076
vt 0.392427 0.981516
vt 0.573085 0.966664
vt 0.632623 0.216556
vt 0.588582 0.216614
vt 0.577644 0.170575
vt 0.618633 0.170938
vt 0.677407 0.171549
vt 0.377985 0.169539
vt 0.419003 0.169652
vt 0.336966 0.169476
vt 0.278129 0.169476
vt 0.544543 0.216719
vt 0.481382 0.216952
vt 0.695793 0.216556
vt 0.536647 0.170263
vt 0.418233 0.217283
vt 0.477830 0.169905
vt 0.374216 0.217571
vt 0.330208 0.217907
vt 0.267104 0.218471
vn 0.4096 0.8127 -0.4145
vn -0.4692 0.7567 0.4553
vn 0.0692 0.6531 0.7541
vn -0.2056 0.7665 0.6084
vn -0.1298 0.6260 -0.7689
vn 0.1511 0.8033 -0.5761
vn 0.7395 -0.5641 0.3674
vn -0.7640 0.5784 0.2858
vn 0.6716 0.6984 -0.2475
vn 0.7315 -0.6605 0.1693
vn -0.1769 0.5106 -0.8414
vn -0.8456 0.4604 0.2704
vn 0.2095 0.3168 -0.9251
vn -0.7302 0.2463 0.6374
vn 0.5191 -0.6764 0.5224
vn 0.6938 -0.5675 0.4435
vn -0.6810 0.2444 0.6903
vn 0.2794 0.3165 -0.9065
vn -0.1542 0.8018 -0.5774
vn -0.4461 0.6496 0.6156
vn 0.1651 0.7769 0.6076
vn -0.1658 0.7696 0.6166
vn -0.6862 0.3930 -0.6122
vn -0.4344 0.6820 -0.5883
vn 0.9732 -0.2264 -0.0411
vn -0.6981 0.3598 0.6190
vn 0.1764 0.8084 -0.5616
vn 0.9107 -0.3574 -0.2070
vn -0.7157 0.2568 -0.6495
vn -0.7283 0.2218 0.6483
vn -0.3706 0.1787 -0.9114
vn -0.3883 0.1296 0.9124
vn 0.9067 -0.3685 0.2051
vn 0.9723 -0.2288 0.0477
vn -0.3234 0.1533 0.9337
vn -0.3053 0.2035 -0.9302
vn -0.5723 0.5161 -0.6373
vn 0.0965 0.9453 0.3115
vn 0.5044 0.8500 -0.1515
vn 0.2832 0.9565 0.0706
vn -0.9391 0.3265 -0.1074
vn -0.7661 0.5013 -0.4023
vn 0.6555 -0.5318 -0.5362
vn -0.0570 0.7805 0.6225
vn -0.3332 0.4189 -0.8447
vn 0.5007 -0.6884 -0.5247
vn -0.9780 0.2046 -0.0408
vn -0.0482 0.6832 0.7287
vn -0.9242 -0.0783 -0.3738
vn 0.3825 0.5943 0.7075
vn 0.7960 -0.5364 -0.2804
vn 0.7190 -0.4991 -0.4836
vn 0.4412 0.6016 0.6659
vn -0.8943 -0.0858 -0.4392
vn -0.8700 0.4532 -0.1942
vn 0.2679 0.9397 -0.2127
vn 0.2106 0.6269 -0.7501
vn 0.2190 0.8398 -0.4967
vn -0.7281 0.5081 0.4601
vn -0.8302 0.5498 0.0923
vn 0.0700 -0.8002 -0.5956
vn 0.3948 0.9067 0.1483
vn -0.8558 0.2483 -0.4539
vn -0.0231 -0.9048 -0.4253
vn -0.7027 0.4218 0.5730
vn 0.4809 0.8421 0.2442
vn -0.9016 0.0565 0.4289
vn 0.7618 0.6470 -0.0332
vn 0.3529 -0.7713 -0.5297
vn 0.1509 -0.7715 -0.6181
vn 0.7713 0.6282 -0.1024
vn -0.9288 0.0247 0.3699
vn 0.1365 0.5739 -0.8075
vn 0.3000 0.8598 0.4132
vn 0.8427 0.4919 0.2187
vn 0.5997 0.7373 0.3111
vn -0.5165 0.6463 -0.5617
vn -0.1587 0.6875 -0.7086
vn 0.5625 -0.8133 -0.1485
vn -0.0582 0.8224 0.5659
vn 0.3923 0.3482 -0.8514
vn 0.3685 -0.9029 -0.2214
vn -0.6321 0.5604 -0.5351
vn -0.1490 0.7457 0.6494
vn -0.5286 0.2451 -0.8128
vn 0.1465 0.5088 0.8483
vn 0.5129 -0.8485 0.1300
vn 0.5956 -0.8005 -0.0671
vn 0.2203 0.4734 0.8529
vn -0.4742 0.2034 -0.8566
vn -0.5055 0.6446 0.5736
vn -0.0057 0.8406 -0.5416
vn -0.5402 0.5361 -0.6487
vn -0.2908 0.7477 -0.5970
vn 0.1500 0.6818 0.7160
vn -0.2221 0.7367 0.6387
vn -0.5721 -0.8097 -0.1310
vn 0.3713 0.7881 -0.4910
vn -0.7504 0.4352 0.4975
vn -0.4498 -0.8921 0.0425
vn 0.2559 0.5952 0.7618
vn 0.4892 0.7072 -0.5105
vn 0.0143 0.2961 0.9551
vn 0.3401 0.4540 -0.8235
vn -0.3800 -0.8588 -0.3437
vn -0.5561 -0.8020 -0.2179
vn 0.2811 0.4199 -0.8630
vn -0.0540 0.2590 0.9644
vn -0.2114 0.7187 0.6623
vn -0.6659 0.5878 -0.4594
vn -0.9549 0.2692 -0.1253
vn -0.8388 0.4692 -0.2761
vn 0.3084 0.9012 0.3044
vn -0.0103 0.8576 0.5143
vn -0.1650 -0.8951 0.4141
vn -0.3621 0.6254 -0.6912
vn -0.3186 0.5371 0.7810
vn 0.0486 -0.8830 0.4669
vn 0.4408 0.8564 0.2689
vn -0.2659 0.5656 -0.7807
vn 0.5212 0.5938 0.6130
vn -0.4720 0.1851 -0.8620
vn -0.1758 -0.9753 0.1336
vn -0.2134 -0.9151 0.3423
vn -0.5253 0.1420 -0.8390
vn 0.4897 0.5597 0.6685
vn -0.9365 0.2992 0.1830
vn -0.2321 0.7300 -0.6428
vn -0.4050 0.1708 -0.8982
vn -0.3509 0.5103 -0.7851
vn -0.5483 0.6758 0.4927
vn -0.7956 0.5257 0.3012
vn 0.1128 -0.9882 -0.1037
vn 0.0117 0.8854 -0.4648
vn -0.9948 -0.0445 0.0911
vn 0.1471 -0.9848 0.0928
vn -0.4590 0.6633 0.5911
vn 0.1358 0.8916 -0.4321
vn -0.5559 0.2452 0.7943
vn 0.3248 0.6095 -0.7231
vn 0.3362 -0.9132 -0.2303
vn 0.1514 -0.9737 -0.1703
vn 0.3101 0.5593 -0.7688
vn -0.5922 0.1827 0.7848
vn 0.3667 0.7171 0.5927
vn -0.7356 0.6752 0.0551
vn -0.7772 0.3539 0.5202
vn -0.7660 0.5572 0.3206
vn 0.5261 0.8496 -0.0381
vn 0.4246 0.8422 0.3322
vn 0.0574 -0.8750 0.4806
vn -0.6603 0.6787 -0.3214
vn 0.3425 0.5038 0.7930
vn 0.2520 -0.8907 0.3783
vn 0.5959 0.7891 -0.1490
vn -0.6547 0.6090 -0.4476
vn 0.8558 0.5121 0.0735
vn -0.9017 0.2590 -0.3461
vn -0.1452 -0.9479 0.2835
vn -0.0282 -0.8874 0.4602
vn -0.9306 0.2225 -0.2907
vn 0.8657 0.4812 0.1381
vn 0.2649 0.9557 0.1282
vn -0.8610 0.4977 -0.1046
vn -0.7639 0.4021 0.5048
vn -0.8393 0.5057 0.1995
vn 0.3085 0.7948 -0.5226
vn 0.2524 0.9514 -0.1765
vn 0.3096 -0.5151 0.7992
vn -0.8300 0.3308 -0.4490
vn 0.3173 0.8427 0.4349
vn 0.4903 -0.5484 0.6774
vn 0.3779 0.6998 -0.6062
vn -0.8223 0.2107 -0.5286
vn 0.7173 0.6073 -0.3415
vn -0.9693 -0.0800 -0.2325
vn 0.1091 -0.7037 0.7020
vn 0.2275 -0.5486 0.8046
vn -0.9827 -0.0892 -0.1621
vn 0.7410 0.6133 -0.2734
vn 0.6083 0.7435 0.2777
vn -0.5650 0.5352 0.6280
vn -0.2034 0.1429 0.9686
vn -0.3821 0.3914 0.8371
vn 0.2206 0.9393 -0.2629
vn 0.4194 0.9053 0.0672
vn 0.4997 -0.8465 0.1838
vn -0.7756 0.5522 0.3058
vn 0.7758 0.4647 0.4268
vn 0.5478 -0.8363 -0.0236
vn 0.1964 0.8948 -0.4009
vn -0.8528 0.4840 0.1960
vn 0.5710 0.6848 -0.4529
vn -0.9126 0.0842 0.4001
vn 0.2289 -0.9607 0.1569
vn 0.4270 -0.8756 0.2256
vn -0.8897 0.0318 0.4555
vn 0.6372 0.6447 -0.4223
vn -0.6487 0.6649 0.3702
vn 0.3596 0.8783 -0.3151
vn -0.0801 0.6920 -0.7174
vn 0.1319 0.8466 -0.5156
vn -0.1526 0.5638 0.8117
vn -0.4276 0.6951 0.5780
vn -0.5165 -0.6702 -0.5329
vn 0.6523 0.7511 -0.1015
vn -0.8445 0.5141 0.1499
vn -0.5222 -0.7811 -0.3423
vn -0.0942 0.4546 0.8857
vn 0.7543 0.6521 -0.0770
vn -0.4356 0.1765 0.8827
vn 0.7568 0.4541 -0.4702
vn -0.2527 -0.7184 -0.6481
vn -0.4585 -0.6568 -0.5987
vn 0.7194 0.4469 -0.5317
vn -0.4992 0.1632 0.8510
vn -0.4193 0.0110 0.9078
vn -0.2228 -0.1589 0.9618
vn -0.9519 -0.1923 -0.2387
vn 0.9592 0.0577 -0.2767
vn 0.9648 -0.0889 0.2474
vn 0.2520 -0.1196 -0.9603
vn 0.9096 -0.0911 -0.4053
vn -0.8875 -0.1972 0.4164
vn -0.4128 0.0175 -0.9107
vn -0.3955 -0.1599 -0.9045
vn -0.9066 0.0010 -0.4219
vn 0.4162 -0.1262 0.9005
vn 0.2831 0.0389 -0.9583
vn -0.9551 -0.1966 0.2216
vn 0.9036 -0.0966 0.4174
vn -0.9583 -0.0037 0.2857
vn 0.9682 -0.0870 -0.2347
vn -0.8816 -0.1925 -0.4309
vn 0.8998 0.0539 0.4330
vn -0.2132 -0.1481 -0.9657
vn -0.2894 0.0141 0.9571
vn -0.4073 -0.1721 0.8969
vn -0.9555 -0.0016 -0.2950
vn 0.2755 0.0318 0.9608
vn 0.9045 0.0567 -0.4228
vn 0.2390 -0.1323 0.9620
vn -0.2807 0.0216 -0.9596
vn 0.4259 -0.1160 -0.8973
vn 0.4222 0.0436 -0.9054
vn 0.4127 0.0364 0.9101
vn 0.1986 0.0519 -0.9787
vn 0.5220 0.0512 0.8514
vn -0.2023 0.0501 0.9780
vn -0.5264 0.0538 -0.8485
vn -0.9780 0.0508 -0.2023
vn 0.8465 0.0526 -0.5297
vn 0.9775 0.0505 0.2047
vn -0.8481 0.0516 0.5274
vn 0.1956 0.0497 0.9794
vn -0.1995 0.0524 -0.9785
vn -0.9787 0.0502 0.1991
vn 0.9786 0.0508 -0.1996
vn 0.5253 0.0531 -0.8493
vn 0.8441 0.0518 0.5337
vn -0.8463 0.0532 -0.5300
vn -0.5288 0.0518 0.8472
vn -0.9109 -0.0027 0.4126
vn 0.9558 0.0555 0.2886
vn -0.2861 0.2264 0.9311
vn 0.2552 0.2663 -0.9295
vn -0.9493 0.1944 0.2472
vn -0.9456 0.1975 -0.2585
vn 0.4368 0.2906 -0.8514
vn 0.2414 0.2541 0.9366
vn -0.4871 0.2384 -0.8402
vn 0.9124 0.3009 -0.2774
vn 0.8386 0.3112 -0.4470
vn -0.8465 0.2179 -0.4857
vn -0.8517 0.2126 0.4789
vn 0.4292 0.2803 0.8586
vn 0.8311 0.3046 0.4653
vn -0.5005 0.2280 0.8352
vn -0.2781 0.2372 -0.9308
vn 0.9083 0.2975 0.2941
vn 0.8108 0.0729 -0.5808
vn 0.9497 0.1023 0.2959
vn -0.2351 -0.0140 0.9719
vn -0.9729 -0.0619 0.2229
vn -0.5742 -0.0254 -0.8183
vn 0.2190 0.0188 0.9755
vn 0.2331 0.0339 -0.9719
vn -0.2212 0.0011 -0.9752
vn -0.5866 -0.0381 0.8090
vn 0.5721 0.0456 0.8189
vn 0.9664 0.1061 -0.2341
vn 0.8006 0.0637 0.5958
vn -0.8120 -0.0527 0.5813
vn -0.8025 -0.0435 -0.5951
vn -0.9689 -0.0582 -0.2407
vn 0.5851 0.0583 -0.8089
vn -0.8076 -0.1204 0.5772
vn -0.7914 -0.0992 -0.6032
vn -0.9593 -0.1317 -0.2497
vn 0.5790 0.1219 -0.8061
vn 0.8023 0.1537 -0.5768
vn 0.9611 0.1730 -0.2153
vn -0.2385 -0.0364 0.9705
vn -0.9662 -0.1401 0.2163
vn -0.5640 -0.0596 -0.8236
vn 0.2084 0.0345 0.9774
vn 0.2319 0.0690 -0.9703
vn -0.2153 -0.0020 -0.9765
vn -0.5850 -0.0886 0.8062
vn 0.5576 0.0926 0.8249
vn 0.9539 0.1645 0.2509
vn 0.7855 0.1323 0.6046
vn 0.2211 0.1301 -0.9665
vn -0.2171 -0.0113 -0.9761
vn -0.5767 -0.1695 0.7992
vn 0.5378 0.1902 0.8213
vn 0.9128 0.3244 0.2481
vn 0.7554 0.2657 0.5989
vn -0.7893 -0.2328 0.5682
vn -0.7758 -0.2005 -0.5983
vn -0.9334 -0.2604 -0.2469
vn 0.5566 0.2348 -0.7969
vn 0.7686 0.2978 -0.5662
vn 0.9179 0.3369 -0.2094
vn -0.2402 -0.0652 0.9685
vn -0.9386 -0.2731 0.2109
vn -0.5576 -0.1246 -0.8207
vn 0.1981 0.0762 0.9772
vn 0.8851 0.4165 -0.2077
vn -0.2409 -0.0637 0.9684
vn -0.9235 -0.3205 0.2108
vn -0.5523 -0.1459 -0.8208
vn 0.1867 0.1081 0.9765
vn 0.2077 0.1622 -0.9647
vn -0.2197 -0.0093 -0.9755
vn -0.5697 -0.1912 0.7993
vn 0.5171 0.2453 0.8201
vn 0.8805 0.4039 0.2480
vn 0.7281 0.3353 0.5978
vn -0.7776 -0.2694 0.5682
vn -0.7653 -0.2369 -0.5985
vn -0.9188 -0.3078 -0.2472
vn 0.5341 0.2901 -0.7941
vn 0.7400 0.3674 -0.5634
vn -0.8031 -0.1629 0.5732
vn -0.5629 -0.0786 -0.8228
vn 0.9351 0.2498 0.2515
vn 0.2018 0.0595 0.9776
vn -0.7870 -0.1345 -0.6021
vn -0.8106 -0.0898 0.5787
vn -0.7966 -0.0739 -0.5999
vn -0.9515 -0.1797 -0.2495
vn -0.9642 -0.0990 -0.2461
vn 0.7866 0.2330 -0.5718
vn 0.5822 0.0983 -0.8071
vn 0.7707 0.2030 0.6039
vn 0.9416 0.2618 -0.2117
vn 0.8066 0.1232 -0.5782
vn 0.9504 0.0796 0.3007
vn -0.2415 -0.0434 0.9694
vn -0.2379 -0.0243 0.9710
vn 0.5679 0.1858 -0.8018
vn -0.9701 -0.1054 0.2188
vn -0.5687 -0.0431 -0.8214
vn 0.2124 0.0310 0.9767
vn 0.2327 0.0571 -0.9709
vn -0.2179 0.0017 -0.9760
vn -0.5867 -0.0650 0.8072
vn -0.9581 -0.1909 0.2134
vn 0.5636 0.0763 0.8225
vn 0.9659 0.0915 -0.2423
vn 0.7920 0.1071 0.6011
vn -0.5841 -0.1180 0.8030
vn 0.5469 0.1448 0.8246
vn 0.2258 0.1077 -0.9682
vn -0.2174 0.0040 -0.9761
usemtl Material.001
s off
f 6/1/1 7/2/1 5/3/1 3/4/1
f 2/5/2 5/3/2 8/6/2 10/7/2
f 1/8/3 4/9/3 3/4/3
f 3/4/4 5/3/4 2/5/4 1/8/4
f 8/6/5 9/10/5 12/11/5 11/12/5
f 5/3/6 7/2/6 9/10/6 8/6/6
f 11/13/7 15/14/7 18/15/7
f 10/7/8 8/6/8 11/12/8 13/16/8
f 3/4/9 4/9/9 6/1/9
f 16/17/10 18/15/10 21/18/10 19/19/10
f 11/12/11 12/11/11 16/20/11
f 13/16/12 11/12/12 15/21/12
f 17/22/13 16/17/13 19/19/13 20/23/13
f 15/14/14 17/22/14 20/23/14 14/24/14
f 18/15/15 15/14/15 14/24/15 21/18/15
f 16/17/16 11/13/16 18/15/16
f 15/14/17 11/25/17 17/22/17
f 16/17/18 17/22/18 11/25/18
f 27/26/19 28/27/19 26/28/19 24/29/19
f 23/30/20 26/28/20 29/31/20 31/32/20
f 22/33/21 25/34/21 24/29/21
f 24/29/22 26/28/22 23/30/22 22/33/22
f 29/31/23 30/35/23 33/36/23 32/37/23
f 26/28/24 28/27/24 30/35/24 29/31/24
f 32/38/25 36/39/25 39/40/25
f 31/32/26 29/31/26 32/37/26 34/41/26
f 24/29/27 25/34/27 27/26/27
f 37/42/28 39/40/28 42/43/28 40/44/28
f 32/37/29 33/36/29 37/45/29
f 34/41/30 32/37/30 36/46/30
f 38/47/31 37/42/31 40/44/31 41/48/31
f 36/39/32 38/47/32 41/48/32 35/49/32
f 39/40/33 36/39/33 35/49/33 42/43/33
f 37/42/34 32/38/34 39/40/34
f 36/39/35 32/50/35 38/47/35
f 37/42/36 38/47/36 32/50/36
f 48/51/37 49/52/37 47/53/37 45/54/37
f 44/55/38 47/53/38 50/56/38 52/57/38
f 43/58/39 46/59/39 45/54/39
f 45/54/40 47/53/40 44/55/40 43/58/40
f 50/56/41 51/60/41 54/61/41 53/62/41
f 47/53/42 49/52/42 51/60/42 50/56/42
f 53/63/43 57/64/43 60/65/43
f 52/57/44 50/56/44 53/62/44 55/66/44
f 45/54/45 46/59/45 48/51/45
f 58/67/46 60/65/46 63/68/46 61/69/46
f 53/62/47 54/61/47 58/70/47
f 55/66/48 53/62/48 57/71/48
f 59/72/49 58/67/49 61/69/49 62/73/49
f 57/64/50 59/72/50 62/73/50 56/74/50
f 60/65/51 57/64/51 56/74/51 63/68/51
f 58/67/52 53/63/52 60/65/52
f 57/64/53 53/75/53 59/72/53
f 58/67/54 59/72/54 53/75/54
f 69/76/55 70/77/55 68/78/55 66/79/55
f 65/80/56 68/78/56 71/81/56 73/82/56
f 64/83/57 67/84/57 66/79/57
f 66/79/58 68/78/58 65/80/58 64/83/58
f 71/81/59 72/85/59 75/86/59 74/87/59
f 68/78/60 70/77/60 72/85/60 71/81/60
f 74/88/61 78/89/61 81/90/61
f 73/82/62 71/81/62 74/87/62 76/91/62
f 66/79/63 67/84/63 69/76/63
f 79/92/64 81/90/64 84/93/64 82/94/64
f 74/87/65 75/86/65 79/95/65
f 76/91/66 74/87/66 78/96/66
f 80/97/67 79/92/67 82/94/67 83/98/67
f 78/89/68 80/97/68 83/98/68 77/99/68
f 81/90/69 78/89/69 77/99/69 84/93/69
f 79/92/70 74/88/70 81/90/70
f 78/89/71 74/100/71 80/97/71
f 79/92/72 80/97/72 74/100/72
f 90/101/73 91/102/73 89/103/73 87/104/73
f 86/105/74 89/103/74 92/106/74 94/107/74
f 85/108/75 88/109/75 87/104/75
f 87/104/76 89/103/76 86/105/76 85/108/76
f 92/106/77 93/110/77 96/111/77 95/112/77
f 89/103/78 91/102/78 93/110/78 92/106/78
f 95/113/79 99/114/79 102/115/79
f 94/107/80 92/106/80 95/112/80 97/116/80
f 87/104/81 88/109/81 90/101/81
f 100/117/82 102/115/82 105/118/82 103/119/82
f 95/112/83 96/111/83 100/120/83
f 97/116/84 95/112/84 99/121/84
f 101/122/85 100/117/85 103/119/85 104/123/85
f 99/114/86 101/122/86 104/123/86 98/124/86
f 102/115/87 99/114/87 98/124/87 105/118/87
f 100/117/88 95/113/88 102/115/88
f 99/114/89 95/125/89 101/122/89
f 100/117/90 101/122/90 95/125/90
f 111/126/91 112/127/91 110/128/91 108/129/91
f 107/130/92 110/128/92 113/131/92 115/132/92
f 106/133/93 109/134/93 108/129/93
f 108/129/94 110/128/94 107/130/94 106/133/94
f 113/131/95 114/135/95 117/136/95 116/137/95
f 110/128/96 112/127/96 114/135/96 113/131/96
f 116/138/97 120/139/97 123/140/97
f 115/132/98 113/131/98 116/137/98 118/141/98
f 108/129/99 109/134/99 111/126/99
f 121/142/100 123/140/100 126/143/100 124/144/100
f 116/137/101 117/136/101 121/145/101
f 118/141/102 116/137/102 120/146/102
f 122/147/103 121/142/103 124/144/103 125/148/103
f 120/139/104 122/147/104 125/148/104 119/149/104
f 123/140/105 120/139/105 119/149/105 126/143/105
f 121/142/106 116/138/106 123/140/106
f 120/139/107 116/150/107 122/147/107
f 121/142/108 122/147/108 116/150/108
f 132/151/109 133/152/109 131/153/109 129/154/109
f 128/155/110 131/153/110 134/156/110 136/157/110
f 127/158/111 130/159/111 129/154/111
f 129/154/112 131/153/112 128/155/112 127/158/112
f 134/156/113 135/160/113 138/161/113 137/162/113
f 131/153/114 133/152/114 135/160/114 134/156/114
f 137/163/115 141/164/115 144/165/115
f 136/157/116 134/156/116 137/162/116 139/166/116
f 129/154/117 130/159/117 132/151/117
f 142/167/118 144/165/118 147/168/118 145/169/118
f 137/162/119 138/161/119 142/170/119
f 139/166/120 137/162/120 141/171/120
f 143/172/121 142/167/121 145/169/121 146/173/121
f 141/164/122 143/172/122 146/173/122 140/174/122
f 144/165/123 141/164/123 140/174/123 147/168/123
f 142/167/124 137/163/124 144/165/124
f 141/164/125 137/175/125 143/172/125
f 142/167/126 143/172/126 137/175/126
f 153/176/127 154/177/127 152/178/127 150/179/127
f 149/180/128 152/178/128 155/181/128 157/182/128
f 148/183/129 151/184/129 150/179/129
f 150/179/130 152/178/130 149/180/130 148/183/130
f 155/181/131 156/185/131 159/186/131 158/187/131
f 152/178/132 154/177/132 156/185/132 155/181/132
f 158/188/133 162/189/133 165/190/133
f 157/182/134 155/181/134 158/187/134 160/191/134
f 150/179/135 151/184/135 153/176/135
f 163/192/136 165/190/136 168/193/136 166/194/136
f 158/187/137 159/186/137 163/195/137
f 160/191/138 158/187/138 162/196/138
f 164/197/139 163/192/139 166/194/139 167/198/139
f 162/189/140 164/197/140 167/198/140 161/199/140
f 165/190/141 162/189/141 161/199/141 168/193/141
f 163/192/142 158/188/142 165/190/142
f 162/189/143 158/200/143 164/197/143
f 163/192/144 164/197/144 158/200/144
f 174/201/145 175/202/145 173/203/145 171/204/145
f 170/205/146 173/203/146 176/206/146 178/207/146
f 169/208/147 172/209/147 171/204/147
f 171/204/148 173/203/148 170/205/148 169/208/148
f 176/206/149 177/210/149 180/211/149 179/212/149
f 173/203/150 175/202/150 177/210/150 176/206/150
f 179/213/151 183/214/151 186/215/151
f 178/207/152 176/206/152 179/212/152 181/216/152
f 171/204/153 172/209/153 174/201/153
f 184/217/154 186/215/154 189/218/154 187/219/154
f 179/212/155 180/211/155 184/220/155
f 181/216/156 179/212/156 183/221/156
f 185/222/157 184/217/157 187/219/157 188/223/157
f 183/214/158 185/222/158 188/223/158 182/224/158
f 186/215/159 183/214/159 182/224/159 189/218/159
f 184/217/160 179/213/160 186/215/160
f 183/214/161 179/225/161 185/222/161
f 184/217/162 185/222/162 179/225/162
f 195/226/163 196/227/163 194/228/163 192/229/163
f 191/230/164 194/228/164 197/231/164 199/232/164
f 190/233/165 193/234/165 192/229/165
f 192/229/166 194/228/166 191/230/166 190/233/166
f 197/231/167 198/235/167 201/236/167 200/237/167
f 194/228/168 196/227/168 198/235/168 197/231/168
f 200/238/169 204/239/169 207/240/169
f 199/232/170 197/231/170 200/237/170 202/241/170
f 192/229/171 193/234/171 195/226/171
f 205/242/172 207/240/172 210/243/172 208/244/172
f 200/237/173 201/236/173 205/245/173
f 202/241/174 200/237/174 204/246/174
f 206/247/175 205/242/175 208/244/175 209/248/175
f 204/239/176 206/247/176 209/248/176 203/249/176
f 207/240/177 204/239/177 203/249/177 210/243/177
f 205/242/178 200/238/178 207/240/178
f 204/239/179 200/250/179 206/247/179
f 205/242/180 206/247/180 200/250/180
f 216/251/181 217/252/181 215/253/181 213/254/181
f 212/255/182 215/253/182 218/256/182 220/257/182
f 211/258/183 214/259/183 213/254/183
f 213/254/184 215/253/184 212/255/184 211/258/184
f 218/256/185 219/260/185 222/261/185 221/262/185
f 215/253/186 217/252/186 219/260/186 218/256/186
f 221/263/187 225/264/187 228/265/187
f 220/257/188 218/256/188 221/262/188 223/266/188
f 213/254/189 214/259/189 216/251/189
f 226/267/190 228/265/190 231/268/190 229/269/190
f 221/262/191 222/261/191 226/270/191
f 223/266/192 221/262/192 225/271/192
f 227/272/193 226/267/193 229/269/193 230/273/193
f 225/264/194 227/272/194 230/273/194 224/274/194
f 228/265/195 225/264/195 224/274/195 231/268/195
f 226/267/196 221/263/196 228/265/196
f 225/264/197 221/275/197 227/272/197
f 226/267/198 227/272/198 221/275/198
f 237/276/199 238/277/199 236/278/199 234/279/199
f 233/280/200 236/278/200 239/281/200 241/282/200
f 232/283/201 235/284/201 234/279/201
f 234/279/202 236/278/202 233/280/202 232/283/202
f 239/281/203 240/285/203 243/286/203 242/287/203
f 236/278/204 238/277/204 240/285/204 239/281/204
f 242/288/205 246/289/205 249/290/205
f 241/282/206 239/281/206 242/287/206 244/291/206
f 234/279/207 235/284/207 237/276/207
f 247/292/208 249/290/208 252/293/208 250/294/208
f 242/287/209 243/286/209 247/295/209
f 244/291/210 242/287/210 246/296/210
f 248/297/211 247/292/211 250/294/211 251/298/211
f 246/289/212 248/297/212 251/298/212 245/299/212
f 249/290/213 246/289/213 245/299/213 252/293/213
f 247/292/214 242/288/214 249/290/214
f 246/289/215 242/300/215 248/297/215
f 247/292/216 248/297/216 242/300/216
usemtl Material
f 306/301/217 287/302/217 316/303/217 294/304/217
f 287/302/218 278/305/218 259/306/218 316/303/218
f 289/307/219 273/308/219 257/309/219 313/310/219
f 303/311/220 290/312/220 312/313/220 297/314/220
f 291/315/221 270/316/221 255/317/221 314/318/221
f 285/319/222 282/320/222 253/321/222 315/322/222
f 290/312/223 276/323/223 262/324/223 312/313/223
f 292/325/224 271/326/224 263/327/224 311/328/224
f 296/329/225 313/330/225 288/331/225 305/332/225
f 288/331/226 280/333/226 268/334/226 310/335/226
f 304/336/227 289/337/227 313/330/227 296/329/227
f 286/338/228 284/339/228 266/340/228 309/341/228
f 299/342/229 310/335/229 285/319/229 308/343/229
f 316/303/230 259/306/230 271/326/230 292/325/230
f 312/344/231 262/345/231 270/316/231 291/315/231
f 301/346/232 292/325/232 311/328/232 298/347/232
f 315/322/233 253/321/233 276/323/233 290/312/233
f 311/348/234 263/349/234 273/350/234 289/337/234
f 302/351/235 291/315/235 314/318/235 295/352/235
f 313/330/236 257/353/236 280/333/236 288/331/236
f 300/354/237 309/341/237 287/302/237 306/301/237
f 309/341/238 266/340/238 278/305/238 287/302/238
f 298/355/239 311/348/239 289/337/239 304/336/239
f 307/356/240 286/338/240 309/341/240 300/354/240
f 293/357/241 315/322/241 290/312/241 303/311/241
f 314/318/242 255/317/242 284/339/242 286/338/242
f 305/332/243 288/331/243 310/335/243 299/342/243
f 310/335/244 268/334/244 282/320/244 285/319/244
f 308/343/245 285/319/245 315/322/245 293/357/245
f 295/352/246 314/318/246 286/338/246 307/356/246
f 265/358/247 299/342/247 308/343/247 283/359/247
f 256/360/248 295/352/248 307/356/248 281/361/248
f 267/362/249 300/354/249 306/301/249 279/363/249
f 258/364/250 296/329/250 305/332/250 277/365/250
f 261/366/251 298/355/251 304/336/251 275/367/251
f 254/368/252 293/357/252 303/311/252 274/369/252
f 264/370/253 297/371/253 302/351/253 272/372/253
f 260/373/254 294/304/254 301/346/254 269/374/254
f 281/361/255 307/356/255 300/354/255 267/362/255
f 277/365/256 305/332/256 299/342/256 265/358/256
f 269/374/257 301/346/257 298/347/257 261/375/257
f 274/369/258 303/311/258 297/314/258 264/376/258
f 283/359/259 308/343/259 293/357/259 254/368/259
f 272/372/260 302/351/260 295/352/260 256/360/260
f 275/367/261 304/336/261 296/329/261 258/364/261
f 279/363/262 306/301/262 294/304/262 260/373/262
f 294/304/263 316/303/263 292/325/263 301/346/263
f 297/371/264 312/344/264 291/315/264 302/351/264
f 282/377/265 268/378/265 324/379/265 331/380/265
f 278/381/266 266/382/266 323/383/266 329/384/266
f 262/385/267 276/386/267 328/387/267 321/388/267
f 270/389/268 262/385/268 321/388/268 325/390/268
f 259/391/269 278/381/269 329/384/269 320/392/269
f 268/378/270 280/393/270 330/394/270 324/379/270
f 284/395/271 255/396/271 318/397/271 332/398/271
f 263/399/272 271/400/272 326/401/272 322/402/272
f 271/400/273 259/403/273 320/404/273 326/401/273
f 255/396/274 270/389/274 325/390/274 318/397/274
f 276/386/275 253/405/275 317/406/275 328/387/275
f 280/393/276 257/407/276 319/408/276 330/394/276
f 257/407/277 273/409/277 327/410/277 319/408/277
f 253/405/278 282/377/278 331/380/278 317/406/278
f 266/382/279 284/395/279 332/398/279 323/383/279
f 273/409/280 263/399/280 322/402/280 327/410/280
f 328/411/281 317/412/281 333/413/281 344/414/281
f 321/415/282 328/411/282 344/414/282 337/416/282
f 329/417/283 323/418/283 339/419/283 345/420/283
f 322/421/284 326/422/284 342/423/284 338/424/284
f 330/425/285 319/426/285 335/427/285 346/428/285
f 323/418/286 332/429/286 348/430/286 339/419/286
f 331/431/287 324/432/287 340/433/287 347/434/287
f 324/432/288 330/425/288 346/428/288 340/433/288
f 320/435/289 329/417/289 345/420/289 336/436/289
f 332/429/290 318/437/290 334/438/290 348/430/290
f 325/439/291 321/440/291 337/441/291 341/442/291
f 318/437/292 325/439/292 341/442/292 334/438/292
f 326/422/293 320/435/293 336/436/293 342/423/293
f 319/426/294 327/443/294 343/444/294 335/427/294
f 327/443/295 322/445/295 338/446/295 343/444/295
f 317/412/296 331/431/296 347/434/296 333/413/296
f 406/447/297 405/448/297 352/449/297 358/450/297
f 404/451/298 403/452/298 359/453/298 351/454/298
f 403/452/299 402/455/299 354/456/299 359/453/299
f 401/457/300 400/458/300 363/459/300 349/460/300
f 399/461/301 401/457/301 349/460/301 360/462/301
f 397/463/302 399/461/302 360/462/302 353/464/302
f 396/465/303 395/466/303 355/467/303 361/468/303
f 402/469/304 406/447/304 358/450/304 354/470/304
f 393/471/305 404/451/305 351/454/305 362/472/305
f 395/466/306 392/473/306 364/474/306 355/467/306
f 400/458/307 391/475/307 356/476/307 363/459/307
f 391/475/308 393/471/308 362/472/308 356/476/308
f 405/448/309 396/465/309 361/468/309 352/449/309
f 392/473/310 390/477/310 350/478/310 364/474/310
f 388/479/311 397/480/311 353/481/311 357/482/311
f 390/477/312 388/479/312 357/482/312 350/478/312
f 387/483/313 386/484/313 372/485/313 379/486/313
f 386/484/314 384/487/314 378/488/314 372/485/314
f 383/489/315 382/490/315 377/491/315 368/492/315
f 398/493/316 385/494/316 366/495/316 380/496/316
f 394/497/317 389/498/317 369/499/317 373/500/317
f 385/494/318 394/497/318 373/500/318 366/495/318
f 413/501/319 383/489/319 368/492/319 374/502/319
f 412/503/320 411/504/320 375/505/320 367/506/320
f 411/504/321 410/507/321 370/508/321 375/505/321
f 409/509/322 387/483/322 379/486/322 365/510/322
f 408/511/323 409/509/323 365/510/323 376/512/323
f 389/513/324 408/511/324 376/512/324 369/514/324
f 382/490/325 407/515/325 371/516/325 377/491/325
f 410/517/326 413/501/326 374/502/326 370/518/326
f 384/487/327 412/503/327 367/506/327 378/488/327
f 407/515/328 398/493/328 380/496/328 371/516/328
f 369/514/329 376/512/329 381/519/329
f 377/491/330 371/516/330 381/520/330
f 370/518/331 374/502/331 381/520/331
f 378/488/332 367/506/332 381/519/332
f 371/516/333 380/496/333 381/520/333
f 379/486/334 372/485/334 381/519/334
f 372/485/335 378/488/335 381/519/335
f 368/492/336 377/491/336 381/520/336
f 380/496/337 366/495/337 381/520/337
f 373/500/338 369/499/338 381/520/338
f 366/495/339 373/500/339 381/520/339
f 374/502/340 368/492/340 381/520/340
f 367/506/341 375/505/341 381/519/341
f 375/505/342 370/508/342 381/519/342
f 365/510/343 379/486/343 381/519/343
f 376/512/344 365/510/344 381/519/344
f 358/450/345 352/449/345 383/489/345 413/501/345
f 362/472/346 351/454/346 412/503/346 384/487/346
f 357/482/347 353/481/347 389/498/347 394/497/347
f 355/467/348 364/474/348 398/493/348 407/515/348
f 351/454/349 359/453/349 411/504/349 412/503/349
f 342/521/350 336/522/350 405/448/350 406/447/350
f 335/523/351 343/524/351 403/452/351 404/451/351
f 359/453/352 354/456/352 410/507/352 411/504/352
f 343/524/353 338/525/353 402/455/353 403/452/353
f 360/462/354 349/460/354 409/509/354 408/511/354
f 333/526/355 347/527/355 400/458/355 401/457/355
f 350/478/356 357/482/356 394/497/356 385/494/356
f 353/464/357 360/462/357 408/511/357 389/513/357
f 344/528/358 333/526/358 401/457/358 399/461/358
f 337/529/359 344/528/359 399/461/359 397/463/359
f 361/468/360 355/467/360 407/515/360 382/490/360
f 345/530/361 339/531/361 395/466/361 396/465/361
f 349/460/362 363/459/362 387/483/362 409/509/362
f 338/532/363 342/521/363 406/447/363 402/469/363
f 346/533/364 335/523/364 404/451/364 393/471/364
f 339/531/365 348/534/365 392/473/365 395/466/365
f 347/527/366 340/535/366 391/475/366 400/458/366
f 340/535/367 346/533/367 393/471/367 391/475/367
f 336/522/368 345/530/368 396/465/368 405/448/368
f 354/470/369 358/450/369 413/501/369 410/517/369
f 348/534/370 334/536/370 390/477/370 392/473/370
f 341/537/371 337/538/371 397/480/371 388/479/371
f 334/536/372 341/537/372 388/479/372 390/477/372
f 352/449/373 361/468/373 382/490/373 383/489/373
f 364/474/374 350/478/374 385/494/374 398/493/374
f 363/459/375 356/476/375 386/484/375 387/483/375
f 356/476/376 362/472/376 384/487/376 386/484/376
