# Blender v2.92.0 OBJ File: 'barrel.blend'
# www.blender.org
mtllib barrel.mtl
o Cylinder
v 0.000000 0.000000 -0.600000
v 0.000000 1.500000 -0.600000
v 0.205212 0.000000 -0.563816
v 0.205212 1.500000 -0.563816
v 0.385673 0.000000 -0.459627
v 0.385673 1.500000 -0.459627
v 0.519615 0.000000 -0.300000
v 0.519615 1.500000 -0.300000
v 0.590885 0.000000 -0.104189
v 0.590885 1.500000 -0.104189
v 0.590885 0.000000 0.104189
v 0.590885 1.500000 0.104189
v 0.519615 0.000000 0.300000
v 0.519615 1.500000 0.300000
v 0.385673 0.000000 0.459627
v 0.385673 1.500000 0.459627
v 0.205212 0.000000 0.563816
v 0.205212 1.500000 0.563816
v 0.000000 0.000000 0.600000
v 0.000000 1.500000 0.600000
v -0.205212 0.000000 0.563816
v -0.205212 1.500000 0.563816
v -0.385672 0.000000 0.459627
v -0.385672 1.500000 0.459627
v -0.519615 0.000000 0.300000
v -0.519615 1.500000 0.300000
v -0.590885 0.000000 0.104189
v -0.590885 1.500000 0.104189
v -0.590885 0.000000 -0.104189
v -0.590885 1.500000 -0.104189
v -0.519615 0.000000 -0.300000
v -0.519615 1.500000 -0.300000
v -0.385673 0.000000 -0.459626
v -0.385673 1.500000 -0.459626
v -0.205212 0.000000 -0.563815
v -0.205212 1.500000 -0.563815
v -0.215154 0.308401 0.591132
v -0.215154 0.278645 0.591132
v -0.215154 1.221355 0.591132
v -0.215154 1.191599 0.591132
v -0.404358 0.308401 0.481895
v -0.404358 0.278645 0.481895
v -0.404358 1.221355 0.481895
v -0.404358 1.191599 0.481895
v -0.544790 0.308401 0.314535
v -0.544790 0.278645 0.314535
v -0.544790 1.221355 0.314535
v -0.544790 1.191599 0.314535
v -0.619512 0.308401 0.109237
v -0.619512 0.278645 0.109237
v -0.619512 1.221355 0.109237
v -0.619512 1.191599 0.109237
v -0.619512 0.308401 -0.109236
v -0.619512 0.278645 -0.109236
v -0.619512 1.221355 -0.109236
v -0.619512 1.191599 -0.109236
v -0.544790 0.308401 -0.314534
v -0.544790 0.278645 -0.314534
v -0.544790 1.221355 -0.314534
v -0.544790 1.191599 -0.314534
v -0.404358 0.308401 -0.481895
v -0.404358 0.278645 -0.481895
v -0.404358 1.221355 -0.481895
v -0.404358 1.191599 -0.481895
v -0.215155 0.308401 -0.591131
v -0.215155 0.278645 -0.591131
v -0.000000 0.278645 -0.629069
v -0.000000 0.308401 -0.629069
v -0.000000 1.191599 -0.629069
v -0.000000 1.221355 -0.629069
v -0.215155 1.221355 -0.591131
v -0.215155 1.191599 -0.591131
v 0.000000 1.243271 -0.600000
v 0.000000 1.171193 -0.600000
v 0.000000 0.328808 -0.600000
v 0.000000 0.256729 -0.600000
v 0.205212 0.256729 -0.563816
v 0.205212 0.328808 -0.563816
v 0.205212 1.171193 -0.563816
v 0.205212 1.243271 -0.563816
v 0.385673 0.256729 -0.459627
v 0.385673 0.328808 -0.459627
v 0.385673 1.171193 -0.459627
v 0.385673 1.243271 -0.459627
v 0.519615 0.256729 -0.300000
v 0.519615 0.328808 -0.300000
v 0.519615 1.171193 -0.300000
v 0.519615 1.243271 -0.300000
v 0.590885 0.256729 -0.104189
v 0.590885 0.328808 -0.104189
v 0.590885 1.171193 -0.104189
v 0.590885 1.243271 -0.104189
v 0.590885 0.256729 0.104189
v 0.590885 0.328808 0.104189
v 0.590885 1.171193 0.104189
v 0.590885 1.243271 0.104189
v 0.519615 0.256729 0.300000
v 0.519615 0.328808 0.300000
v 0.519615 1.171193 0.300000
v 0.519615 1.243271 0.300000
v 0.385673 0.256729 0.459627
v 0.385673 0.328808 0.459627
v 0.385673 1.171193 0.459627
v 0.385673 1.243271 0.459627
v 0.205212 0.256729 0.563816
v 0.205212 0.328808 0.563816
v 0.205212 1.171193 0.563816
v 0.205212 1.243271 0.563816
v 0.000000 0.256729 0.600000
v 0.000000 0.328808 0.600000
v 0.000000 1.171193 0.600000
v 0.000000 1.243271 0.600000
v -0.205212 0.256729 0.563816
v -0.205212 0.328808 0.563816
v -0.205212 1.171193 0.563816
v -0.205212 1.243271 0.563816
v -0.385672 0.256729 0.459627
v -0.385672 0.328808 0.459627
v -0.385672 1.171193 0.459627
v -0.385672 1.243271 0.459627
v -0.519615 0.256729 0.300000
v -0.519615 0.328808 0.300000
v -0.519615 1.171193 0.300000
v -0.519615 1.243271 0.300000
v -0.590885 0.256729 0.104189
v -0.590885 0.328808 0.104189
v -0.590885 1.171193 0.104189
v -0.590885 1.243271 0.104189
v -0.590885 0.256729 -0.104189
v -0.590885 0.328808 -0.104189
v -0.590885 1.171193 -0.104189
v -0.590885 1.243271 -0.104189
v -0.519615 0.256729 -0.300000
v -0.519615 0.328808 -0.300000
v -0.519615 1.171193 -0.300000
v -0.519615 1.243271 -0.300000
v -0.385673 0.256729 -0.459626
v -0.385673 0.328808 -0.459626
v -0.385673 1.171193 -0.459626
v -0.385673 1.243271 -0.459626
v -0.205212 0.256729 -0.563815
v -0.205212 0.328808 -0.563815
v -0.205212 1.171193 -0.563815
v -0.205212 1.243271 -0.563815
v 0.000000 1.191599 0.629069
v 0.000000 1.221355 0.629069
v 0.000000 0.278645 0.629069
v 0.000000 0.308401 0.629069
v 0.215154 1.191599 0.591131
v 0.215154 1.221355 0.591131
v 0.215154 0.278645 0.591131
v 0.215154 0.308401 0.591131
v 0.404358 1.191599 0.481895
v 0.404358 1.221355 0.481895
v 0.404358 0.278645 0.481895
v 0.404358 0.308401 0.481895
v 0.544790 1.191599 0.314534
v 0.544790 1.221355 0.314534
v 0.544790 0.278645 0.314534
v 0.544790 0.308401 0.314534
v 0.619512 1.191599 0.109237
v 0.619512 1.221355 0.109237
v 0.619512 0.278645 0.109237
v 0.619512 0.308401 0.109237
v 0.619512 1.191599 -0.109237
v 0.619512 1.221355 -0.109237
v 0.619512 0.278645 -0.109237
v 0.619512 0.308401 -0.109237
v 0.544790 1.191599 -0.314534
v 0.544790 1.221355 -0.314534
v 0.544790 0.278645 -0.314534
v 0.544790 0.308401 -0.314534
v 0.404358 1.191599 -0.481895
v 0.404358 1.221355 -0.481895
v 0.404358 0.278645 -0.481895
v 0.404358 0.308401 -0.481895
v 0.215154 1.191599 -0.591131
v 0.215154 1.221355 -0.591131
v 0.215154 0.278645 -0.591131
v 0.215154 0.308401 -0.591131
vt 0.994868 0.028787
vt 0.994868 0.162905
vt 0.939955 0.162905
vt 0.939955 0.028787
vt 0.885042 0.564307
vt 0.885042 0.698425
vt 0.830129 0.698425
vt 0.830129 0.564307
vt 0.775216 0.698425
vt 0.775216 0.564307
vt 0.720302 0.698425
vt 0.720302 0.564307
vt 0.665389 0.698425
vt 0.665389 0.564307
vt 0.610476 0.698425
vt 0.610476 0.564307
vt 0.555563 0.698425
vt 0.555563 0.564307
vt 0.500650 0.698425
vt 0.500650 0.564307
vt 0.445737 0.698425
vt 0.445737 0.564307
vt 0.390823 0.698425
vt 0.390823 0.564307
vt 0.335910 0.698425
vt 0.335910 0.564307
vt 0.280997 0.698425
vt 0.280997 0.564307
vt 0.226084 0.698425
vt 0.226084 0.564307
vt 0.171171 0.698425
vt 0.171171 0.564307
vt 0.116258 0.698425
vt 0.116258 0.564307
vt 0.061345 0.698425
vt 0.061345 0.564307
vt 0.253403 0.909344
vt 0.225742 0.953297
vt 0.188475 0.981985
vt 0.146097 0.991948
vt 0.103719 0.981985
vt 0.066452 0.953297
vt 0.038791 0.909344
vt 0.024073 0.855428
vt 0.024073 0.798052
vt 0.038791 0.744136
vt 0.066452 0.700183
vt 0.103719 0.671495
vt 0.146097 0.661532
vt 0.188476 0.671495
vt 0.225742 0.700183
vt 0.253403 0.744136
vt 0.268121 0.798052
vt 0.268121 0.855428
vt 0.939955 0.551637
vt 0.885042 0.551637
vt 0.885042 0.175575
vt 0.939955 0.175575
vt 0.939955 0.564307
vt 0.939955 0.698425
vt 0.061345 0.564307
vt 0.006431 0.564307
vt 0.006431 0.551637
vt 0.061344 0.551637
vt 0.116258 0.551637
vt 0.061344 0.551637
vt 0.061345 0.175575
vt 0.116258 0.175575
vt 0.171171 0.551637
vt 0.171171 0.175575
vt 0.226084 0.551637
vt 0.226084 0.175575
vt 0.280997 0.551637
vt 0.280997 0.175575
vt 0.335910 0.551637
vt 0.335910 0.175575
vt 0.390823 0.551637
vt 0.390823 0.175575
vt 0.445737 0.551637
vt 0.445736 0.175575
vt 0.500650 0.551637
vt 0.500650 0.175575
vt 0.555563 0.551637
vt 0.555563 0.175575
vt 0.610476 0.551637
vt 0.610476 0.175575
vt 0.665389 0.551637
vt 0.665389 0.175575
vt 0.720302 0.551637
vt 0.720302 0.175575
vt 0.775216 0.551637
vt 0.775216 0.175575
vt 0.830129 0.551637
vt 0.830129 0.175575
vt 0.061345 0.028787
vt 0.061345 0.162905
vt 0.006431 0.162905
vt 0.006431 0.028787
vt 0.994868 0.551637
vt 0.994868 0.175575
vt 0.116258 0.028787
vt 0.116258 0.162905
vt 0.171171 0.028787
vt 0.171171 0.162905
vt 0.226084 0.028787
vt 0.226084 0.162905
vt 0.280997 0.028787
vt 0.280997 0.162905
vt 0.335910 0.028787
vt 0.335910 0.162905
vt 0.390823 0.028787
vt 0.390823 0.162905
vt 0.445737 0.028787
vt 0.445737 0.162905
vt 0.500650 0.028787
vt 0.500650 0.162905
vt 0.555563 0.028787
vt 0.555563 0.162905
vt 0.610476 0.028787
vt 0.610476 0.162905
vt 0.665389 0.028787
vt 0.665389 0.162905
vt 0.720302 0.028787
vt 0.720302 0.162905
vt 0.775216 0.028787
vt 0.775216 0.162905
vt 0.830129 0.028787
vt 0.830129 0.162905
vt 0.885042 0.028787
vt 0.885042 0.162905
vt 0.994868 0.564307
vt 0.994868 0.698425
vt 0.006431 0.551637
vt 0.006431 0.175575
vt 0.610476 0.175575
vt 0.665389 0.175575
vt 0.885042 0.564307
vt 0.939955 0.564307
vt 0.445737 0.551637
vt 0.390823 0.551637
vt 0.116258 0.175575
vt 0.171171 0.175575
vt 0.390823 0.564307
vt 0.445737 0.564307
vt 0.665389 0.162905
vt 0.610476 0.162905
vt 0.830129 0.175575
vt 0.885042 0.175575
vt 0.665389 0.551637
vt 0.610476 0.551637
vt 0.171171 0.162905
vt 0.116258 0.162905
vt 0.335910 0.175575
vt 0.390823 0.175575
vt 0.610476 0.564307
vt 0.665389 0.564307
vt 0.885042 0.162905
vt 0.830129 0.162905
vt 0.171171 0.551637
vt 0.116258 0.551637
vt 0.885042 0.551637
vt 0.830129 0.551637
vt 0.116258 0.564307
vt 0.171171 0.564307
vt 0.390823 0.162905
vt 0.335910 0.162905
vt 0.555563 0.175575
vt 0.830129 0.564307
vt 0.335910 0.551637
vt 0.061345 0.175575
vt 0.335910 0.564307
vt 0.555563 0.162905
vt 0.775216 0.175575
vt 0.555563 0.551637
vt 0.061345 0.162905
vt 0.280997 0.175575
vt 0.555563 0.564307
vt 0.775216 0.162905
vt 0.775216 0.551637
vt 0.280997 0.162905
vt 0.500650 0.175575
vt 0.775216 0.564307
vt 0.280997 0.551637
vt 0.006431 0.175575
vt 0.006431 0.698425
vt 0.006431 0.564307
vt 0.006431 0.162905
vt 0.226084 0.564307
vt 0.226084 0.551637
vt 0.226084 0.162905
vt 0.226084 0.175575
vt 0.280997 0.564307
vt 0.445737 0.162905
vt 0.445736 0.175575
vt 0.500650 0.564307
vt 0.500650 0.551637
vt 0.500650 0.162905
vt 0.720302 0.564307
vt 0.720302 0.551637
vt 0.720302 0.162905
vt 0.720302 0.175575
vt 0.939955 0.551637
vt 0.939955 0.162905
vt 0.939955 0.175575
vt 0.994868 0.564307
vt 0.994868 0.551637
vt 0.994868 0.162905
vt 0.994868 0.175575
vn 0.1736 0.0000 -0.9848
vn 0.7660 0.0000 -0.6428
vn 0.9397 0.0000 -0.3420
vn 1.0000 0.0000 0.0000
vn 0.9397 0.0000 0.3420
vn 0.7660 0.0000 0.6428
vn 0.5000 0.0000 0.8660
vn 0.1736 0.0000 0.9848
vn -0.1736 0.0000 0.9848
vn -0.5000 0.0000 0.8660
vn -0.7660 0.0000 0.6428
vn -0.9397 0.0000 0.3420
vn -1.0000 0.0000 0.0000
vn -0.9397 0.0000 -0.3420
vn -0.7660 0.0000 -0.6428
vn -0.5000 0.0000 -0.8660
vn 0.0000 1.0000 0.0000
vn 0.5000 0.0000 -0.8660
vn -0.1736 0.0000 -0.9848
vn 0.4446 0.8143 0.3731
vn 0.3039 0.7940 -0.5264
vn -0.2902 -0.8143 0.5027
vn -0.4446 0.8143 -0.3731
vn -0.3039 0.7940 0.5264
vn 0.4657 -0.7940 0.3907
vn 0.4446 0.8143 -0.3731
vn 0.4446 -0.8143 0.3731
vn -0.4657 -0.7940 -0.3907
vn -0.4446 0.8143 0.3731
vn 0.4657 0.7940 0.3907
vn 0.4657 -0.7940 -0.3907
vn -0.4446 -0.8143 -0.3731
vn 0.4446 -0.8143 -0.3731
vn -0.4657 0.7940 -0.3907
vn -0.4657 -0.7940 0.3907
vn 0.2902 0.8143 0.5027
vn 0.4657 0.7940 -0.3907
vn -0.4446 -0.8143 0.3731
vn -0.2902 0.8143 -0.5027
vn -0.4657 0.7940 0.3907
vn 0.3039 -0.7940 0.5264
vn 0.5454 0.8143 -0.1985
vn 0.2902 -0.8143 0.5027
vn -0.3039 -0.7940 -0.5264
vn -0.5454 0.8143 0.1985
vn 0.3039 0.7940 0.5264
vn 0.5712 -0.7940 -0.2079
vn -0.2902 -0.8143 -0.5027
vn 0.5454 -0.8143 -0.1985
vn -0.3039 0.7940 -0.5264
vn -0.5712 -0.7940 0.2079
vn 0.1008 0.8143 0.5716
vn 0.5712 0.7940 -0.2079
vn -0.5454 -0.8143 0.1985
vn -0.1008 0.8143 -0.5716
vn -0.3039 -0.7940 0.5264
vn -0.5712 0.7940 -0.2079
vn 0.2902 -0.8143 -0.5027
vn -0.5454 -0.8143 -0.1985
vn 0.3039 -0.7940 -0.5264
vn 0.5712 0.7940 0.2079
vn -0.2902 0.8143 0.5027
vn -0.5712 -0.7940 -0.2079
vn 0.5454 -0.8143 0.1985
vn 0.2902 0.8143 -0.5027
vn 0.5712 -0.7940 0.2079
vn -0.1056 0.7940 0.5987
vn -0.5454 0.8143 -0.1985
vn 0.1056 0.7940 -0.5987
vn -0.1008 -0.8143 0.5716
vn 0.1008 -0.8143 -0.5716
vn 0.5454 0.8143 0.1985
vn -0.1056 -0.7940 0.5987
vn -0.6079 0.7940 0.0000
vn -0.1056 0.7940 -0.5987
vn 0.1056 -0.7940 -0.5987
vn -0.5804 -0.8143 0.0000
vn 0.1008 0.8143 -0.5716
vn 0.6079 0.7940 0.0000
vn -0.1008 0.8143 0.5716
vn -0.6079 -0.7940 0.0000
vn -0.1008 -0.8143 -0.5716
vn 0.5804 -0.8143 0.0000
vn 0.6079 -0.7940 0.0000
vn 0.1056 0.7940 0.5987
vn -0.5804 0.8143 0.0000
vn -0.1056 -0.7940 -0.5987
vn 0.1008 -0.8143 0.5716
vn 0.5804 0.8143 0.0000
vn 0.1056 -0.7940 0.5987
vn -0.5712 0.7940 0.2079
usemtl Material.001
s off
f 1/1/1 76/2/1 77/3/1 3/4/1
f 84/5/2 6/6/2 8/7/2 88/8/2
f 88/8/3 8/7/3 10/9/3 92/10/3
f 92/10/4 10/9/4 12/11/4 96/12/4
f 96/12/5 12/11/5 14/13/5 100/14/5
f 100/14/6 14/13/6 16/15/6 104/16/6
f 104/16/7 16/15/7 18/17/7 108/18/7
f 108/18/8 18/17/8 20/19/8 112/20/8
f 112/20/9 20/19/9 22/21/9 116/22/9
f 116/22/10 22/21/10 24/23/10 120/24/10
f 120/24/11 24/23/11 26/25/11 124/26/11
f 124/26/12 26/25/12 28/27/12 128/28/12
f 128/28/13 28/27/13 30/29/13 132/30/13
f 132/30/14 30/29/14 32/31/14 136/32/14
f 136/32/15 32/31/15 34/33/15 140/34/15
f 140/34/16 34/33/16 36/35/16 144/36/16
f 4/37/17 2/38/17 36/39/17 34/40/17 32/41/17 30/42/17 28/43/17 26/44/17 24/45/17 22/46/17 20/47/17 18/48/17 16/49/17 14/50/17 12/51/17 10/52/17 8/53/17 6/54/17
f 79/55/18 83/56/18 82/57/18 78/58/18
f 80/59/18 4/60/18 6/6/18 84/5/18
f 71/61/19 70/62/19 69/63/19 72/64/19
f 139/65/16 143/66/16 142/67/16 138/68/16
f 135/69/15 139/65/15 138/68/15 134/70/15
f 131/71/14 135/69/14 134/70/14 130/72/14
f 127/73/13 131/71/13 130/72/13 126/74/13
f 123/75/12 127/73/12 126/74/12 122/76/12
f 119/77/11 123/75/11 122/76/11 118/78/11
f 115/79/10 119/77/10 118/78/10 114/80/10
f 111/81/9 115/79/9 114/80/9 110/82/9
f 107/83/8 111/81/8 110/82/8 106/84/8
f 103/85/7 107/83/7 106/84/7 102/86/7
f 99/87/6 103/85/6 102/86/6 98/88/6
f 95/89/5 99/87/5 98/88/5 94/90/5
f 91/91/4 95/89/4 94/90/4 90/92/4
f 87/93/3 91/91/3 90/92/3 86/94/3
f 83/56/2 87/93/2 86/94/2 82/57/2
f 35/95/19 141/96/19 76/97/19 1/98/19
f 74/99/1 79/55/1 78/58/1 75/100/1
f 33/101/16 137/102/16 141/96/16 35/95/16
f 31/103/15 133/104/15 137/102/15 33/101/15
f 29/105/14 129/106/14 133/104/14 31/103/14
f 27/107/13 125/108/13 129/106/13 29/105/13
f 25/109/12 121/110/12 125/108/12 27/107/12
f 23/111/11 117/112/11 121/110/11 25/109/11
f 21/113/10 113/114/10 117/112/10 23/111/10
f 19/115/9 109/116/9 113/114/9 21/113/9
f 17/117/8 105/118/8 109/116/8 19/115/8
f 15/119/7 101/120/7 105/118/7 17/117/7
f 13/121/6 97/122/6 101/120/6 15/119/6
f 11/123/5 93/124/5 97/122/5 13/121/5
f 9/125/4 89/126/4 93/124/4 11/123/4
f 7/127/3 85/128/3 89/126/3 9/125/3
f 5/129/2 81/130/2 85/128/2 7/127/2
f 3/4/18 77/3/18 81/130/18 5/129/18
f 73/131/1 2/132/1 4/60/1 80/59/1
f 143/66/19 74/133/19 75/134/19 142/67/19
f 98/88/20 102/86/20 156/135/20 160/136/20
f 80/59/21 84/5/21 174/137/21 178/138/21
f 119/77/22 115/79/22 40/139/22 44/140/22
f 134/70/23 138/68/23 61/141/23 57/142/23
f 116/22/24 120/24/24 43/143/24 39/144/24
f 101/120/25 97/122/25 159/145/25 155/146/25
f 82/57/26 86/94/26 172/147/26 176/148/26
f 103/85/27 99/87/27 157/149/27 153/150/27
f 137/102/28 133/104/28 58/151/28 62/152/28
f 118/78/29 122/76/29 45/153/29 41/154/29
f 100/14/30 104/16/30 154/155/30 158/156/30
f 85/128/31 81/130/31 175/157/31 171/158/31
f 139/65/32 135/69/32 60/159/32 64/160/32
f 87/93/33 83/56/33 173/161/33 169/162/33
f 136/32/34 140/34/34 63/163/34 59/164/34
f 121/110/35 117/112/35 42/165/35 46/166/35
f 102/86/36 106/84/36 152/167/36 156/135/36
f 84/5/37 88/8/37 170/168/37 174/137/37
f 123/75/38 119/77/38 44/140/38 48/169/38
f 138/68/39 142/67/39 65/170/39 61/141/39
f 120/24/40 124/26/40 47/171/40 43/143/40
f 105/118/41 101/120/41 155/146/41 151/172/41
f 86/94/42 90/92/42 168/173/42 172/147/42
f 107/83/43 103/85/43 153/150/43 149/174/43
f 141/96/44 137/102/44 62/152/44 66/175/44
f 122/76/45 126/74/45 49/176/45 45/153/45
f 104/16/46 108/18/46 150/177/46 154/155/46
f 89/126/47 85/128/47 171/158/47 167/178/47
f 143/66/48 139/65/48 64/160/48 72/64/48
f 91/91/49 87/93/49 169/162/49 165/179/49
f 140/34/50 144/36/50 71/61/50 63/163/50
f 125/108/51 121/110/51 46/166/51 50/180/51
f 106/84/52 110/82/52 148/181/52 152/167/52
f 88/8/53 92/10/53 166/182/53 170/168/53
f 127/73/54 123/75/54 48/169/54 52/183/54
f 142/67/55 75/134/55 68/184/55 65/170/55
f 144/36/19 36/35/19 2/185/19 73/186/19
f 67/187/19 66/175/19 65/170/19 68/184/19
f 63/163/16 71/61/16 72/64/16 64/160/16
f 66/175/16 62/152/16 61/141/16 65/170/16
f 59/164/15 63/163/15 64/160/15 60/159/15
f 62/152/15 58/151/15 57/142/15 61/141/15
f 55/188/14 59/164/14 60/159/14 56/189/14
f 58/151/14 54/190/14 53/191/14 57/142/14
f 51/192/13 55/188/13 56/189/13 52/183/13
f 54/190/13 50/180/13 49/176/13 53/191/13
f 47/171/12 51/192/12 52/183/12 48/169/12
f 50/180/12 46/166/12 45/153/12 49/176/12
f 43/143/11 47/171/11 48/169/11 44/140/11
f 46/166/11 42/165/11 41/154/11 45/153/11
f 39/144/10 43/143/10 44/140/10 40/139/10
f 42/165/10 38/193/10 37/194/10 41/154/10
f 146/195/9 39/144/9 40/139/9 145/196/9
f 38/193/9 147/197/9 148/181/9 37/194/9
f 150/177/8 146/195/8 145/196/8 149/174/8
f 147/197/8 151/172/8 152/167/8 148/181/8
f 154/155/7 150/177/7 149/174/7 153/150/7
f 151/172/7 155/146/7 156/135/7 152/167/7
f 158/156/6 154/155/6 153/150/6 157/149/6
f 155/146/6 159/145/6 160/136/6 156/135/6
f 162/198/5 158/156/5 157/149/5 161/199/5
f 159/145/5 163/200/5 164/201/5 160/136/5
f 166/182/4 162/198/4 161/199/4 165/179/4
f 163/200/4 167/178/4 168/173/4 164/201/4
f 170/168/3 166/182/3 165/179/3 169/162/3
f 167/178/3 171/158/3 172/147/3 168/173/3
f 174/137/2 170/168/2 169/162/2 173/161/2
f 171/158/2 175/157/2 176/148/2 172/147/2
f 178/138/18 174/137/18 173/161/18 177/202/18
f 175/157/18 179/203/18 180/204/18 176/148/18
f 70/205/1 178/138/1 177/202/1 69/206/1
f 179/203/1 67/207/1 68/208/1 180/204/1
f 117/112/56 113/114/56 38/193/56 42/165/56
f 132/30/57 136/32/57 59/164/57 55/188/57
f 83/56/58 79/55/58 177/202/58 173/161/58
f 135/69/59 131/71/59 56/189/59 60/159/59
f 81/130/60 77/3/60 179/203/60 175/157/60
f 96/12/61 100/14/61 158/156/61 162/198/61
f 114/80/62 118/78/62 41/154/62 37/194/62
f 133/104/63 129/106/63 54/190/63 58/151/63
f 99/87/64 95/89/64 161/199/64 157/149/64
f 78/58/65 82/57/65 176/148/65 180/204/65
f 97/122/66 93/124/66 163/200/66 159/145/66
f 112/20/67 116/22/67 39/144/67 146/195/67
f 130/72/68 134/70/68 57/142/68 53/191/68
f 73/131/69 80/59/69 178/138/69 70/205/69
f 115/79/70 111/81/70 145/196/70 40/139/70
f 79/55/71 74/99/71 69/206/71 177/202/71
f 94/90/72 98/88/72 160/136/72 164/201/72
f 113/114/73 109/116/73 147/197/73 38/193/73
f 128/28/74 132/30/74 55/188/74 51/192/74
f 144/36/75 73/186/75 70/62/75 71/61/75
f 77/3/76 76/2/76 67/207/76 179/203/76
f 131/71/77 127/73/77 52/183/77 56/189/77
f 75/100/78 78/58/78 180/204/78 68/208/78
f 92/10/79 96/12/79 162/198/79 166/182/79
f 110/82/80 114/80/80 37/194/80 148/181/80
f 129/106/81 125/108/81 50/180/81 54/190/81
f 74/133/82 143/66/82 72/64/82 69/63/82
f 95/89/83 91/91/83 165/179/83 161/199/83
f 93/124/84 89/126/84 167/178/84 163/200/84
f 108/18/85 112/20/85 146/195/85 150/177/85
f 126/74/86 130/72/86 53/191/86 49/176/86
f 76/97/87 141/96/87 66/175/87 67/187/87
f 111/81/88 107/83/88 149/174/88 145/196/88
f 90/92/89 94/90/89 164/201/89 168/173/89
f 109/116/90 105/118/90 151/172/90 147/197/90
f 124/26/91 128/28/91 51/192/91 47/171/91
