# Blender v2.92.0 OBJ File: 'house1.blend'
# www.blender.org
mtllib house1.mtl
o House_Cube
v 3.000000 1.811008 -0.865911
v 3.000000 0.000000 -3.000000
v 3.000000 1.811008 0.865911
v 3.000000 0.000000 3.000000
v -0.172439 2.317190 -3.000000
v -2.000000 0.000000 -3.000000
v -2.000000 3.500000 3.000000
v -2.000000 0.000000 3.000000
v 1.172440 2.317190 -3.000000
v 3.000000 3.500000 3.000000
v 3.000000 0.000000 -0.865911
v 3.000000 0.000000 0.865911
v 2.700000 1.811008 -0.865911
v 2.700000 1.811008 0.865911
v 2.700000 0.000000 -0.865911
v 2.700000 0.000000 0.865911
v 3.000000 2.359621 0.000000
v 2.700000 2.359621 0.000000
v 3.000000 2.277798 0.562842
v 2.700000 2.277798 0.562842
v 3.000000 2.277798 -0.562842
v 2.700000 2.277798 -0.562842
v 3.726540 2.474196 1.008000
v 2.960496 1.831408 1.008000
v 2.960496 1.831408 -1.032000
v 3.726540 2.474196 -1.032000
v 2.967832 1.822666 -1.023708
v 3.733876 2.465453 -1.023708
v 2.965030 1.826005 -1.010292
v 3.731074 2.468792 -1.010292
v 2.955962 1.836811 -1.010292
v 3.722006 2.479599 -1.010292
v 2.953160 1.840151 -1.023708
v 3.719204 2.482938 -1.023708
v 2.967832 1.822666 1.016292
v 3.733876 2.465453 1.016292
v 2.965030 1.826005 1.029708
v 3.731074 2.468792 1.029708
v 2.955962 1.836811 1.029708
v 3.722006 2.479599 1.029708
v 2.953160 1.840151 1.016292
v 3.719204 2.482938 1.016292
v 2.997769 2.656981 0.960795
v 3.727350 2.476594 1.017883
v 2.997769 2.663861 -1.042168
v 3.730601 2.479924 -1.016200
v 3.163093 2.539765 0.965354
v 3.362674 2.436344 0.976091
v 3.548168 2.423772 0.988596
v 3.551336 2.427839 -1.014368
v 3.362868 2.438795 -1.026873
v 3.163234 2.544232 -1.037610
v 3.019000 2.528105 -0.520941
v 3.040051 2.449195 -0.000225
v 3.019444 2.518749 0.480524
v 3.670549 2.291125 0.530662
v 3.676519 2.186468 0.067615
v 3.668357 2.230302 -0.471762
v 3.176552 2.402240 0.487524
v 3.186015 2.324911 -0.000468
v 3.175700 2.410266 -0.512242
v 3.343330 2.296792 0.502063
v 3.341750 2.208906 0.011159
v 3.342745 2.281693 -0.496124
v 3.501810 2.260196 0.520601
v 3.504070 2.156000 0.043255
v 3.500245 2.212037 -0.479729
v 1.172440 1.113274 -3.000000
v 3.000000 3.500000 -3.000000
v -0.172439 1.113274 -3.000000
v -2.000000 3.500000 -3.000000
v 1.172440 1.113274 -2.826268
v -0.172439 1.113274 -2.826268
v 1.172440 2.317190 -2.826268
v -0.172439 2.317190 -2.826268
v 2.997769 2.656981 0.960795
v 3.727350 2.476594 1.017883
v 2.997769 2.663861 -1.042168
v 3.730601 2.479924 -1.016200
v 3.163093 2.539765 0.965354
v 3.362674 2.436344 0.976091
v 3.548168 2.423772 0.988596
v 3.551336 2.427839 -1.014368
v 3.362868 2.438795 -1.026873
v 3.163234 2.544232 -1.037610
v 3.019000 2.528105 -0.520941
v 3.040051 2.449195 -0.000225
v 3.019444 2.518749 0.480524
v 3.670549 2.291125 0.530662
v 3.676519 2.186468 0.067615
v 3.668357 2.230302 -0.471762
v 3.176552 2.402240 0.487524
v 3.186015 2.324911 -0.000468
v 3.175700 2.410266 -0.512242
v 3.343330 2.296792 0.502063
v 3.341750 2.208906 0.011159
v 3.342745 2.281693 -0.496124
v 3.501810 2.260196 0.520601
v 3.504070 2.156000 0.043255
v 3.500245 2.212037 -0.479729
vt 0.555485 0.684391
vt 0.077328 0.684391
vt 0.077328 0.206234
vt 0.555485 0.206234
vt 0.626846 0.007556
vt 0.626846 0.695569
vt 0.010704 0.695569
vt 0.010704 0.007556
vt 0.628015 0.011820
vt 0.628015 0.675681
vt 0.010069 0.675680
vt 0.010069 0.011819
vt 0.040831 0.526636
vt 0.040831 0.663801
vt 0.018109 0.663801
vt 0.018109 0.526636
vt 0.530355 0.613909
vt 0.538466 0.370673
vt 0.575908 0.318906
vt 0.575908 0.649201
vt 0.410978 0.353961
vt 0.410978 0.013141
vt 0.634427 0.013141
vt 0.634427 0.671818
vt 0.229647 0.013142
vt 0.229647 0.353961
vt 0.006198 0.671818
vt 0.006198 0.013142
vt 0.261380 0.441808
vt 0.320313 0.457206
vt 0.379245 0.441808
vt 0.040831 0.484484
vt 0.018109 0.484484
vt 0.040831 0.219012
vt 0.040831 0.356176
vt 0.018109 0.356176
vt 0.018109 0.219012
vt 0.667319 0.327404
vt 0.987250 0.327404
vt 0.987250 0.845226
vt 0.931262 0.978696
vt 0.827284 1.002092
vt 0.723307 0.978696
vt 0.667319 0.845226
vt 0.040831 0.398329
vt 0.040831 0.441406
vt 0.018109 0.441406
vt 0.018109 0.398329
vt 0.389070 0.929882
vt 0.387796 0.987613
vt 0.288409 0.988791
vt 0.295134 0.926112
vt 0.811759 0.156719
vt 0.748455 0.202712
vt 0.685151 0.156719
vt 0.709331 0.082300
vt 0.787579 0.082300
vt 0.996255 0.009053
vt 0.996255 0.295657
vt 0.928589 0.295657
vt 0.928589 0.009053
vt 0.860924 0.009053
vt 0.860924 0.295657
vt 0.793259 0.295657
vt 0.793259 0.009053
vt 0.860924 0.295657
vt 0.860924 0.009053
vt 0.725593 0.009053
vt 0.725593 0.295657
vt 0.657928 0.295657
vt 0.657928 0.009053
vt 0.928589 0.009053
vt 0.928589 0.295657
vt 0.793259 0.295657
vt 0.793259 0.009053
vt 0.811759 0.156719
vt 0.748455 0.202712
vt 0.685151 0.156719
vt 0.709331 0.082300
vt 0.787579 0.082300
vt 0.996255 0.009053
vt 0.996255 0.295657
vt 0.725593 0.295657
vt 0.725593 0.009053
vt 0.887125 0.202712
vt 0.950430 0.156719
vt 0.926250 0.082300
vt 0.848001 0.082300
vt 0.823821 0.156719
vt 0.657928 0.295657
vt 0.657928 0.009053
vt 0.887125 0.202712
vt 0.950430 0.156719
vt 0.926250 0.082300
vt 0.848001 0.082300
vt 0.823821 0.156719
vt 0.378191 0.735219
vt 0.381172 0.801965
vt 0.292579 0.783280
vt 0.289766 0.713195
vt 0.385697 0.872535
vt 0.295652 0.860871
vt 0.625233 0.859900
vt 0.629724 0.923475
vt 0.548596 0.925181
vt 0.544897 0.870339
vt 0.471444 0.936656
vt 0.466286 0.880694
vt 0.624574 0.782649
vt 0.543881 0.803721
vt 0.464556 0.816518
vt 0.625733 0.713195
vt 0.544259 0.737064
vt 0.464616 0.751557
vt 0.640101 0.984590
vt 0.553848 0.982354
vt 0.476226 0.994997
vt 0.402812 0.229039
vt 0.237813 0.229039
vt 0.013595 0.017502
vt 0.627030 0.017502
vt 0.237813 0.457799
vt 0.013595 0.682549
vt 0.402812 0.457799
vt 0.627030 0.682549
vt 0.002902 0.996850
vt 0.002902 0.710414
vt 0.269248 0.710413
vt 0.269248 0.996850
vt 0.315215 0.386091
vt 0.269662 0.350799
vt 0.307104 0.629327
vt 0.269662 0.681094
vt 0.387339 0.929380
vt 0.293403 0.925610
vt 0.286678 0.988289
vt 0.386064 0.987111
vt 0.376459 0.734717
vt 0.288034 0.712693
vt 0.290847 0.782778
vt 0.379441 0.801462
vt 0.293920 0.860369
vt 0.383966 0.872033
vt 0.623502 0.859398
vt 0.543166 0.869836
vt 0.546865 0.924679
vt 0.627993 0.922972
vt 0.464555 0.880191
vt 0.469713 0.936154
vt 0.622842 0.782146
vt 0.542150 0.803219
vt 0.462824 0.816016
vt 0.624002 0.712693
vt 0.542527 0.736562
vt 0.462885 0.751055
vt 0.552117 0.981852
vt 0.638370 0.984088
vt 0.474494 0.994495
vn 0.0000 1.0000 0.0000
vn 0.0000 0.0000 1.0000
vn -1.0000 0.0000 0.0000
vn 0.0000 0.0000 -1.0000
vn 0.0000 -1.0000 0.0000
vn 1.0000 0.0000 0.0000
vn 0.0000 -0.5446 -0.8387
vn 0.0000 -0.9896 0.1439
vn 0.0000 -0.5446 0.8387
vn 0.0000 -0.9896 -0.1439
vn -0.1906 0.9085 0.3718
vn 0.7660 0.6428 0.0000
vn 0.3778 -0.4503 -0.8090
vn 0.6113 -0.7286 0.3090
vn -0.3778 0.4503 -0.8090
vn -0.6113 0.7286 0.3090
vn -0.7661 -0.6428 -0.0000
vn 0.5780 0.7945 0.1862
vn 0.5112 0.8276 0.2318
vn 0.1871 0.9232 0.3356
vn 0.1620 0.9360 -0.3125
vn 0.2912 0.9384 -0.1860
vn 0.3401 0.9332 0.1158
vn 0.4928 0.8346 -0.2460
vn 0.5683 0.8121 -0.1325
vn 0.5932 0.7963 0.1182
vn 0.5792 0.7888 -0.2058
vn 0.6204 0.7781 -0.0987
vn 0.6194 0.7780 0.1050
vn -0.1875 0.9290 -0.3192
vn -0.1518 0.9646 -0.2156
vn -0.1498 0.9842 0.0942
vn 0.1906 -0.9085 -0.3718
vn -0.5780 -0.7945 -0.1862
vn -0.5112 -0.8276 -0.2318
vn -0.1871 -0.9232 -0.3356
vn -0.1620 -0.9360 0.3125
vn -0.2912 -0.9384 0.1860
vn -0.3401 -0.9332 -0.1158
vn -0.4928 -0.8346 0.2460
vn -0.5683 -0.8121 0.1325
vn -0.5932 -0.7963 -0.1182
vn -0.5792 -0.7888 0.2058
vn -0.6204 -0.7781 0.0987
vn -0.6194 -0.7780 -0.1050
vn 0.1875 -0.9290 0.3192
vn 0.1518 -0.9646 0.2156
vn 0.1498 -0.9842 -0.0942
usemtl Material
s off
f 69/1/1 71/2/1 7/3/1 10/4/1
f 4/5/2 10/6/2 7/7/2 8/8/2
f 8/9/3 7/10/3 71/11/3 6/12/3
f 3/13/4 12/14/4 16/15/4 14/16/4
f 5/17/5 9/18/5 74/19/5 75/20/5
f 1/21/6 11/22/6 2/23/6 69/24/6
f 12/25/6 3/26/6 10/27/6 4/28/6
f 3/26/6 19/29/6 17/30/6 21/31/6 1/21/6 69/24/6 10/27/6
f 19/32/7 3/13/7 14/16/7 20/33/7
f 11/34/2 1/35/2 13/36/2 15/37/2
f 16/38/6 15/39/6 13/40/6 22/41/6 18/42/6 20/43/6 14/44/6
f 21/45/8 17/46/8 18/47/8 22/48/8
f 1/35/9 21/45/9 22/48/9 13/36/9
f 17/46/10 19/32/10 20/33/10 18/47/10
f 67/49/11 58/50/11 46/51/11 50/52/11
f 36/53/12 23/54/12 42/55/12 40/56/12 38/57/12
f 25/58/13 26/59/13 28/60/13 27/61/13
f 37/62/2 38/63/2 40/64/2 39/65/2
f 27/61/14 28/60/14 30/66/14 29/67/14
f 41/68/15 42/69/15 23/70/15 24/71/15
f 35/72/14 36/73/14 38/63/14 37/62/14
f 29/67/2 30/66/2 32/74/2 31/75/2
f 28/76/12 26/77/12 34/78/12 32/79/12 30/80/12
f 24/81/13 23/82/13 36/73/13 35/72/13
f 31/75/16 32/74/16 34/83/16 33/84/16
f 24/85/17 35/86/17 37/87/17 39/88/17 41/89/17
f 39/65/16 40/64/16 42/69/16 41/68/16
f 33/84/15 34/83/15 26/90/15 25/91/15
f 25/92/17 27/93/17 29/94/17 31/95/17 33/96/17
f 53/97/18 61/98/18 52/99/18 45/100/18
f 61/98/19 64/101/19 51/102/19 52/99/19
f 64/101/20 67/49/20 50/52/20 51/102/20
f 48/103/21 49/104/21 65/105/21 62/106/21
f 62/106/22 65/105/22 66/107/22 63/108/22
f 63/108/23 66/107/23 67/49/23 64/101/23
f 47/109/24 48/103/24 62/106/24 59/110/24
f 59/110/25 62/106/25 63/108/25 60/111/25
f 60/111/26 63/108/26 64/101/26 61/98/26
f 43/112/27 47/109/27 59/110/27 55/113/27
f 55/113/28 59/110/28 60/111/28 54/114/28
f 54/114/29 60/111/29 61/98/29 53/97/29
f 49/104/30 44/115/30 56/116/30 65/105/30
f 65/105/31 56/116/31 57/117/31 66/107/31
f 66/107/32 57/117/32 58/50/32 67/49/32
f 70/118/4 68/119/4 2/120/4 6/121/4
f 68/119/4 9/122/4 69/123/4 2/120/4
f 5/124/4 70/118/4 6/121/4 71/125/4
f 9/122/4 5/124/4 71/125/4 69/123/4
f 73/126/4 75/127/4 74/128/4 72/129/4
f 9/18/3 68/130/3 72/131/3 74/19/3
f 68/130/1 70/132/1 73/133/1 72/131/1
f 70/132/6 5/17/6 75/20/6 73/133/6
f 100/134/33 83/135/33 79/136/33 91/137/33
f 86/138/34 78/139/34 85/140/34 94/141/34
f 94/141/35 85/140/35 84/142/35 97/143/35
f 97/143/36 84/142/36 83/135/36 100/134/36
f 81/144/37 95/145/37 98/146/37 82/147/37
f 95/145/38 96/148/38 99/149/38 98/146/38
f 96/148/39 97/143/39 100/134/39 99/149/39
f 80/150/40 92/151/40 95/145/40 81/144/40
f 92/151/41 93/152/41 96/148/41 95/145/41
f 93/152/42 94/141/42 97/143/42 96/148/42
f 76/153/43 88/154/43 92/151/43 80/150/43
f 88/154/44 87/155/44 93/152/44 92/151/44
f 87/155/45 86/138/45 94/141/45 93/152/45
f 82/147/46 98/146/46 89/156/46 77/157/46
f 98/146/47 99/149/47 90/158/47 89/156/47
f 99/149/48 100/134/48 91/137/48 90/158/48
