# Blender v2.92.0 OBJ File: 'Humvee5.blend'
# www.blender.org
mtllib Humvee5.mtl
o Humvee_Cube.001
v -2.172932 0.476704 1.000000
v -2.172932 1.190629 1.000000
v 0.982824 0.476704 1.000000
v 0.973064 1.169821 1.000000
v -0.692367 0.476704 1.000000
v -0.786400 1.834613 1.000000
v 0.770285 0.476704 1.000000
v 0.770285 1.834613 1.000000
v -2.067823 1.318994 1.000000
v -2.067823 0.476704 1.000000
v 1.829520 0.476704 1.000000
v 1.829520 1.103973 1.000000
v 1.422570 0.476704 1.000000
v 1.422570 1.169127 1.000000
v 2.090619 0.476704 1.000000
v 2.090619 1.008263 1.000000
v -0.924223 1.166531 1.000000
v 0.770285 1.166531 1.000000
v -2.067823 1.167022 1.000000
v 1.829520 1.024713 0.677998
v 2.090620 0.929003 0.609107
v 1.829520 0.476704 0.666165
v 1.422570 1.115932 0.782402
v 2.090619 0.476704 0.596154
v 1.829520 1.103973 0.742252
v 2.362530 0.615893 0.508664
v 2.090619 1.008263 0.675663
v 1.422570 1.165328 0.834628
v 2.362530 0.453685 0.508664
v 2.246337 0.615894 0.508664
v 2.246337 0.453685 0.508664
v 2.246337 0.480275 0.425281
v 2.246337 0.589303 0.425281
v 2.053694 0.480275 0.425281
v 2.053694 0.589303 0.425281
v 0.973064 1.169821 0.902628
v -2.172932 0.476704 -1.000000
v -2.172932 1.190629 -1.000000
v 0.982824 0.476704 -1.000000
v 0.973064 1.169821 -1.000000
v -0.692367 0.476704 -1.000000
v -0.786400 1.834613 -1.000000
v 0.770285 0.476704 -1.000000
v 0.770285 1.834613 -1.000000
v -2.067823 1.318994 -1.000000
v -2.067823 0.476704 -1.000000
v 1.829520 0.476704 -1.000000
v 1.829520 1.103973 -1.000000
v 1.422570 0.476704 -1.000000
v 1.422570 1.169127 -1.000000
v 2.090619 0.476704 -1.000000
v 2.090619 1.008263 -1.000000
v -0.924223 1.166531 -1.000000
v 0.770285 1.166531 -1.000000
v -2.067823 1.167022 -1.000000
v -2.172932 0.476704 0.000000
v -2.172932 1.190629 0.000000
v 0.982824 0.476704 0.000000
v 0.973064 1.169821 0.000000
v -0.786400 1.834613 0.000000
v -0.692367 0.476704 0.000000
v 0.770285 1.834613 0.000000
v 0.770285 0.476704 0.000000
v -2.067823 0.476704 0.000000
v -2.067823 1.318994 0.000000
v 1.829520 0.476704 0.000000
v 1.829520 1.019938 0.000000
v 1.418174 1.111157 0.000000
v 1.422013 0.476704 0.000000
v 2.090619 0.476704 0.000000
v 2.090620 0.924228 0.000000
v 1.829520 1.024713 -0.677998
v 2.090620 0.929003 -0.609107
v 1.829520 0.476704 -0.666165
v 1.422570 1.115932 -0.782402
v 2.090619 0.476704 -0.596154
v 1.829520 1.103973 -0.742252
v 2.362530 0.615893 0.000000
v 2.362530 0.615893 -0.508664
v 2.090619 1.008263 -0.675663
v 2.362530 0.453685 0.000000
v 1.422570 1.165328 -0.834628
v 2.362530 0.453685 -0.508664
v 2.246337 0.615893 0.000000
v 2.246337 0.615894 -0.508664
v 2.246337 0.453685 0.000000
v 2.246337 0.453685 -0.508664
v 2.246337 0.480275 -0.425281
v 2.246337 0.480275 0.000000
v 2.246337 0.589303 -0.425281
v 2.246337 0.589303 0.000000
v 2.053694 0.480275 -0.425281
v 2.053694 0.480275 0.000000
v 2.053694 0.589303 -0.425281
v 2.053694 0.589303 0.000000
v 0.973064 1.169821 -0.902628
vt 0.371322 0.492853
vt 0.371322 0.508472
vt 0.356486 0.495280
vt 0.270648 0.825430
vt 0.286274 0.768538
vt 0.296486 0.768162
vt 0.284834 0.824027
vt 0.303031 0.706370
vt 0.375000 0.625000
vt 0.375000 0.725434
vt 0.375000 0.725434
vt 0.375000 0.625000
vt 0.173545 0.100057
vt 0.171517 0.137925
vt 0.110302 0.145117
vt 0.110302 0.100057
vt 0.371322 0.399228
vt 0.356486 0.399228
vt 0.906922 0.067663
vt 0.906922 0.143942
vt 0.780027 0.143942
vt 0.780027 0.067663
vt 0.375000 0.725434
vt 0.375000 0.625000
vt 0.375000 0.625000
vt 0.375000 0.725434
vt 0.375000 0.725434
vt 0.375000 0.625000
vt 0.375000 0.625000
vt 0.375000 0.725434
vt 0.375000 0.750000
vt 0.375000 0.750000
vt 0.254650 0.100057
vt 0.254650 0.137492
vt 0.174811 0.823301
vt 0.259392 0.863337
vt 0.173726 0.861254
vt 0.176535 0.705741
vt 0.175978 0.766442
vt 0.195443 0.516025
vt 0.195443 0.368443
vt 0.322337 0.368443
vt 0.322337 0.516025
vt 0.125000 0.625000
vt 0.146487 0.625000
vt 0.146487 0.725434
vt 0.125000 0.725434
vt 0.250000 0.625000
vt 0.312500 0.625000
vt 0.312500 0.725434
vt 0.250000 0.725434
vt 0.253675 0.157548
vt 0.253675 0.213333
vt 0.119681 0.213333
vt 0.119681 0.157548
vt 0.142263 0.157548
vt 0.182231 0.501426
vt 0.182231 0.694753
vt 0.038756 0.694753
vt 0.038756 0.501426
vt 0.195443 0.350717
vt 0.322337 0.350717
vt 0.319772 0.767335
vt 0.321044 0.824028
vt 0.625000 0.725434
vt 0.625000 0.750000
vt 0.625000 0.725434
vt 0.320264 0.862771
vt 0.273716 0.861388
vt 0.256695 0.091166
vt 0.256695 0.069718
vt 0.212089 0.069718
vt 0.212089 0.091166
vt 0.161094 0.145117
vt 0.211182 0.000104
vt 0.315278 0.197642
vt 0.227540 0.335588
vt 0.000104 0.125284
vt 0.999896 0.211879
vt 0.993499 0.359201
vt 0.500000 0.725434
vt 0.500000 0.625000
vt 0.500000 0.625000
vt 0.500000 0.725434
vt 0.375000 0.725434
vt 0.375000 0.625000
vt 0.000104 0.359410
vt 0.164457 0.359410
vt 0.164457 0.603922
vt 0.000104 0.603922
vt 0.805538 0.359410
vt 0.805538 0.603922
vt 0.375000 0.725434
vt 0.375000 0.625000
vt 0.316780 0.705741
vt 0.371322 0.492853
vt 0.356486 0.495280
vt 0.371322 0.508472
vt 0.270648 0.825430
vt 0.284834 0.824027
vt 0.296486 0.768162
vt 0.286274 0.768538
vt 0.303031 0.706370
vt 0.375000 0.725434
vt 0.375000 0.725434
vt 0.173545 0.100057
vt 0.110302 0.100057
vt 0.110302 0.145117
vt 0.171517 0.137925
vt 0.371322 0.399228
vt 0.356486 0.399228
vt 0.906922 0.067663
vt 0.906922 0.143942
vt 0.375000 0.725434
vt 0.375000 0.725434
vt 0.375000 0.725434
vt 0.375000 0.725434
vt 0.375000 0.750000
vt 0.375000 0.750000
vt 0.259392 0.863337
vt 0.322337 0.516025
vt 0.322337 0.368443
vt 0.125000 0.725434
vt 0.146487 0.725434
vt 0.250000 0.725434
vt 0.312500 0.725434
vt 0.142263 0.157548
vt 0.119681 0.157548
vt 0.119681 0.213333
vt 0.038756 0.501426
vt 0.038756 0.694753
vt 0.322337 0.350717
vt 0.321044 0.824028
vt 0.319772 0.767335
vt 0.625000 0.725434
vt 0.625000 0.725434
vt 0.625000 0.750000
vt 0.273716 0.861388
vt 0.320264 0.862771
vt 0.212089 0.091166
vt 0.212089 0.069718
vt 0.161094 0.145117
vt 0.211182 0.000104
vt 0.000104 0.125284
vt 0.227540 0.335588
vt 0.315278 0.197642
vt 0.500000 0.725434
vt 0.500000 0.725434
vt 0.375000 0.725434
vt 0.000104 0.359410
vt 0.000104 0.603922
vt 0.164457 0.603922
vt 0.164457 0.359410
vt 0.375000 0.725434
vt 0.316780 0.705741
vt 0.771904 0.492803
vt 0.771904 0.553905
vt 0.552187 0.553905
vt 0.532734 0.492803
vt 0.800525 0.493141
vt 0.921409 0.486374
vt 0.921409 0.399228
vt 0.967239 0.399228
vt 0.967239 0.476537
vt 0.863970 0.493070
vt 0.863970 0.399228
vt 0.801902 0.399228
vt 0.565459 0.399228
vt 0.771904 0.399228
vt 0.771904 0.492803
vt 0.532734 0.492803
vt 0.552187 0.553905
vt 0.771904 0.553905
vt 0.800525 0.493141
vt 0.921409 0.486374
vt 0.967239 0.476537
vt 0.967239 0.399228
vt 0.921409 0.399228
vt 0.863970 0.493070
vt 0.863970 0.399228
vt 0.801902 0.399228
vt 0.565459 0.399228
vt 0.771904 0.399228
vn 0.0000 0.0000 1.0000
vn -0.0533 0.6702 -0.7403
vn -0.0962 0.7231 -0.6840
vn 0.0000 -1.0000 0.0000
vn 1.0000 -0.0000 0.0000
vn -1.0000 0.0000 0.0000
vn 0.3434 0.9392 -0.0070
vn 0.1244 0.9922 -0.0031
vn 0.2167 0.9762 -0.0070
vn -0.3733 0.9277 0.0000
vn 0.9565 0.2918 0.0000
vn 0.0000 1.0000 0.0000
vn -0.7737 0.6335 0.0000
vn 0.1526 0.9882 -0.0089
vn 0.3442 0.9389 0.0000
vn 0.0332 0.6361 -0.7709
vn 0.0047 0.9999 -0.0145
vn 0.0000 0.0000 -1.0000
vn -0.0533 0.6702 0.7403
vn -0.0962 0.7231 0.6840
vn 0.3434 0.9392 0.0070
vn 0.1244 0.9922 0.0031
vn 0.2167 0.9762 0.0070
vn 0.1526 0.9882 0.0089
vn 0.0332 0.6361 0.7709
vn 0.0047 0.9999 0.0145
vn 0.4785 0.6462 0.5945
vn -0.1417 0.7317 0.6667
vn 0.2979 0.4003 0.8666
vn -0.4472 0.6088 0.6552
vn 0.1820 0.7060 0.6845
vn 0.0000 -0.7071 0.7071
vn 0.5773 -0.5773 0.5773
vn 0.6570 0.4589 0.5981
vn 0.0069 0.7268 0.6868
vn -0.1417 0.7317 -0.6667
vn 0.4785 0.6462 -0.5945
vn 0.2979 0.4003 -0.8666
vn -0.4472 0.6088 -0.6552
vn 0.1820 0.7060 -0.6845
vn 0.6570 0.4589 -0.5981
vn 0.5773 -0.5773 -0.5773
vn 0.0000 -0.7071 -0.7071
vn 0.0069 0.7268 -0.6868
usemtl HumveeMaterial
s off
f 19/1/1 9/2/1 2/3/1
f 20/4/2 23/5/2 28/6/2 25/7/2
f 23/5/3 36/8/3 28/6/3
f 81/9/4 29/10/4 31/11/4 86/12/4
f 24/13/5 21/14/5 16/15/5 15/16/5
f 10/17/1 19/1/1 2/3/1 1/18/1
f 1/19/6 2/20/6 57/21/6 56/22/6
f 22/23/4 66/24/4 70/25/4 24/26/4
f 3/27/4 58/28/4 69/29/4 13/30/4
f 13/30/4 69/29/4 66/24/4 22/23/4
f 13/30/4 22/23/4 11/31/4
f 11/31/4 22/23/4 24/26/4 15/32/4
f 70/33/5 71/34/5 21/14/5 24/13/5
f 67/35/7 20/4/7 21/36/7 71/37/7
f 59/38/8 36/8/8 23/5/8 68/39/8
f 68/39/9 23/5/9 20/4/9 67/35/9
f 60/40/10 65/41/10 9/42/10 6/43/10
f 56/44/4 64/45/4 10/46/4 1/47/4
f 61/48/4 63/49/4 7/50/4 5/51/4
f 59/52/11 62/53/11 8/54/11 4/55/11 36/56/11
f 64/45/4 61/48/4 5/51/4 10/46/4
f 62/57/12 60/58/12 6/59/12 8/60/12
f 65/41/13 57/61/13 2/62/13 9/42/13
f 63/49/4 58/28/4 3/27/4 7/50/4
f 28/6/14 14/63/14 12/64/14 25/7/14
f 23/65/6 14/66/6 28/67/6
f 25/7/15 12/64/15 16/68/15 27/69/15
f 21/36/16 20/4/16 25/7/16 27/69/16
f 81/70/5 78/71/5 26/72/5 29/73/5
f 16/15/5 21/14/5 27/74/5
f 29/75/1 26/76/1 30/77/1 31/78/1
f 26/76/12 78/79/12 84/80/12 30/77/12
f 30/81/6 84/82/6 91/83/6 33/84/6
f 31/11/6 30/81/6 33/84/6 32/85/6
f 86/12/6 31/11/6 32/85/6 89/86/6
f 32/87/1 33/88/1 35/89/1 34/90/1
f 33/88/12 91/91/12 95/92/12 35/89/12
f 89/86/4 32/85/4 34/93/4 93/94/4
f 14/63/17 28/6/17 36/8/17 4/95/17
f 55/96/18 38/97/18 45/98/18
f 72/99/19 77/100/19 82/101/19 75/102/19
f 75/102/20 82/101/20 96/103/20
f 81/9/4 86/12/4 87/104/4 83/105/4
f 76/106/5 51/107/5 52/108/5 73/109/5
f 46/110/18 37/111/18 38/97/18 55/96/18
f 37/112/6 56/22/6 57/21/6 38/113/6
f 74/114/4 76/115/4 70/25/4 66/24/4
f 39/116/4 49/117/4 69/29/4 58/28/4
f 49/117/4 74/114/4 66/24/4 69/29/4
f 49/117/4 47/118/4 74/114/4
f 47/118/4 51/119/4 76/115/4 74/114/4
f 70/33/5 76/106/5 73/109/5 71/34/5
f 67/35/21 71/37/21 73/120/21 72/99/21
f 59/38/22 68/39/22 75/102/22 96/103/22
f 68/39/23 67/35/23 72/99/23 75/102/23
f 60/40/10 42/121/10 45/122/10 65/41/10
f 56/44/4 37/123/4 46/124/4 64/45/4
f 61/48/4 41/125/4 43/126/4 63/49/4
f 59/52/11 96/127/11 40/128/11 44/129/11 62/53/11
f 64/45/4 46/124/4 41/125/4 61/48/4
f 62/57/12 44/130/12 42/131/12 60/58/12
f 65/41/13 45/122/13 38/132/13 57/61/13
f 63/49/4 43/126/4 39/116/4 58/28/4
f 82/101/24 77/100/24 48/133/24 50/134/24
f 75/135/6 82/136/6 50/137/6
f 77/100/15 80/138/15 52/139/15 48/133/15
f 73/120/25 80/138/25 77/100/25 72/99/25
f 81/70/5 83/140/5 79/141/5 78/71/5
f 52/108/5 80/142/5 73/109/5
f 83/143/18 87/144/18 85/145/18 79/146/18
f 79/146/12 85/145/12 84/80/12 78/79/12
f 85/147/6 90/148/6 91/83/6 84/82/6
f 87/104/6 88/149/6 90/148/6 85/147/6
f 86/12/6 89/86/6 88/149/6 87/104/6
f 88/150/18 92/151/18 94/152/18 90/153/18
f 90/153/12 94/152/12 95/92/12 91/91/12
f 89/86/4 93/94/4 92/154/4 88/149/4
f 50/134/26 40/155/26 96/103/26 82/101/26
s 1
f 18/156/1 8/157/27 6/158/28 17/159/1
f 4/160/29 8/157/27 18/156/1
f 17/159/1 6/158/28 9/2/30 19/1/1
f 12/161/31 11/162/32 15/163/33 16/164/34
f 14/165/35 13/166/32 11/162/32 12/161/31
f 4/160/29 3/167/32 13/166/32 14/165/35
f 5/168/32 17/159/1 19/1/1 10/17/32
f 3/167/32 4/160/29 18/156/1 7/169/32
f 7/169/32 18/156/1 17/159/1 5/168/32
f 54/170/18 53/171/18 42/172/36 44/173/37
f 40/174/38 54/170/18 44/173/37
f 53/171/18 55/96/18 45/98/39 42/172/36
f 48/175/40 52/176/41 51/177/42 47/178/43
f 50/179/44 48/175/40 47/178/43 49/180/43
f 40/174/38 50/179/44 49/180/43 39/181/43
f 41/182/43 46/110/43 55/96/18 53/171/18
f 39/181/43 43/183/43 54/170/18 40/174/38
f 43/183/43 41/182/43 53/171/18 54/170/18
o WheelFR_Cylinder.001
v 1.656270 0.900000 0.710000
v 1.656270 0.900000 1.010000
v 1.881270 0.839711 0.710000
v 1.881270 0.839711 1.010000
v 2.045981 0.675000 0.710000
v 2.045981 0.675000 1.010000
v 2.106270 0.450000 0.710000
v 2.106270 0.450000 1.010000
v 2.045981 0.225000 0.710000
v 2.045981 0.225000 1.010000
v 1.881270 0.060289 0.710000
v 1.881270 0.060289 1.010000
v 1.656270 0.000000 0.710000
v 1.656270 0.000000 1.010000
v 1.431270 0.060289 0.710000
v 1.431270 0.060289 1.010000
v 1.266559 0.225000 0.710000
v 1.266559 0.225000 1.010000
v 1.206270 0.450000 0.710000
v 1.206270 0.450000 1.010000
v 1.266558 0.675000 0.710000
v 1.266558 0.675000 1.010000
v 1.431270 0.839711 0.710000
v 1.431270 0.839711 1.010000
vt 0.148396 0.098676
vt 0.112190 0.098676
vt 0.112190 0.084156
vt 0.148396 0.084156
vt 0.112190 0.069636
vt 0.148396 0.069636
vt 0.112190 0.055115
vt 0.148396 0.055115
vt 0.112190 0.040595
vt 0.148396 0.040595
vt 0.112190 0.026075
vt 0.148396 0.026075
vt 0.112190 0.011554
vt 0.148396 0.011554
vt 0.112190 0.011554
vt 0.148396 0.011554
vt 0.148396 0.026075
vt 0.112190 0.026075
vt 0.148396 0.040595
vt 0.112190 0.040595
vt 0.148396 0.055115
vt 0.112190 0.055115
vt 0.148396 0.069636
vt 0.112190 0.069636
vt 0.414060 0.437802
vt 0.397826 0.414126
vt 0.397826 0.386788
vt 0.414060 0.363112
vt 0.442179 0.349443
vt 0.474648 0.349443
vt 0.502766 0.363112
vt 0.519001 0.386788
vt 0.519001 0.414126
vt 0.502766 0.437802
vt 0.474648 0.451472
vt 0.442179 0.451472
vt 0.148396 0.084156
vt 0.112190 0.084156
vt 0.148396 0.098676
vt 0.112190 0.098676
vt 0.518390 0.414422
vt 0.502155 0.438098
vt 0.474037 0.451767
vt 0.441568 0.451767
vt 0.413449 0.438098
vt 0.397215 0.414422
vt 0.397215 0.387083
vt 0.413449 0.363408
vt 0.441568 0.349738
vt 0.474037 0.349738
vt 0.502155 0.363408
vt 0.518390 0.387084
vn 0.2588 0.9659 0.0000
vn 0.7071 0.7071 0.0000
vn 0.9659 0.2588 0.0000
vn 0.9659 -0.2588 0.0000
vn 0.7071 -0.7071 0.0000
vn 0.2588 -0.9659 0.0000
vn -0.2588 -0.9659 0.0000
vn -0.7071 -0.7071 0.0000
vn -0.9659 -0.2588 0.0000
vn -0.9659 0.2588 0.0000
vn 0.0000 0.0000 1.0000
vn -0.7071 0.7071 0.0000
vn -0.2588 0.9659 0.0000
vn 0.0000 0.0000 -1.0000
usemtl HumveeMaterial
s off
f 97/184/45 98/185/45 100/186/45 99/187/45
f 99/187/46 100/186/46 102/188/46 101/189/46
f 101/189/47 102/188/47 104/190/47 103/191/47
f 103/191/48 104/190/48 106/192/48 105/193/48
f 105/193/49 106/192/49 108/194/49 107/195/49
f 107/195/50 108/194/50 110/196/50 109/197/50
f 109/198/51 110/199/51 112/200/51 111/201/51
f 111/201/52 112/200/52 114/202/52 113/203/52
f 113/203/53 114/202/53 116/204/53 115/205/53
f 115/205/54 116/204/54 118/206/54 117/207/54
f 100/208/55 98/209/55 120/210/55 118/211/55 116/212/55 114/213/55 112/214/55 110/215/55 108/216/55 106/217/55 104/218/55 102/219/55
f 117/207/56 118/206/56 120/220/56 119/221/56
f 119/221/57 120/220/57 98/222/57 97/223/57
f 97/224/58 99/225/58 101/226/58 103/227/58 105/228/58 107/229/58 109/230/58 111/231/58 113/232/58 115/233/58 117/234/58 119/235/58
o Gun_Cylinder.003
v 0.000000 1.830000 -0.420000
v 0.000000 1.930000 -0.420000
v 0.210000 1.830000 -0.363731
v 0.210000 1.930000 -0.363731
v 0.363731 1.830000 -0.210000
v 0.363731 1.930000 -0.210000
v 0.420000 1.830000 0.000000
v 0.420000 1.930000 0.000000
v 0.363731 1.830000 0.210000
v 0.363731 1.930000 0.210000
v 0.210000 1.830000 0.363731
v 0.210000 1.930000 0.363731
v 0.000000 1.830000 0.420000
v 0.000000 1.930000 0.420000
v -0.210000 1.830000 0.363731
v -0.210000 1.930000 0.363731
v -0.363731 1.830000 0.210000
v -0.363731 1.930000 0.210000
v -0.420000 1.830000 0.000000
v -0.420000 1.930000 0.000000
v -0.363731 1.830000 -0.210000
v -0.363731 1.930000 -0.210000
v -0.210000 1.830000 -0.363731
v -0.210000 1.930000 -0.363731
v 0.441330 1.927588 0.089360
v 0.496398 2.224527 0.059736
v 0.441330 1.927590 -0.089360
v 0.496398 2.224527 -0.059736
v 0.441330 1.837387 0.089360
v 0.546637 2.224527 0.059736
v 0.441329 1.837389 -0.089360
v 0.546637 2.224527 -0.059736
v 0.496398 2.001333 0.059736
v 0.496398 2.001333 -0.059736
v 0.546637 1.976636 -0.059736
v 0.546637 1.976636 0.059736
v 0.384461 1.927590 0.104023
v 0.384461 1.927590 -0.104023
v 0.384461 1.837387 0.104023
v 0.384460 1.837387 -0.104023
vt 0.204074 0.634556
vt 0.176366 0.640830
vt 0.148658 0.634556
vt 0.128374 0.617415
vt 0.120950 0.594000
vt 0.128374 0.570585
vt 0.148658 0.553444
vt 0.176366 0.547170
vt 0.204074 0.553444
vt 0.224358 0.570585
vt 0.231782 0.594000
vt 0.224358 0.617415
vt 0.674204 0.565159
vt 0.686107 0.565159
vt 0.686107 0.584236
vt 0.674204 0.584236
vt 0.686107 0.603313
vt 0.674204 0.603313
vt 0.686107 0.622391
vt 0.674204 0.622391
vt 0.686107 0.641468
vt 0.674204 0.641468
vt 0.667030 0.622391
vt 0.667030 0.641468
vt 0.667030 0.603313
vt 0.667030 0.584236
vt 0.667030 0.565159
vt 0.674208 0.615212
vt 0.674208 0.619932
vt 0.674208 0.619932
vt 0.674208 0.615212
vt 0.674208 0.605772
vt 0.674208 0.610492
vt 0.674208 0.610492
vt 0.674208 0.605772
vt 0.667030 0.584236
vt 0.667030 0.565159
vt 0.662915 0.557446
vt 0.662915 0.564791
vt 0.656462 0.564791
vt 0.656462 0.557446
vt 0.650009 0.564791
vt 0.650009 0.557446
vt 0.643556 0.564791
vt 0.643556 0.557446
vt 0.637103 0.564791
vt 0.637103 0.557446
vt 0.630650 0.564791
vt 0.630650 0.557446
vt 0.624197 0.564791
vt 0.624197 0.557446
vt 0.617743 0.564791
vt 0.617743 0.557446
vt 0.611290 0.564791
vt 0.611290 0.557446
vt 0.604837 0.564791
vt 0.604837 0.557446
vt 0.598384 0.564791
vt 0.598384 0.557446
vt 0.591931 0.564791
vt 0.591931 0.557446
vt 0.585478 0.564791
vt 0.585478 0.557446
vn 0.0000 1.0000 0.0000
vn -1.0000 0.0000 0.0000
vn 0.0000 0.0000 -1.0000
vn 1.0000 0.0000 0.0000
vn 0.0000 0.0000 1.0000
vn 0.2265 0.0990 0.9690
vn 0.7976 -0.6032 -0.0000
vn 0.2265 0.0990 -0.9690
vn -0.8012 0.5983 0.0000
vn 0.2497 -0.0000 0.9683
vn 0.2497 -0.0000 -0.9683
vn 0.0000 -1.0000 -0.0000
vn 0.0000 0.6532 -0.7571
vn 0.3786 0.6532 -0.6557
vn 0.5000 0.0000 -0.8660
vn 0.6557 0.6532 -0.3786
vn 0.8660 0.0000 -0.5000
vn 0.7571 0.6532 0.0000
vn 0.6557 0.6532 0.3786
vn 0.8660 0.0000 0.5000
vn 0.3786 0.6532 0.6557
vn 0.5000 0.0000 0.8660
vn 0.0000 0.6532 0.7571
vn -0.3786 0.6532 0.6557
vn -0.5000 0.0000 0.8660
vn -0.6557 0.6532 0.3786
vn -0.8660 0.0000 0.5000
vn -0.7571 0.6532 0.0000
vn -0.6557 0.6532 -0.3786
vn -0.8660 0.0000 -0.5000
vn -0.3786 0.6532 -0.6557
vn -0.5000 0.0000 -0.8660
usemtl HumveeMaterial
s off
f 124/236/59 122/237/59 144/238/59 142/239/59 140/240/59 138/241/59 136/242/59 134/243/59 132/244/59 130/245/59 128/246/59 126/247/59
f 153/248/60 146/249/60 148/250/60 154/251/60
f 154/251/61 148/250/61 152/252/61 155/253/61
f 155/253/62 152/252/62 150/254/62 156/255/62
f 156/255/63 150/254/63 146/256/63 153/257/63
f 149/258/64 156/255/64 153/257/64 145/259/64
f 151/260/65 155/253/65 156/255/65 149/258/65
f 147/261/66 154/251/66 155/253/66 151/260/66
f 145/262/67 153/248/67 154/251/67 147/261/67
f 149/263/68 145/264/68 157/265/68 159/266/68
f 147/267/69 151/268/69 160/269/69 158/270/69
f 145/262/59 147/261/59 158/271/59 157/272/59
f 151/268/70 149/263/70 159/266/70 160/269/70
s 1
f 121/273/61 122/274/71 124/275/72 123/276/73
f 123/276/73 124/275/72 126/277/74 125/278/75
f 125/278/75 126/277/74 128/279/76 127/280/62
f 127/280/62 128/279/76 130/281/77 129/282/78
f 129/282/78 130/281/77 132/283/79 131/284/80
f 131/284/80 132/283/79 134/285/81 133/286/63
f 133/286/63 134/285/81 136/287/82 135/288/83
f 135/288/83 136/287/82 138/289/84 137/290/85
f 137/290/85 138/289/84 140/291/86 139/292/60
f 139/292/60 140/291/86 142/293/87 141/294/88
f 141/294/88 142/293/87 144/295/89 143/296/90
f 143/296/90 144/295/89 122/297/71 121/298/61
o M2Browning_Cube.002
v 0.163988 2.150018 -0.032372
v 0.163988 2.315396 -0.032372
v 0.163988 2.150018 0.032372
v 0.163988 2.315396 0.032372
v 0.835610 2.150018 -0.045904
v 0.835610 2.315394 -0.045904
v 0.835610 2.150018 0.045904
v 0.835610 2.315394 0.045904
v 0.443443 2.150018 0.051918
v 0.443443 2.315396 0.051918
v 0.443443 2.150018 -0.051918
v 0.443443 2.315394 -0.051918
v 1.081831 2.253146 -0.019581
v 1.454562 2.253146 -0.010824
v 1.081831 2.239300 -0.013846
v 1.454562 2.245492 -0.007654
v 1.081831 2.233565 0.000000
v 1.454562 2.242322 0.000000
v 1.081831 2.239300 0.013846
v 1.454562 2.245492 0.007654
v 1.081831 2.253146 0.019581
v 1.454562 2.253146 0.010824
v 1.081831 2.266991 0.013846
v 1.454562 2.260799 0.007654
v 1.081831 2.272726 -0.000000
v 1.454562 2.263969 -0.000000
v 1.081831 2.266991 -0.013846
v 1.454562 2.260799 -0.007654
v 0.822353 2.253146 -0.044439
v 1.089308 2.253146 -0.029195
v 0.822353 2.221722 -0.031423
v 1.089308 2.232502 -0.020644
v 0.822353 2.208706 0.000000
v 1.089308 2.223951 0.000000
v 0.822353 2.221722 0.031423
v 1.089308 2.232502 0.020644
v 0.822353 2.253146 0.044439
v 1.089308 2.253146 0.029195
v 0.822353 2.284569 0.031423
v 1.089308 2.273790 0.020644
v 0.822353 2.297585 -0.000000
v 1.089308 2.282341 -0.000000
v 0.822353 2.284569 -0.031423
v 1.089308 2.273790 -0.020644
v 0.647535 2.101164 -0.074087
v 0.647535 2.261164 -0.074087
v 0.647535 2.101164 -0.308404
v 0.647535 2.261164 -0.182090
v 0.785230 2.101164 -0.074087
v 0.785230 2.261164 -0.074087
v 0.785230 2.101164 -0.308404
v 0.785230 2.261164 -0.182090
v 0.647535 2.203772 -0.074087
v 0.647535 2.203772 -0.308404
v 0.785230 2.203772 -0.308404
v 0.785230 2.203772 -0.074087
v 1.418169 2.253146 -0.019681
v 1.522508 2.253146 -0.028696
v 1.418169 2.239229 -0.013917
v 1.522508 2.232854 -0.020291
v 1.418169 2.233465 0.000000
v 1.522508 2.224450 0.000000
v 1.418169 2.239229 0.013917
v 1.522508 2.232854 0.020291
v 1.418169 2.253146 0.019681
v 1.522508 2.253146 0.028696
v 1.418169 2.267062 0.013917
v 1.522508 2.273437 0.020291
v 1.418169 2.272827 -0.000000
v 1.522508 2.281842 -0.000000
v 1.418169 2.267062 -0.013917
v 1.522508 2.273437 -0.020291
v 0.822687 2.183146 -0.010000
v 1.179161 2.183146 -0.010000
v 0.822687 2.176075 -0.007071
v 1.179161 2.176075 -0.007071
v 0.822687 2.173146 0.000000
v 1.179161 2.173146 0.000000
v 0.822687 2.176075 0.007071
v 1.179161 2.176075 0.007071
v 0.822687 2.183146 0.010000
v 1.179161 2.183146 0.010000
v 0.822687 2.190217 0.007071
v 1.179161 2.190217 0.007071
v 0.822687 2.193146 -0.000000
v 1.179161 2.193146 -0.000000
v 0.822687 2.190217 -0.007071
v 1.179161 2.190217 -0.007071
v 0.219467 2.045159 0.021604
v 0.219467 2.045159 -0.021604
v 0.282909 2.015576 0.021604
v 0.344494 2.115235 0.018663
v 0.282909 2.015576 -0.021604
v 0.342002 2.105894 0.017159
v 0.226094 2.028172 -0.015955
v 0.226094 2.028172 0.015955
v 0.282904 1.992433 -0.018777
v 0.282904 1.992433 0.018777
v 0.250018 2.153586 0.028691
v 0.250018 2.153586 -0.028691
v 0.323453 2.153096 -0.024552
v 0.323453 2.153096 0.024552
v 0.320898 2.115819 0.017159
v 0.323391 2.125159 0.017221
v 0.323391 2.125159 -0.017221
v 0.320898 2.115819 -0.017159
v 1.159428 2.170281 -0.012208
v 0.344494 2.115235 -0.018663
v 0.342002 2.105894 -0.017159
v 0.373372 2.115085 -0.018663
v 0.373372 2.115085 0.018663
v 0.376797 2.106045 -0.017159
v 0.376797 2.106045 0.017159
v 0.386838 2.127825 -0.018663
v 0.386838 2.127825 0.018663
v 0.395743 2.124061 -0.017159
v 0.395743 2.124061 0.017159
v 0.386458 2.153259 -0.018663
v 0.386458 2.153259 0.018663
v 0.396123 2.153028 -0.017159
v 0.396123 2.153028 0.017159
v 0.344612 2.153096 -0.013092
v 0.344612 2.153096 0.013092
v 0.348628 2.135033 0.008516
v 0.348628 2.135033 -0.008516
v 0.357858 2.124730 0.003986
v 0.357858 2.124730 -0.003986
v 0.355497 2.122584 0.003247
v 0.355497 2.122584 -0.003247
v 0.340042 2.130526 0.006317
v 0.340042 2.130526 -0.006317
v 0.326949 2.152420 0.013879
v 0.326949 2.152420 -0.013879
v 0.265739 2.142673 0.018644
v 0.266942 2.132738 0.017318
v 0.266942 2.132738 -0.017318
v 0.265739 2.142673 -0.018644
v 1.159428 2.182490 -0.017265
v 1.159428 2.165225 0.000000
v 1.159428 2.170281 0.012208
v 1.159428 2.182490 0.017265
v 1.143732 2.165225 0.000000
v 1.143732 2.170281 -0.012208
v 1.143732 2.170281 0.012208
v 1.159428 2.257485 -0.025033
v 1.159428 2.257485 0.025033
v 1.159428 2.275186 0.017701
v 1.159428 2.282518 -0.000000
v 1.159428 2.275186 -0.017701
v 1.143732 2.182490 -0.017265
v 1.143732 2.182490 0.017265
v 1.143732 2.257485 0.025033
v 1.143732 2.257485 -0.025033
v 1.143732 2.275186 0.017701
v 1.143732 2.282518 -0.000000
v 1.143732 2.275186 -0.017701
v 1.456906 2.253146 0.000000
v 0.308338 2.353058 0.012192
v 0.315126 2.353058 0.012192
v 0.315126 2.353058 -0.012192
v 0.363627 2.334053 -0.012192
v 0.363627 2.334053 0.012192
v 0.315126 2.334053 -0.012192
v 0.315126 2.334053 0.012192
v 0.308338 2.353058 -0.012192
v 0.308338 2.312306 0.012192
v 0.308338 2.312305 -0.012192
v 0.363627 2.312306 -0.012192
v 0.363627 2.312306 0.012192
v 0.808614 2.343145 -0.020000
v 0.828614 2.343145 -0.020000
v 0.808614 2.329003 -0.014142
v 0.828614 2.329003 -0.014142
v 0.808614 2.323145 0.000000
v 0.828614 2.323145 0.000000
v 0.808614 2.329003 0.014142
v 0.828614 2.329003 0.014142
v 0.808614 2.343145 0.020000
v 0.828614 2.343145 0.020000
v 0.808614 2.357287 0.014142
v 0.828614 2.357287 0.014142
v 0.808614 2.363145 -0.000000
v 0.828614 2.363145 -0.000000
v 0.808614 2.357287 -0.014142
v 0.828614 2.357287 -0.014142
v 0.828614 2.312310 -0.014142
v 0.808614 2.312306 -0.014142
v 0.808614 2.312306 0.000000
v 0.828614 2.312310 0.000000
v 0.808614 2.312310 0.014142
v 0.828614 2.312310 0.014142
v 0.656011 2.210913 -0.074087
v 0.656011 2.254022 -0.074087
v 0.776755 2.254022 -0.074087
v 0.776755 2.210913 -0.074087
v 0.656011 2.210913 -0.041549
v 0.656011 2.254022 -0.041549
v 0.776755 2.254022 -0.041549
v 0.776755 2.210913 -0.041549
v 0.110835 2.328395 -0.022830
v 0.110835 2.328395 0.022830
v 0.134095 2.328395 0.025837
v 0.134095 2.328394 -0.025837
v 0.107263 2.328395 -0.053773
v 0.107263 2.328395 0.053773
v 0.124736 2.328395 0.068022
v 0.124736 2.328393 -0.068022
v 0.094782 2.328395 -0.064970
v 0.094782 2.328395 0.064970
v 0.102866 2.328395 0.087758
v 0.102866 2.328393 -0.087758
v 0.171533 2.328395 0.025837
v 0.171533 2.328394 -0.025837
v 0.179317 2.328394 0.020626
v 0.179317 2.328394 -0.020626
v 0.081751 2.328395 -0.068897
v 0.081750 2.328395 0.068897
v 0.087910 2.328395 0.092140
v 0.087910 2.328393 -0.092140
v 0.075429 2.328395 -0.079231
v 0.075429 2.328395 0.079231
v 0.078082 2.328395 0.087880
v 0.078082 2.328393 -0.087880
v 0.110835 2.313454 -0.022830
v 0.110835 2.313454 0.022830
v 0.134095 2.313454 0.025837
v 0.134095 2.313453 -0.025837
v 0.107263 2.313454 -0.053773
v 0.107263 2.313454 0.053773
v 0.124736 2.313454 0.068022
v 0.124736 2.313452 -0.068022
v 0.094782 2.313454 -0.064970
v 0.094782 2.313454 0.064970
v 0.102866 2.313454 0.087758
v 0.102866 2.313452 -0.087758
v 0.171533 2.313454 0.025837
v 0.171533 2.313453 -0.025837
v 0.179317 2.313453 0.020626
v 0.179317 2.313453 -0.020626
v 0.081751 2.313454 -0.068897
v 0.081750 2.313454 0.068897
v 0.087910 2.313454 0.092140
v 0.087910 2.313452 -0.092140
v 0.075429 2.313454 -0.079231
v 0.075429 2.313454 0.079231
v 0.078082 2.313454 0.087880
v 0.078082 2.313452 -0.087880
v 0.110835 2.150934 -0.022830
v 0.110835 2.150934 0.022830
v 0.134095 2.150933 0.025837
v 0.134095 2.150932 -0.025837
v 0.107263 2.150933 -0.053773
v 0.107263 2.150933 0.053773
v 0.124736 2.150933 0.068022
v 0.124736 2.150932 -0.068022
v 0.094782 2.150933 -0.064970
v 0.094782 2.150933 0.064970
v 0.102866 2.150933 0.087758
v 0.102866 2.150932 -0.087758
v 0.171533 2.150933 0.025837
v 0.171533 2.150932 -0.025837
v 0.179317 2.150933 0.020626
v 0.179317 2.150932 -0.020626
v 0.081751 2.150933 -0.068897
v 0.081750 2.150934 0.068897
v 0.087910 2.150934 0.092140
v 0.087910 2.150932 -0.092140
v 0.075429 2.150933 -0.079231
v 0.075429 2.150934 0.079231
v 0.078082 2.150934 0.087880
v 0.078082 2.150932 -0.087880
v 0.110835 2.135993 -0.022830
v 0.110835 2.135993 0.022830
v 0.134095 2.135992 0.025837
v 0.134095 2.135991 -0.025837
v 0.107263 2.135992 -0.053773
v 0.107263 2.135992 0.053773
v 0.124736 2.135992 0.068022
v 0.124736 2.135991 -0.068022
v 0.094782 2.135992 -0.064970
v 0.094782 2.135992 0.064970
v 0.102866 2.135992 0.087758
v 0.102866 2.135991 -0.087758
v 0.171533 2.135992 0.025837
v 0.171533 2.135991 -0.025837
v 0.179317 2.135992 0.020626
v 0.179317 2.135991 -0.020626
v 0.081751 2.135992 -0.068897
v 0.081750 2.135993 0.068897
v 0.087910 2.135993 0.092140
v 0.087910 2.135991 -0.092140
v 0.075429 2.135992 -0.079231
v 0.075429 2.135993 0.079231
v 0.078082 2.135993 0.087880
v 0.078082 2.135991 -0.087880
v 0.089375 2.148989 0.059946
v 0.089375 2.315408 0.059946
v 0.103517 2.148989 0.065804
v 0.103517 2.315408 0.065804
v 0.109375 2.148989 0.079946
v 0.109375 2.315408 0.079946
v 0.103517 2.148989 0.094088
v 0.103517 2.315408 0.094088
v 0.089375 2.148989 0.099946
v 0.089375 2.315408 0.099946
v 0.075233 2.148989 0.094088
v 0.075233 2.315408 0.094088
v 0.069375 2.148989 0.079946
v 0.069375 2.315408 0.079946
v 0.075233 2.148989 0.065804
v 0.075233 2.315408 0.065804
v 0.089375 2.148989 -0.099946
v 0.089375 2.315408 -0.099946
v 0.103517 2.148989 -0.094088
v 0.103517 2.315408 -0.094088
v 0.109375 2.148989 -0.079946
v 0.109375 2.315408 -0.079946
v 0.103517 2.148989 -0.065804
v 0.103517 2.315408 -0.065804
v 0.089375 2.148989 -0.059946
v 0.089375 2.315408 -0.059946
v 0.075233 2.148989 -0.065804
v 0.075233 2.315408 -0.065804
v 0.069375 2.148989 -0.079946
v 0.069375 2.315408 -0.079946
v 0.075233 2.148989 -0.094088
v 0.075233 2.315408 -0.094088
vt 0.375000 0.000000
vt 0.375000 0.250000
vt 0.625000 0.250000
vt 0.625000 0.000000
vt 0.635022 0.601218
vt 0.687156 0.601218
vt 0.687156 0.619727
vt 0.635022 0.619727
vt 0.415605 0.880352
vt 0.415605 0.999723
vt 0.160231 0.999724
vt 0.160231 0.880352
vt 0.718215 0.936464
vt 0.753775 0.936464
vt 0.753775 0.954140
vt 0.718215 0.954140
vt 0.312500 0.500000
vt 0.312500 0.750000
vt 0.375000 0.750000
vt 0.375000 0.500000
vt 0.231822 0.605047
vt 0.214640 0.605047
vt 0.217874 0.566111
vt 0.228587 0.566111
vt 0.125000 0.500000
vt 0.125000 0.750000
vt 0.250000 0.750000
vt 0.250000 0.500000
vt 0.597785 0.601218
vt 0.597785 0.619727
vt 0.668429 0.936464
vt 0.668429 0.954140
vt 0.230827 0.659688
vt 0.215635 0.659688
vt 0.726865 0.745544
vt 0.702514 0.725667
vt 0.790740 0.669550
vt 0.438270 0.173477
vt 0.416158 0.139802
vt 0.428802 0.102826
vt 0.468796 0.084207
vt 0.503213 0.104903
vt 0.509277 0.129853
vt 0.510697 0.155571
vt 0.482185 0.184123
vt 0.641789 0.912555
vt 0.641789 0.919001
vt 0.621587 0.919001
vt 0.597960 0.912555
vt 0.629674 0.917289
vt 0.613462 0.917289
vt 0.613462 0.903741
vt 0.629674 0.903741
vt 0.597668 0.912401
vt 0.621294 0.918847
vt 0.641496 0.918847
vt 0.641496 0.912401
vt 0.625000 0.750000
vt 0.875000 0.750000
vt 0.875000 0.750000
vt 0.625000 0.750000
vt 0.596987 0.919735
vt 0.596987 0.902397
vt 0.644106 0.902397
vt 0.644106 0.919735
vt 0.600841 0.917289
vt 0.600841 0.903741
vt 0.292694 0.657357
vt 0.292694 0.504818
vt 0.535806 0.504818
vt 0.535806 0.657357
vt 0.597668 0.900876
vt 0.641496 0.900876
vt 0.641663 0.917289
vt 0.641663 0.903741
vt 0.641789 0.901030
vt 0.597960 0.901030
vt 0.790740 0.762650
vt 0.757226 0.758270
vt 0.750000 0.490000
vt 0.919706 0.419706
vt 0.990000 0.250000
vt 0.919706 0.080294
vt 0.750000 0.010000
vt 0.580294 0.080294
vt 0.510000 0.250000
vt 0.580294 0.419706
vt 0.424543 0.663257
vt 0.416158 0.649260
vt 0.424400 0.635221
vt 0.442018 0.630201
vt 0.452528 0.639716
vt 0.452551 0.649083
vt 0.452667 0.658458
vt 0.442226 0.668162
vt 0.375000 1.000000
vt 0.500000 1.000000
vt 0.375000 1.000000
vt 0.625000 0.250000
vt 0.625000 0.000000
vt 0.625000 0.000000
vt 0.625000 0.250000
vt 0.625000 0.500000
vt 0.625000 0.750000
vt 0.625000 0.750000
vt 0.625000 0.500000
vt 0.375000 0.000000
vt 0.601264 0.000000
vt 0.601264 0.250000
vt 0.375000 0.250000
vt 0.625000 0.284471
vt 0.609673 0.500000
vt 0.375000 0.500000
vt 0.422338 0.593775
vt 0.490365 0.595158
vt 0.482978 0.625621
vt 0.425384 0.623376
vt 0.625000 0.500000
vt 0.125000 0.500000
vt 0.375000 0.500000
vt 0.375000 0.750000
vt 0.125000 0.750000
vt 0.558952 0.353907
vt 0.572334 0.250455
vt 0.594042 0.272163
vt 0.594042 0.372029
vt 0.375000 0.250000
vt 0.375000 0.000000
vt 0.426536 0.454394
vt 0.478491 0.453405
vt 0.372666 0.324959
vt 0.356281 0.320930
vt 0.382445 0.234082
vt 0.396491 0.243323
vt 0.374146 0.202719
vt 0.312474 0.298949
vt 0.368530 0.359452
vt 0.351915 0.355470
vt 0.478753 0.441087
vt 0.426634 0.440445
vt 0.416158 0.404712
vt 0.490465 0.405627
vt 0.480420 0.470828
vt 0.423935 0.470133
vt 0.625000 0.499333
vt 0.625000 0.499333
vt 0.609673 0.750000
vt 0.609673 0.500000
vt 0.609673 0.750000
vt 0.326151 0.392517
vt 0.336990 0.403843
vt 0.292694 0.414777
vt 0.294766 0.400337
vt 0.625000 0.499333
vt 0.609673 0.500000
vt 0.609673 0.750000
vt 0.644947 0.723675
vt 0.643424 0.711808
vt 0.685911 0.714867
vt 0.684628 0.727769
vt 0.625000 0.750000
vt 0.625000 0.500000
vt 0.607130 0.722214
vt 0.596094 0.674892
vt 0.640479 0.669550
vt 0.625000 0.499333
vt 0.688428 0.794551
vt 0.688428 0.772404
vt 0.717003 0.766455
vt 0.717003 0.800501
vt 0.625000 0.750000
vt 0.625000 0.500000
vt 0.685911 0.669550
vt 0.625000 0.499333
vt 0.667068 0.788660
vt 0.667068 0.778295
vt 0.625000 0.500000
vt 0.625000 0.750000
vt 0.625000 0.750000
vt 0.625000 0.500000
vt 0.625000 0.750000
vt 0.625000 0.500000
vt 0.625000 0.750000
vt 0.625000 0.500000
vt 0.670098 0.670253
vt 0.697633 0.657827
vt 0.697632 0.697383
vt 0.680077 0.697317
vt 0.681508 0.719827
vt 0.675891 0.718667
vt 0.625000 0.500000
vt 0.625000 0.500000
vt 0.625000 0.500000
vt 0.719719 0.570929
vt 0.737644 0.478844
vt 0.792476 0.480182
vt 0.792476 0.583427
vt 0.744758 0.462376
vt 0.764567 0.455119
vt 0.784686 0.462784
vt 0.721291 0.591275
vt 0.772936 0.604629
vt 0.741313 0.607988
vt 0.250000 0.010000
vt 0.250000 0.490000
vt 0.250000 0.490000
vt 0.250000 0.010000
vt 0.419706 0.080294
vt 0.419706 0.419706
vt 0.490000 0.250000
vt 0.080294 0.080294
vt 0.010000 0.250000
vt 0.080294 0.419706
vt 0.997634 0.870130
vt 0.997634 0.913354
vt 0.955578 0.913354
vt 0.955578 0.870130
vt 0.419706 0.419706
vt 0.490000 0.250000
vt 0.997634 0.670226
vt 0.997634 0.700037
vt 0.955578 0.700037
vt 0.955578 0.670226
vt 0.997634 0.956578
vt 0.955578 0.956578
vt 0.250000 0.490000
vt 0.250000 0.490000
vt 0.997634 0.640415
vt 0.955578 0.640415
vt 0.010000 0.250000
vt 0.080294 0.419706
vt 0.625000 1.000000
vt 0.750000 1.000000
vt 0.625000 1.000000
vt 0.250000 1.000000
vt 0.250000 1.000000
vt 0.500000 1.000000
vt 0.686463 0.700511
vt 0.820642 0.773143
vt 0.820642 0.741438
vt 0.854223 0.741438
vt 0.854223 0.773143
vt 0.750000 0.500000
vt 0.750000 0.750000
vt 0.750000 0.750000
vt 0.750000 0.500000
vt 0.750000 0.500000
vt 0.750000 0.750000
vt 0.820642 0.678375
vt 0.820642 0.710080
vt 0.791293 0.710080
vt 0.791293 0.678375
vt 0.687500 0.500000
vt 0.687500 0.750000
vt 0.750000 0.750000
vt 0.750000 0.500000
vt 0.687500 0.750000
vt 0.628068 0.414777
vt 0.628068 0.342673
vt 0.594513 0.342673
vt 0.594513 0.332583
vt 0.666464 0.332583
vt 0.666464 0.414777
vt 1.000000 0.500000
vt 1.000000 1.000000
vt 0.875000 1.000000
vt 0.875000 0.500000
vt 0.629824 0.227535
vt 0.594513 0.227535
vt 0.594513 0.202719
vt 0.629824 0.202719
vt 0.990000 0.250000
vt 0.919706 0.419706
vt 0.919706 0.419706
vt 0.990000 0.250000
vt 0.629824 0.250291
vt 0.594513 0.250291
vt 0.629824 0.273048
vt 0.594513 0.273048
vt 0.629824 0.295804
vt 0.594513 0.295804
vt 0.587467 0.822996
vt 0.581493 0.801759
vt 0.596728 0.784087
vt 0.622342 0.780661
vt 0.638147 0.794711
vt 0.638532 0.810190
vt 0.631438 0.827089
vt 0.608729 0.833976
vt 0.250000 0.500000
vt 0.250000 1.000000
vt 0.125000 1.000000
vt 0.125000 0.500000
vt 0.000000 1.000000
vt 0.000000 0.500000
vt 0.750000 0.490000
vt 0.919706 0.080294
vt 0.750000 0.010000
vt 0.580294 0.080294
vt 0.510000 0.250000
vt 0.580294 0.419706
vt 0.535325 1.000000
vt 0.535325 0.750000
vt 0.535325 0.750000
vt 0.535325 1.000000
vt 0.625000 0.750000
vt 0.535325 0.750000
vt 0.919706 0.080294
vt 0.606887 0.848094
vt 0.584071 0.845858
vt 0.875000 1.000000
vt 0.875000 0.500000
vt 0.628807 0.849582
vt 0.625000 0.000000
vt 0.535325 0.000000
vt 0.535325 0.000000
vt 0.625000 0.000000
vt 0.625000 1.000000
vt 0.535325 1.000000
vt 0.535325 0.000000
vt 0.625000 0.000000
vt 0.875000 0.750000
vt 0.750000 0.500000
vt 0.750000 0.750000
vt 0.875000 0.750000
vt 0.875000 0.500000
vt 0.875000 0.500000
vt 0.750000 0.500000
vt 0.750000 0.750000
vt 0.875000 0.750000
vt 0.875000 0.500000
vt 0.750000 0.500000
vt 0.750000 0.750000
vt 0.875000 0.750000
vt 0.750000 0.500000
vt 0.750000 0.750000
vt 0.750000 0.500000
vt 0.750000 0.750000
vt 0.875000 0.500000
vt 0.750000 0.500000
vt 0.750000 0.750000
vt 0.875000 0.750000
vt 0.875000 0.500000
vt 0.750000 0.500000
vt 0.750000 0.750000
vt 0.875000 0.750000
vt 0.750000 0.750000
vt 0.750000 0.750000
vt 0.875000 0.750000
vt 0.875000 0.750000
vt 0.875000 0.500000
vt 0.875000 0.500000
vt 0.653088 0.702721
vt 0.586990 0.702721
vt 0.586990 0.680509
vt 0.653088 0.680509
vt 0.750000 0.750000
vt 0.750000 0.750000
vt 0.875000 0.750000
vt 0.854777 0.898792
vt 0.854776 0.845157
vt 0.877848 0.845157
vt 0.877848 0.898792
vt 0.721498 0.331891
vt 0.721498 0.375684
vt 0.695118 0.375684
vt 0.695118 0.331891
vt 0.750000 0.750000
vt 0.750000 0.750000
vt 0.875000 0.500000
vt 0.854776 0.784300
vt 0.854776 0.728116
vt 0.877848 0.728116
vt 0.877848 0.784300
vt 0.669628 0.702720
vt 0.669628 0.680509
vt 0.875000 0.750000
vt 0.875000 0.500000
vt 0.750000 0.500000
vt 0.875000 0.500000
vt 0.875000 0.750000
vt 0.750000 0.750000
vt 0.721498 0.398853
vt 0.721498 0.414777
vt 0.695118 0.414777
vt 0.695118 0.398853
vt 0.750000 0.500000
vt 0.750000 0.500000
vt 0.750000 0.500000
vt 0.750000 0.500000
vt 0.750000 0.500000
vt 0.750000 0.500000
vt 0.750000 0.500000
vt 0.750000 0.750000
vt 0.875000 0.750000
vt 0.875000 0.500000
vt 0.875000 0.500000
vt 0.750000 0.500000
vt 0.750000 0.750000
vt 0.875000 0.750000
vt 0.875000 0.500000
vt 0.750000 0.500000
vt 0.750000 0.750000
vt 0.875000 0.750000
vt 0.750000 0.500000
vt 0.750000 0.750000
vt 0.750000 0.500000
vt 0.750000 0.750000
vt 0.875000 0.500000
vt 0.750000 0.500000
vt 0.750000 0.750000
vt 0.875000 0.750000
vt 0.875000 0.500000
vt 0.750000 0.500000
vt 0.750000 0.750000
vt 0.875000 0.750000
vt 0.750000 0.750000
vt 0.750000 0.750000
vt 0.875000 0.750000
vt 0.875000 0.750000
vt 0.875000 0.500000
vt 0.875000 0.500000
vt 0.653088 0.680039
vt 0.586990 0.680039
vt 0.586990 0.657827
vt 0.653088 0.657827
vt 0.750000 0.750000
vt 0.750000 0.750000
vt 0.875000 0.750000
vt 0.878402 0.898792
vt 0.878401 0.845157
vt 0.901473 0.845157
vt 0.901474 0.898792
vt 0.656674 0.202719
vt 0.656674 0.246512
vt 0.630295 0.246512
vt 0.630295 0.202719
vt 0.750000 0.750000
vt 0.750000 0.750000
vt 0.875000 0.500000
vt 0.878402 0.784300
vt 0.878401 0.728116
vt 0.901473 0.728116
vt 0.901473 0.784300
vt 0.669628 0.680039
vt 0.669628 0.657827
vt 0.875000 0.750000
vt 0.875000 0.500000
vt 0.750000 0.500000
vt 0.875000 0.500000
vt 0.875000 0.750000
vt 0.750000 0.750000
vt 0.656674 0.269681
vt 0.656674 0.285605
vt 0.630295 0.285605
vt 0.630295 0.269681
vt 0.750000 0.500000
vt 0.750000 0.500000
vt 0.750000 0.500000
vt 0.750000 0.500000
vt 0.750000 0.500000
vt 0.750000 0.500000
vt 0.419706 0.419706
vt 0.250000 0.490000
vt 0.080294 0.419706
vt 0.010000 0.250000
vt 0.080294 0.080294
vt 0.250000 0.010000
vt 0.419706 0.080294
vt 0.490000 0.250000
vt 0.750000 0.490000
vt 0.919706 0.419706
vt 0.990000 0.250000
vt 0.919706 0.080294
vt 0.750000 0.010000
vt 0.580294 0.080294
vt 0.510000 0.250000
vt 0.580294 0.419706
vt 0.419706 0.419706
vt 0.250000 0.490000
vt 0.080294 0.419706
vt 0.010000 0.250000
vt 0.080294 0.080294
vt 0.250000 0.010000
vt 0.419706 0.080294
vt 0.490000 0.250000
vt 0.750000 0.490000
vt 0.919706 0.419706
vt 0.990000 0.250000
vt 0.919706 0.080294
vt 0.750000 0.010000
vt 0.580294 0.080294
vt 0.510000 0.250000
vt 0.580294 0.419706
vt 1.000000 0.500000
vt 1.000000 1.000000
vt 0.875000 1.000000
vt 0.875000 0.500000
vt 0.750000 1.000000
vt 0.750000 0.500000
vt 0.001585 0.306983
vt 0.999859 0.337223
vt 0.999261 0.355905
vt 0.000502 0.340782
vt 0.999061 0.374593
vt 0.000141 0.374589
vt 0.999261 0.393281
vt 0.000502 0.408399
vt 0.999859 0.411963
vt 0.001585 0.442195
vt 0.250000 0.500000
vt 0.250000 1.000000
vt 0.125000 1.000000
vt 0.125000 0.500000
vt 0.000000 1.000000
vt 0.000000 0.500000
vt 1.000000 0.500000
vt 1.000000 1.000000
vt 0.875000 1.000000
vt 0.875000 0.500000
vt 0.750000 1.000000
vt 0.750000 0.500000
vt 0.008090 0.000141
vt 0.721784 0.052722
vt 0.717868 0.103023
vt 0.002129 0.076708
vt 0.716561 0.153420
vt 0.000141 0.153421
vt 0.717868 0.203818
vt 0.002130 0.230134
vt 0.721784 0.254119
vt 0.008091 0.306701
vt 0.250000 0.500000
vt 0.250000 1.000000
vt 0.125000 1.000000
vt 0.125000 0.500000
vt 0.000000 1.000000
vt 0.000000 0.500000
vt 1.000000 0.500000
vt 1.000000 1.000000
vt 0.875000 1.000000
vt 0.875000 0.500000
vt 0.750000 0.500000
vt 0.286050 0.609085
vt 0.007886 0.640133
vt 0.002080 0.590827
vt 0.282068 0.575269
vt 0.000141 0.541305
vt 0.280738 0.541305
vt 0.002080 0.491784
vt 0.282067 0.507342
vt 0.007886 0.442478
vt 0.286050 0.473526
vt 0.250000 0.500000
vt 0.125000 1.000000
vt 0.125000 0.500000
vt 0.000000 1.000000
vt 0.000000 0.500000
vt 1.000000 0.500000
vt 1.000000 1.000000
vt 0.875000 1.000000
vt 0.875000 0.500000
vt 0.750000 1.000000
vt 0.750000 0.500000
vt 0.955295 0.692215
vt 0.000141 0.692218
vt 0.000141 0.674950
vt 0.955295 0.674951
vt 0.000141 0.657683
vt 0.955295 0.657687
vt 0.000142 0.640415
vt 0.955295 0.640424
vt 0.981325 0.637201
vt 0.981233 0.626174
vt 0.250000 0.500000
vt 0.250000 1.000000
vt 0.125000 1.000000
vt 0.125000 0.500000
vt 0.000000 1.000000
vt 0.000000 0.500000
vt 1.000000 0.500000
vt 1.000000 1.000000
vt 0.875000 1.000000
vt 0.875000 0.500000
vt 0.693989 0.404712
vt 0.693989 0.621093
vt 0.670352 0.621093
vt 0.670352 0.404712
vt 0.586519 0.726096
vt 0.292694 0.726096
vt 0.292694 0.703340
vt 0.586519 0.703340
vt 0.292694 0.680583
vt 0.586519 0.680583
vt 0.292694 0.657827
vt 0.586519 0.657827
vt 0.375000 0.500000
vt 0.375000 1.000000
vt 0.250000 1.000000
vt 0.250000 0.500000
vt 0.125000 1.000000
vt 0.125000 0.500000
vt 0.000000 1.000000
vt 0.000000 0.500000
vt 1.000000 0.500000
vt 1.000000 1.000000
vt 0.875000 1.000000
vt 0.875000 0.500000
vt 0.750000 1.000000
vt 0.750000 0.500000
vt 0.625000 1.000000
vt 0.625000 0.500000
vt 0.500000 1.000000
vt 0.500000 0.500000
vt 0.375000 1.000000
vt 0.375000 0.500000
vt 0.250000 1.000000
vt 0.250000 0.500000
vt 0.125000 1.000000
vt 0.125000 0.500000
vt 0.000000 1.000000
vt 0.000000 0.500000
vn -1.0000 0.0000 0.0000
vn 0.0153 0.0000 0.9999
vn 1.0000 0.0000 0.0000
vn -0.0698 0.0000 -0.9976
vn 0.0000 -1.0000 0.0000
vn 0.0000 1.0000 -0.0000
vn -0.0698 0.0000 0.9976
vn 0.0153 0.0000 -0.9999
vn 0.3747 -0.3548 0.8566
vn 0.0000 0.9104 -0.4137
vn 0.0000 0.0000 1.0000
vn 0.0000 0.0000 -1.0000
vn 0.3747 0.8566 0.3548
vn 0.3747 -0.3548 -0.8566
vn -0.5702 -0.8215 0.0000
vn 0.0052 1.0000 0.0000
vn -0.8791 0.4766 0.0000
vn 0.0167 0.0388 -0.9991
vn 1.0000 -0.0002 0.0000
vn -0.0079 -0.0713 -0.9974
vn -0.5325 -0.8464 0.0000
vn -0.1461 -0.2275 0.9628
vn -0.1461 -0.2275 -0.9628
vn -0.9316 -0.3634 0.0000
vn 0.9351 -0.3544 0.0000
vn -0.0079 -0.0713 0.9974
vn -0.0183 -0.4144 0.9099
vn -0.0651 -0.0661 0.9957
vn 1.0000 -0.0022 0.0000
vn 0.4255 0.9049 0.0000
vn -0.0651 -0.0661 -0.9957
vn -0.4256 -0.9049 0.0000
vn 0.1149 -0.1211 0.9860
vn 0.0000 -0.1615 0.9869
vn 0.0000 -0.1615 -0.9869
vn 0.0043 -1.0000 0.0000
vn 0.1599 -0.0000 0.9871
vn -0.6872 0.7264 0.0000
vn 0.6891 -0.7247 0.0000
vn 0.1149 -0.1211 -0.9860
vn 0.9762 0.2170 0.0000
vn -0.9999 -0.0149 0.0000
vn 0.9999 -0.0131 0.0000
vn 0.1599 -0.0000 -0.9871
vn 0.7448 0.6673 0.0000
vn 0.6727 -0.7399 0.0000
vn -0.4571 -0.8894 0.0000
vn -0.8582 -0.5133 0.0000
vn 0.0055 -0.2885 0.9575
vn -0.0076 -0.3933 0.9194
vn -0.0076 -0.3933 -0.9194
vn 0.0055 -0.2885 -0.9575
vn -0.0183 -0.4144 -0.9099
vn -0.9928 -0.1202 0.0000
vn 0.0167 0.0388 0.9991
vn 0.0000 0.3827 0.9239
vn 0.0000 -0.9239 -0.3827
vn 0.0000 -0.3827 0.9239
vn 0.0000 0.9239 0.3827
vn 0.0000 -0.1030 -0.9947
vn 0.0000 -0.9239 0.3827
vn 0.0000 -0.1030 0.9947
vn 0.0000 0.9239 -0.3827
vn 0.0000 -0.3827 -0.9239
vn 0.0000 0.3827 -0.9239
vn 0.3747 0.3548 0.8566
vn 0.3747 0.8566 -0.3548
vn 0.3747 -0.8566 -0.3548
vn 0.3747 0.3548 -0.8566
vn 0.3747 -0.8566 0.3548
vn 0.0001 1.0000 -0.0000
vn 0.0001 1.0000 -0.0001
vn 0.0000 1.0000 -0.0001
vn -0.8530 0.0000 0.5218
vn -0.2885 0.0000 -0.9575
vn -0.3977 0.0000 -0.9175
vn -0.2885 0.0000 0.9575
vn 0.6700 0.0000 0.7424
vn 0.2812 0.0000 -0.9596
vn 0.5563 0.0000 -0.8310
vn -0.6678 0.0000 -0.7444
vn -0.9560 0.0000 -0.2933
vn 0.9763 0.0000 0.2166
vn 0.5563 0.0000 0.8310
vn -0.6678 0.0000 0.7444
vn -0.9560 0.0000 0.2933
vn -0.9934 0.0000 -0.1147
vn 0.6700 0.0000 -0.7424
vn -0.3977 0.0000 0.9175
vn -0.9934 0.0000 0.1147
vn -0.8530 0.0000 -0.5218
vn 0.9763 0.0000 -0.2166
vn 0.2812 0.0000 0.9596
vn 0.6699 0.0000 -0.7424
vn 0.0235 0.0000 -0.9997
vn 0.0235 -0.7069 -0.7069
vn 0.0235 -0.9997 0.0000
vn 0.0235 -0.7069 0.7069
vn 0.0235 0.0000 0.9997
vn 0.0235 0.7069 0.7069
vn 0.0235 0.9997 0.0000
vn 0.0235 0.7069 -0.7069
vn 0.0570 0.0000 -0.9984
vn 0.6515 0.0000 -0.7586
vn 0.6515 -0.5364 -0.5364
vn 0.0570 -0.7060 -0.7060
vn 0.6515 -0.7586 0.0000
vn 0.0570 -0.9984 0.0000
vn 0.6515 -0.5364 0.5364
vn 0.0570 -0.7060 0.7060
vn 0.6515 0.0000 0.7586
vn 0.0570 0.0000 0.9984
vn 0.6515 0.5364 0.5364
vn 0.0570 0.7060 0.7060
vn 0.6515 0.7586 0.0000
vn 0.0570 0.9984 0.0000
vn 0.6515 0.5364 -0.5364
vn 0.0570 0.7060 -0.7060
vn -0.6623 0.0000 -0.7492
vn 0.8958 0.0000 -0.4444
vn 0.8958 -0.3142 -0.3142
vn -0.6623 -0.5297 -0.5297
vn 0.8958 -0.4444 0.0000
vn -0.6623 -0.7492 0.0000
vn 0.8958 -0.3142 0.3142
vn -0.6623 -0.5297 0.5297
vn 0.8958 0.0000 0.4444
vn -0.6623 0.0000 0.7492
vn 0.8958 0.3142 0.3143
vn -0.6623 0.5297 0.5298
vn 0.8958 0.4444 0.0000
vn -0.6623 0.7492 0.0000
vn 0.8958 0.3142 -0.3143
vn -0.6623 0.5297 -0.5298
vn 0.6302 0.0000 -0.7764
vn 0.6302 -0.5490 -0.5490
vn 0.0000 -0.7071 -0.7071
vn 0.6302 -0.7764 0.0000
vn 0.6302 -0.5490 0.5490
vn 0.0000 -0.7071 0.7071
vn 0.6302 0.0000 0.7764
vn 0.6302 0.5490 0.5490
vn 0.0000 0.7071 0.7071
vn 0.6302 0.7764 0.0000
vn 0.6302 0.5490 -0.5490
vn 0.0000 0.7071 -0.7071
vn 0.0000 -0.6302 -0.7764
vn 0.0000 0.6302 -0.7764
vn 0.5490 0.6302 -0.5490
vn 0.5490 -0.6302 -0.5490
vn 0.7764 0.6302 0.0000
vn 0.7764 -0.6302 0.0000
vn 0.5490 0.6302 0.5490
vn 0.5490 -0.6302 0.5490
vn 0.0000 0.6302 0.7764
vn 0.0000 -0.6302 0.7764
vn -0.5490 0.6302 0.5490
vn -0.5490 -0.6302 0.5490
vn -0.7764 0.6302 0.0000
vn -0.7764 -0.6302 0.0000
vn -0.5490 0.6302 -0.5490
vn -0.5490 -0.6302 -0.5490
usemtl HumveeMaterial
s off
f 161/299/91 163/300/91 164/301/91 162/302/91
f 169/303/92 167/304/92 168/305/92 170/306/92
f 167/307/93 165/308/93 166/309/93 168/310/93
f 171/311/94 161/312/94 162/313/94 172/314/94
f 169/315/95 171/316/95 165/317/95 167/318/95
f 170/319/96 172/320/96 162/321/96 164/322/96
f 163/323/95 161/324/95 171/325/95 169/326/95
f 163/327/97 169/303/97 170/306/97 164/328/97
f 165/329/98 171/311/98 172/314/98 166/330/98
f 168/331/96 166/332/96 172/320/96 170/319/96
f 218/333/99 232/334/99 317/335/99
f 192/336/93 190/337/93 204/338/93 202/339/93 200/340/93 198/341/93 196/342/93 194/343/93
f 213/344/91 206/345/91 208/346/91 214/347/91
f 214/348/100 208/349/100 212/350/100 215/351/100
f 215/352/93 212/353/93 210/354/93 216/355/93
f 210/356/101 206/357/101 353/358/101 354/359/101
f 207/360/95 211/361/95 209/362/95 205/363/95
f 212/350/96 208/349/96 206/364/96 210/365/96
f 209/366/101 216/367/101 213/368/101 205/369/101
f 211/370/93 215/352/93 216/355/93 209/371/93
f 207/372/102 214/348/102 215/351/102 211/373/102
f 205/374/91 213/344/91 214/347/91 207/375/91
f 222/376/103 220/377/103 317/335/103
f 217/378/91 219/379/91 221/380/91 223/381/91 225/382/91 227/383/91 229/384/91 231/385/91
f 236/386/93 234/387/93 248/388/93 246/389/93 244/390/93 242/391/93 240/392/93 238/393/93
f 228/394/104 226/395/104 317/396/104
f 297/397/105 294/398/105 259/399/105 260/400/105
f 268/401/106 252/402/106 271/403/106 270/404/106
f 249/405/107 295/406/107 296/407/107 250/408/107
f 250/408/108 296/409/108 266/410/108 253/411/108
f 253/412/109 251/413/109 258/414/109 257/415/109
f 265/416/110 266/410/110 296/407/110 297/397/110
f 255/417/111 257/418/111 258/419/111 256/420/111
f 251/421/112 249/422/112 256/423/112 258/424/112
f 250/408/113 253/411/113 257/418/113 255/425/113
f 249/405/114 250/408/114 255/425/114 256/426/114
f 253/412/115 266/427/115 263/428/115 251/413/115
f 263/429/116 264/430/116 294/431/116 295/432/116
f 259/433/117 294/431/117 264/430/117 262/434/117
f 264/430/118 263/429/118 254/435/118 252/436/118
f 264/437/119 265/438/119 261/439/119 262/440/119
f 265/438/120 264/437/120 252/441/120 268/442/120
f 266/443/121 265/416/121 268/401/121 269/444/121
f 263/445/122 266/410/122 269/446/122 254/447/122
f 271/448/123 273/449/123 277/450/123 275/451/123
f 252/436/124 254/435/124 273/449/124 271/448/124
f 269/444/125 268/401/125 270/404/125 272/452/125
f 254/447/126 269/446/126 272/453/126 273/454/126
f 275/455/127 277/456/127 281/457/127 279/458/127
f 270/404/128 271/403/128 275/459/128 274/460/128
f 273/461/129 272/462/129 276/463/129 277/456/129
f 272/452/130 270/404/130 274/460/130 276/464/130
f 284/465/131 285/466/131 282/467/131 283/468/131
f 274/460/132 275/459/132 279/469/132 278/470/132
f 277/456/133 276/463/133 280/471/133 281/457/133
f 276/464/134 274/460/134 278/470/134 280/472/134
f 285/466/135 284/465/135 286/473/135 287/474/135
f 287/475/136 286/476/136 288/477/136 289/478/136
f 289/478/137 288/477/137 290/479/137 291/480/137
f 291/480/138 290/479/138 292/481/138 293/482/138
f 283/483/139 292/484/139 290/485/139 284/486/139
f 284/486/140 290/485/140 288/487/140 286/488/140
f 287/475/141 289/478/141 291/480/141 285/489/141
f 285/489/142 291/480/142 293/482/142 282/490/142
f 260/400/143 261/491/143 265/416/143 297/397/143
f 294/398/144 297/397/144 296/407/144 295/406/144
f 251/421/145 263/429/145 295/432/145 249/422/145
f 306/492/93 301/493/93 298/494/93 305/495/93
f 300/496/93 299/497/93 267/498/93 298/494/93 301/493/93
f 307/499/93 306/492/93 305/495/93 309/500/93 308/501/93
f 312/502/91 313/503/91 310/504/91 311/505/91
f 304/506/91 311/505/91 310/504/91 303/507/91 302/508/91
f 314/509/91 315/510/91 316/511/91 313/503/91 312/502/91
f 306/512/146 307/513/146 314/514/146 312/515/146
f 267/516/147 299/517/147 302/508/147 303/507/147
f 300/518/148 301/519/148 311/520/148 304/521/148
f 307/513/149 308/522/149 315/523/149 314/514/149
f 305/524/150 298/525/150 310/504/150 313/503/150
f 299/526/151 300/518/151 304/521/151 302/527/151
f 301/519/152 306/512/152 312/515/152 311/520/152
f 308/528/153 309/529/153 316/511/153 315/510/153
f 298/525/154 267/516/154 303/507/154 310/504/154
f 309/529/155 305/524/155 313/503/155 316/511/155
f 220/377/156 218/333/156 317/335/156
f 224/530/157 222/531/157 317/532/157
f 230/533/158 228/394/158 317/534/158
f 226/395/159 224/530/159 317/535/159
f 232/334/160 230/536/160 317/335/160
f 321/537/93 322/538/93 329/539/93 328/540/93
f 318/541/91 325/542/91 327/543/91 326/544/91
f 319/545/96 320/546/96 325/542/96 318/541/96
f 324/547/93 323/548/93 320/549/93 319/550/93
f 322/551/96 321/552/96 323/553/96 324/554/96
f 328/555/102 327/543/102 325/542/102 320/546/102 323/553/102 321/552/102
f 322/556/101 324/557/101 319/558/101 318/559/101 326/560/101 329/561/101
f 330/562/154 331/563/154 333/564/154 332/565/154
f 337/566/101 336/567/101 350/568/101 351/569/101
f 334/570/91 332/571/91 347/572/91 348/573/91
f 336/567/148 337/566/148 339/574/148 338/575/148
f 338/575/146 339/574/146 341/576/146 340/577/146
f 340/577/149 341/576/149 343/578/149 342/579/149
f 333/580/93 331/581/93 345/582/93 343/583/93 341/584/93 339/585/93 337/586/93 335/587/93
f 342/588/153 343/589/153 345/590/153 344/591/153
f 344/591/155 345/590/155 331/592/155 330/593/155
f 330/594/91 332/571/91 334/570/91 336/595/91 338/596/91 340/597/91 342/598/91 344/599/91
f 213/600/101 216/601/101 355/602/101 352/603/101
f 355/602/93 354/359/93 358/604/93 359/605/93
f 336/595/91 334/570/91 348/573/91 350/606/91
f 333/580/93 335/587/93 349/607/93 346/608/93
f 332/565/102 333/564/102 346/609/102 347/610/102
f 335/587/93 337/586/93 351/611/93 349/607/93
f 206/612/101 213/613/101 352/614/101 353/615/101
f 216/601/101 210/356/101 354/359/101 355/602/101
f 359/605/101 358/604/101 357/616/101 356/617/101
f 353/615/91 352/614/91 356/618/91 357/619/91
f 352/603/95 355/602/95 359/605/95 356/617/95
f 354/359/96 353/358/96 357/620/96 358/604/96
f 362/621/96 363/622/96 360/623/96 361/624/96
f 362/621/96 361/624/96 365/625/96 366/626/96
f 360/623/161 363/622/161 367/627/161 364/628/161
f 366/626/96 365/625/96 369/629/96 370/630/96
f 364/628/162 367/627/162 371/631/162 368/632/162
f 363/622/96 362/621/96 372/633/96 373/634/96
f 373/634/96 372/633/96 374/635/96 375/636/96
f 370/630/96 369/629/96 377/637/96 378/638/96
f 368/632/163 371/631/163 379/639/163 376/640/163
f 378/638/96 377/637/96 381/641/96 382/642/96
f 376/640/163 379/639/163 383/643/163 380/644/163
f 363/622/102 373/634/102 397/645/102 387/646/102
f 376/640/164 380/644/164 404/647/164 400/648/164
f 377/637/165 369/629/165 393/649/165 401/650/165
f 372/651/101 362/652/101 386/653/101 396/654/101
f 383/643/166 379/639/166 403/655/166 407/656/166
f 368/632/167 376/640/167 400/648/167 392/657/167
f 375/658/93 374/659/93 398/660/93 399/661/93
f 366/662/168 370/663/168 394/664/168 390/665/168
f 379/639/169 371/631/169 395/666/169 403/655/169
f 373/634/170 375/636/170 399/667/170 397/645/170
f 369/629/171 365/625/171 389/668/171 393/649/171
f 380/644/172 383/643/172 407/656/172 404/647/172
f 362/669/173 366/670/173 390/671/173 386/672/173
f 374/673/174 372/651/174 396/654/174 398/674/174
f 364/628/175 368/632/175 392/657/175 388/675/175
f 382/642/176 381/641/176 405/676/176 406/677/176
f 365/625/177 361/624/177 385/678/177 389/668/177
f 361/624/91 360/623/91 384/679/91 385/678/91
f 371/631/178 367/627/178 391/680/178 395/666/178
f 378/681/179 382/682/179 406/683/179 402/684/179
f 360/623/180 364/628/180 388/675/180 384/679/180
f 381/641/181 377/637/181 401/650/181 405/676/181
f 367/627/182 363/622/182 387/646/182 391/680/182
f 370/663/183 378/681/183 402/684/183 394/664/183
f 384/679/95 388/675/95 392/657/95 400/648/95 404/647/95 407/656/95 403/655/95 395/666/95 391/680/95 387/646/95 397/645/95 399/667/95 398/685/95 396/686/95 386/687/95 390/688/95 394/689/95 402/690/95 406/677/95 405/676/95 401/650/95 393/649/95 389/668/95 385/678/95
f 410/691/96 411/692/96 408/693/96 409/694/96
f 410/691/96 409/694/96 413/695/96 414/696/96
f 408/693/161 411/692/161 415/697/161 412/698/161
f 414/696/96 413/695/96 417/699/96 418/700/96
f 412/698/161 415/697/161 419/701/161 416/702/161
f 411/692/96 410/691/96 420/703/96 421/704/96
f 421/704/96 420/703/96 422/705/96 423/706/96
f 418/700/96 417/699/96 425/707/96 426/708/96
f 416/702/163 419/701/163 427/709/163 424/710/163
f 426/708/96 425/707/96 429/711/96 430/712/96
f 424/710/163 427/709/163 431/713/163 428/714/163
f 411/692/102 421/704/102 445/715/102 435/716/102
f 424/710/164 428/714/164 452/717/164 448/718/164
f 425/707/165 417/699/165 441/719/165 449/720/165
f 420/721/101 410/722/101 434/723/101 444/724/101
f 431/713/166 427/709/166 451/725/166 455/726/166
f 416/702/167 424/710/167 448/718/167 440/727/167
f 423/728/93 422/729/93 446/730/93 447/731/93
f 414/732/168 418/733/168 442/734/168 438/735/168
f 427/709/169 419/701/169 443/736/169 451/725/169
f 421/704/170 423/706/170 447/737/170 445/715/170
f 417/699/171 413/695/171 437/738/171 441/719/171
f 428/714/172 431/713/172 455/726/172 452/717/172
f 410/739/173 414/740/173 438/741/173 434/742/173
f 422/743/174 420/721/174 444/724/174 446/744/174
f 412/698/175 416/702/175 440/727/175 436/745/175
f 430/712/176 429/711/176 453/746/176 454/747/176
f 413/695/177 409/694/177 433/748/177 437/738/177
f 409/694/91 408/693/91 432/749/91 433/748/91
f 419/701/184 415/697/184 439/750/184 443/736/184
f 426/751/179 430/752/179 454/753/179 450/754/179
f 408/693/180 412/698/180 436/745/180 432/749/180
f 429/711/181 425/707/181 449/720/181 453/746/181
f 415/697/182 411/692/182 435/716/182 439/750/182
f 418/733/183 426/751/183 450/754/183 442/734/183
f 432/749/95 436/745/95 440/727/95 448/718/95 452/717/95 455/726/95 451/725/95 443/736/95 439/750/95 435/716/95 445/715/95 447/737/95 446/755/95 444/756/95 434/757/95 438/758/95 442/759/95 450/760/95 454/747/95 453/746/95 449/720/95 441/719/95 437/738/95 433/748/95
f 459/761/96 457/762/96 471/763/96 469/764/96 467/765/96 465/766/96 463/767/96 461/768/96
f 456/769/95 458/770/95 460/771/95 462/772/95 464/773/95 466/774/95 468/775/95 470/776/95
f 475/777/96 473/778/96 487/779/96 485/780/96 483/781/96 481/782/96 479/783/96 477/784/96
f 472/785/95 474/786/95 476/787/95 478/788/95 480/789/95 482/790/95 484/791/95 486/792/95
s 1
f 173/793/185 174/794/185 176/795/186 175/796/186
f 175/796/186 176/795/186 178/797/187 177/798/187
f 177/799/187 178/800/187 180/801/188 179/802/188
f 179/802/188 180/801/188 182/803/189 181/804/189
f 181/804/189 182/803/189 184/805/190 183/806/190
f 183/806/190 184/805/190 186/807/191 185/808/191
f 185/809/191 186/810/191 188/811/192 187/812/192
f 187/812/192 188/811/192 174/813/185 173/814/185
f 189/815/193 190/816/194 192/817/195 191/818/196
f 191/818/196 192/817/195 194/819/197 193/820/198
f 193/821/198 194/822/197 196/823/199 195/824/200
f 195/824/200 196/823/199 198/825/201 197/826/202
f 197/826/202 198/825/201 200/827/203 199/828/204
f 199/828/204 200/827/203 202/829/205 201/830/206
f 201/831/206 202/832/205 204/833/207 203/834/208
f 203/834/208 204/833/207 190/835/194 189/836/193
f 217/837/209 218/838/210 220/839/211 219/840/212
f 219/840/212 220/839/211 222/531/213 221/841/214
f 221/842/214 222/843/213 224/844/215 223/845/216
f 223/845/216 224/844/215 226/846/217 225/847/218
f 225/847/218 226/846/217 228/848/219 227/849/220
f 227/849/220 228/848/219 230/850/221 229/851/222
f 229/852/222 230/533/221 232/853/223 231/854/224
f 231/854/224 232/853/223 218/855/210 217/856/209
f 233/857/102 234/858/225 236/859/226 235/860/227
f 235/860/227 236/859/226 238/861/228 237/862/95
f 237/863/95 238/864/228 240/865/229 239/866/230
f 239/866/230 240/865/229 242/867/231 241/868/101
f 241/868/101 242/867/231 244/869/232 243/870/233
f 243/871/233 244/390/232 246/389/234 245/872/96
f 245/873/96 246/874/234 248/875/235 247/876/236
f 247/876/236 248/875/235 234/877/225 233/878/102
f 456/879/237 457/880/238 459/881/239 458/882/240
f 458/883/240 459/884/239 461/885/241 460/886/242
f 460/887/242 461/888/241 463/889/243 462/890/244
f 462/890/244 463/889/243 465/891/245 464/892/246
f 464/892/246 465/891/245 467/893/247 466/894/248
f 466/895/248 467/896/247 469/897/249 468/898/250
f 468/898/250 469/897/249 471/899/251 470/900/252
f 470/900/252 471/899/251 457/901/238 456/902/237
f 472/903/237 473/904/238 475/905/239 474/906/240
f 474/906/240 475/905/239 477/907/241 476/908/242
f 476/908/242 477/907/241 479/909/243 478/910/244
f 478/910/244 479/909/243 481/911/245 480/912/246
f 480/912/246 481/911/245 483/913/247 482/914/248
f 482/914/248 483/913/247 485/915/249 484/916/250
f 484/916/250 485/915/249 487/917/251 486/918/252
f 486/918/252 487/917/251 473/919/238 472/920/237
o Cylinder
v 0.521741 2.253895 -0.072673
v 0.521741 2.253895 0.072673
v 0.542954 2.245108 -0.072673
v 0.542954 2.245108 0.072673
v 0.551741 2.223895 -0.072673
v 0.551741 2.223895 0.072673
v 0.542954 2.202681 -0.072673
v 0.542954 2.202681 0.072673
v 0.521741 2.193895 -0.072673
v 0.521741 2.193895 0.072673
v 0.500527 2.202681 -0.072673
v 0.500527 2.202681 0.072673
v 0.491741 2.223895 -0.072673
v 0.491741 2.223895 0.072673
v 0.500527 2.245108 -0.072673
v 0.500527 2.245108 0.072673
vt 1.000000 0.500000
vt 1.000000 1.000000
vt 0.875000 1.000000
vt 0.875000 0.500000
vt 0.750000 1.000000
vt 0.750000 0.500000
vt 0.625000 1.000000
vt 0.625000 0.500000
vt 0.500000 1.000000
vt 0.500000 0.500000
vt 0.375000 1.000000
vt 0.375000 0.500000
vt 0.250000 1.000000
vt 0.250000 0.500000
vt 0.419706 0.419706
vt 0.250000 0.490000
vt 0.080294 0.419706
vt 0.010000 0.250000
vt 0.080294 0.080294
vt 0.250000 0.010000
vt 0.419706 0.080294
vt 0.490000 0.250000
vt 0.125000 1.000000
vt 0.125000 0.500000
vt 0.000000 1.000000
vt 0.000000 0.500000
vt 0.750000 0.490000
vt 0.919706 0.419706
vt 0.990000 0.250000
vt 0.919706 0.080294
vt 0.750000 0.010000
vt 0.580294 0.080294
vt 0.510000 0.250000
vt 0.580294 0.419706
vn 0.3827 0.9239 0.0000
vn 0.9239 0.3827 0.0000
vn 0.9239 -0.3827 0.0000
vn 0.3827 -0.9239 0.0000
vn -0.3827 -0.9239 0.0000
vn -0.9239 -0.3827 0.0000
vn -0.0000 0.0000 1.0000
vn -0.9239 0.3827 0.0000
vn -0.3827 0.9239 0.0000
vn 0.0000 0.0000 -1.0000
usemtl None
s off
f 488/921/253 489/922/253 491/923/253 490/924/253
f 490/924/254 491/923/254 493/925/254 492/926/254
f 492/926/255 493/925/255 495/927/255 494/928/255
f 494/928/256 495/927/256 497/929/256 496/930/256
f 496/930/257 497/929/257 499/931/257 498/932/257
f 498/932/258 499/931/258 501/933/258 500/934/258
f 491/935/259 489/936/259 503/937/259 501/938/259 499/939/259 497/940/259 495/941/259 493/942/259
f 500/934/260 501/933/260 503/943/260 502/944/260
f 502/944/261 503/943/261 489/945/261 488/946/261
f 488/947/262 490/948/262 492/949/262 494/950/262 496/951/262 498/952/262 500/953/262 502/954/262
o WheelFR.001_Cylinder.006
v 1.656270 0.900000 -1.010000
v 1.656270 0.900000 -0.710000
v 1.881270 0.839711 -1.010000
v 1.881270 0.839711 -0.710000
v 2.045981 0.675000 -1.010000
v 2.045981 0.675000 -0.710000
v 2.106270 0.450000 -1.010000
v 2.106270 0.450000 -0.710000
v 2.045981 0.225000 -1.010000
v 2.045981 0.225000 -0.710000
v 1.881270 0.060289 -1.010000
v 1.881270 0.060289 -0.710000
v 1.656270 0.000000 -1.010000
v 1.656270 0.000000 -0.710000
v 1.431270 0.060289 -1.010000
v 1.431270 0.060289 -0.710000
v 1.266559 0.225000 -1.010000
v 1.266559 0.225000 -0.710000
v 1.206270 0.450000 -1.010000
v 1.206270 0.450000 -0.710000
v 1.266558 0.675000 -1.010000
v 1.266558 0.675000 -0.710000
v 1.431270 0.839711 -1.010000
v 1.431270 0.839711 -0.710000
vt 0.148396 0.098676
vt 0.112190 0.098676
vt 0.112190 0.084156
vt 0.148396 0.084156
vt 0.112190 0.069636
vt 0.148396 0.069636
vt 0.112190 0.055115
vt 0.148396 0.055115
vt 0.112190 0.040595
vt 0.148396 0.040595
vt 0.112190 0.026075
vt 0.148396 0.026075
vt 0.112190 0.011554
vt 0.148396 0.011554
vt 0.112190 0.011554
vt 0.148396 0.011554
vt 0.148396 0.026075
vt 0.112190 0.026075
vt 0.148396 0.040595
vt 0.112190 0.040595
vt 0.148396 0.055115
vt 0.112190 0.055115
vt 0.148396 0.069636
vt 0.112190 0.069636
vt 0.414060 0.437802
vt 0.397826 0.414126
vt 0.397826 0.386788
vt 0.414060 0.363112
vt 0.442179 0.349443
vt 0.474648 0.349443
vt 0.502766 0.363112
vt 0.519001 0.386788
vt 0.519001 0.414126
vt 0.502766 0.437802
vt 0.474648 0.451472
vt 0.442179 0.451472
vt 0.148396 0.084156
vt 0.112190 0.084156
vt 0.148396 0.098676
vt 0.112190 0.098676
vt 0.518390 0.414422
vt 0.502155 0.438098
vt 0.474037 0.451767
vt 0.441568 0.451767
vt 0.413449 0.438098
vt 0.397215 0.414422
vt 0.397215 0.387083
vt 0.413449 0.363408
vt 0.441568 0.349738
vt 0.474037 0.349738
vt 0.502155 0.363408
vt 0.518390 0.387084
vn 0.2588 0.9659 0.0000
vn 0.7071 0.7071 0.0000
vn 0.9659 0.2588 0.0000
vn 0.9659 -0.2588 0.0000
vn 0.7071 -0.7071 0.0000
vn 0.2588 -0.9659 0.0000
vn -0.2588 -0.9659 0.0000
vn -0.7071 -0.7071 0.0000
vn -0.9659 -0.2588 0.0000
vn -0.9659 0.2588 0.0000
vn -0.0000 -0.0000 1.0000
vn -0.7071 0.7071 0.0000
vn -0.2588 0.9659 0.0000
vn 0.0000 0.0000 -1.0000
usemtl HumveeMaterial
s off
f 504/955/263 505/956/263 507/957/263 506/958/263
f 506/958/264 507/957/264 509/959/264 508/960/264
f 508/960/265 509/959/265 511/961/265 510/962/265
f 510/962/266 511/961/266 513/963/266 512/964/266
f 512/964/267 513/963/267 515/965/267 514/966/267
f 514/966/268 515/965/268 517/967/268 516/968/268
f 516/969/269 517/970/269 519/971/269 518/972/269
f 518/972/270 519/971/270 521/973/270 520/974/270
f 520/974/271 521/973/271 523/975/271 522/976/271
f 522/976/272 523/975/272 525/977/272 524/978/272
f 507/979/273 505/980/273 527/981/273 525/982/273 523/983/273 521/984/273 519/985/273 517/986/273 515/987/273 513/988/273 511/989/273 509/990/273
f 524/978/274 525/977/274 527/991/274 526/992/274
f 526/992/275 527/991/275 505/993/275 504/994/275
f 504/995/276 506/996/276 508/997/276 510/998/276 512/999/276 514/1000/276 516/1001/276 518/1002/276 520/1003/276 522/1004/276 524/1005/276 526/1006/276
o WheelFR.002_Cylinder.007
v -1.450380 0.900000 -1.010000
v -1.450380 0.900000 -0.710000
v -1.225380 0.839711 -1.010000
v -1.225380 0.839711 -0.710000
v -1.060668 0.675000 -1.010000
v -1.060668 0.675000 -0.710000
v -1.000380 0.450000 -1.010000
v -1.000380 0.450000 -0.710000
v -1.060669 0.225000 -1.010000
v -1.060669 0.225000 -0.710000
v -1.225380 0.060289 -1.010000
v -1.225380 0.060289 -0.710000
v -1.450380 0.000000 -1.010000
v -1.450380 0.000000 -0.710000
v -1.675380 0.060289 -1.010000
v -1.675380 0.060289 -0.710000
v -1.840091 0.225000 -1.010000
v -1.840091 0.225000 -0.710000
v -1.900380 0.450000 -1.010000
v -1.900380 0.450000 -0.710000
v -1.840091 0.675000 -1.010000
v -1.840091 0.675000 -0.710000
v -1.675380 0.839711 -1.010000
v -1.675380 0.839711 -0.710000
vt 0.148396 0.098676
vt 0.112190 0.098676
vt 0.112190 0.084156
vt 0.148396 0.084156
vt 0.112190 0.069636
vt 0.148396 0.069636
vt 0.112190 0.055115
vt 0.148396 0.055115
vt 0.112190 0.040595
vt 0.148396 0.040595
vt 0.112190 0.026075
vt 0.148396 0.026075
vt 0.112190 0.011554
vt 0.148396 0.011554
vt 0.112190 0.011554
vt 0.148396 0.011554
vt 0.148396 0.026075
vt 0.112190 0.026075
vt 0.148396 0.040595
vt 0.112190 0.040595
vt 0.148396 0.055115
vt 0.112190 0.055115
vt 0.148396 0.069636
vt 0.112190 0.069636
vt 0.414060 0.437802
vt 0.397826 0.414126
vt 0.397826 0.386788
vt 0.414060 0.363112
vt 0.442179 0.349443
vt 0.474648 0.349443
vt 0.502766 0.363112
vt 0.519001 0.386788
vt 0.519001 0.414126
vt 0.502766 0.437802
vt 0.474648 0.451472
vt 0.442179 0.451472
vt 0.148396 0.084156
vt 0.112190 0.084156
vt 0.148396 0.098676
vt 0.112190 0.098676
vt 0.518390 0.414422
vt 0.502155 0.438098
vt 0.474037 0.451767
vt 0.441568 0.451767
vt 0.413449 0.438098
vt 0.397215 0.414422
vt 0.397215 0.387083
vt 0.413449 0.363408
vt 0.441568 0.349738
vt 0.474037 0.349738
vt 0.502155 0.363408
vt 0.518390 0.387084
vn 0.2588 0.9659 0.0000
vn 0.7071 0.7071 0.0000
vn 0.9659 0.2588 0.0000
vn 0.9659 -0.2588 0.0000
vn 0.7071 -0.7071 0.0000
vn 0.2588 -0.9659 0.0000
vn -0.2588 -0.9659 0.0000
vn -0.7071 -0.7071 0.0000
vn -0.9659 -0.2588 0.0000
vn -0.9659 0.2588 0.0000
vn -0.0000 -0.0000 1.0000
vn -0.7071 0.7071 0.0000
vn -0.2588 0.9659 0.0000
vn 0.0000 0.0000 -1.0000
usemtl HumveeMaterial
s off
f 528/1007/277 529/1008/277 531/1009/277 530/1010/277
f 530/1010/278 531/1009/278 533/1011/278 532/1012/278
f 532/1012/279 533/1011/279 535/1013/279 534/1014/279
f 534/1014/280 535/1013/280 537/1015/280 536/1016/280
f 536/1016/281 537/1015/281 539/1017/281 538/1018/281
f 538/1018/282 539/1017/282 541/1019/282 540/1020/282
f 540/1021/283 541/1022/283 543/1023/283 542/1024/283
f 542/1024/284 543/1023/284 545/1025/284 544/1026/284
f 544/1026/285 545/1025/285 547/1027/285 546/1028/285
f 546/1028/286 547/1027/286 549/1029/286 548/1030/286
f 531/1031/287 529/1032/287 551/1033/287 549/1034/287 547/1035/287 545/1036/287 543/1037/287 541/1038/287 539/1039/287 537/1040/287 535/1041/287 533/1042/287
f 548/1030/288 549/1029/288 551/1043/288 550/1044/288
f 550/1044/289 551/1043/289 529/1045/289 528/1046/289
f 528/1047/290 530/1048/290 532/1049/290 534/1050/290 536/1051/290 538/1052/290 540/1053/290 542/1054/290 544/1055/290 546/1056/290 548/1057/290 550/1058/290
o WheelFR.003_Cylinder.008
v -1.450380 0.900000 0.710000
v -1.450380 0.900000 1.010000
v -1.225380 0.839711 0.710000
v -1.225380 0.839711 1.010000
v -1.060668 0.675000 0.710000
v -1.060668 0.675000 1.010000
v -1.000380 0.450000 0.710000
v -1.000380 0.450000 1.010000
v -1.060669 0.225000 0.710000
v -1.060669 0.225000 1.010000
v -1.225380 0.060289 0.710000
v -1.225380 0.060289 1.010000
v -1.450380 0.000000 0.710000
v -1.450380 0.000000 1.010000
v -1.675380 0.060289 0.710000
v -1.675380 0.060289 1.010000
v -1.840091 0.225000 0.710000
v -1.840091 0.225000 1.010000
v -1.900380 0.450000 0.710000
v -1.900380 0.450000 1.010000
v -1.840091 0.675000 0.710000
v -1.840091 0.675000 1.010000
v -1.675380 0.839711 0.710000
v -1.675380 0.839711 1.010000
vt 0.148396 0.098676
vt 0.112190 0.098676
vt 0.112190 0.084156
vt 0.148396 0.084156
vt 0.112190 0.069636
vt 0.148396 0.069636
vt 0.112190 0.055115
vt 0.148396 0.055115
vt 0.112190 0.040595
vt 0.148396 0.040595
vt 0.112190 0.026075
vt 0.148396 0.026075
vt 0.112190 0.011554
vt 0.148396 0.011554
vt 0.112190 0.011554
vt 0.148396 0.011554
vt 0.148396 0.026075
vt 0.112190 0.026075
vt 0.148396 0.040595
vt 0.112190 0.040595
vt 0.148396 0.055115
vt 0.112190 0.055115
vt 0.148396 0.069636
vt 0.112190 0.069636
vt 0.414060 0.437802
vt 0.397826 0.414126
vt 0.397826 0.386788
vt 0.414060 0.363112
vt 0.442179 0.349443
vt 0.474648 0.349443
vt 0.502766 0.363112
vt 0.519001 0.386788
vt 0.519001 0.414126
vt 0.502766 0.437802
vt 0.474648 0.451472
vt 0.442179 0.451472
vt 0.148396 0.084156
vt 0.112190 0.084156
vt 0.148396 0.098676
vt 0.112190 0.098676
vt 0.518390 0.414422
vt 0.502155 0.438098
vt 0.474037 0.451767
vt 0.441568 0.451767
vt 0.413449 0.438098
vt 0.397215 0.414422
vt 0.397215 0.387083
vt 0.413449 0.363408
vt 0.441568 0.349738
vt 0.474037 0.349738
vt 0.502155 0.363408
vt 0.518390 0.387084
vn 0.2588 0.9659 0.0000
vn 0.7071 0.7071 0.0000
vn 0.9659 0.2588 0.0000
vn 0.9659 -0.2588 0.0000
vn 0.7071 -0.7071 0.0000
vn 0.2588 -0.9659 0.0000
vn -0.2588 -0.9659 0.0000
vn -0.7071 -0.7071 0.0000
vn -0.9659 -0.2588 0.0000
vn -0.9659 0.2588 0.0000
vn 0.0000 0.0000 1.0000
vn -0.7071 0.7071 0.0000
vn -0.2588 0.9659 0.0000
vn 0.0000 0.0000 -1.0000
usemtl HumveeMaterial
s off
f 552/1059/291 553/1060/291 555/1061/291 554/1062/291
f 554/1062/292 555/1061/292 557/1063/292 556/1064/292
f 556/1064/293 557/1063/293 559/1065/293 558/1066/293
f 558/1066/294 559/1065/294 561/1067/294 560/1068/294
f 560/1068/295 561/1067/295 563/1069/295 562/1070/295
f 562/1070/296 563/1069/296 565/1071/296 564/1072/296
f 564/1073/297 565/1074/297 567/1075/297 566/1076/297
f 566/1076/298 567/1075/298 569/1077/298 568/1078/298
f 568/1078/299 569/1077/299 571/1079/299 570/1080/299
f 570/1080/300 571/1079/300 573/1081/300 572/1082/300
f 555/1083/301 553/1084/301 575/1085/301 573/1086/301 571/1087/301 569/1088/301 567/1089/301 565/1090/301 563/1091/301 561/1092/301 559/1093/301 557/1094/301
f 572/1082/302 573/1081/302 575/1095/302 574/1096/302
f 574/1096/303 575/1095/303 553/1097/303 552/1098/303
f 552/1099/304 554/1100/304 556/1101/304 558/1102/304 560/1103/304 562/1104/304 564/1105/304 566/1106/304 568/1107/304 570/1108/304 572/1109/304 574/1110/304
