# Blender v2.92.0 OBJ File: 'Pyramid-second-3.blend'
# www.blender.org
mtllib Pyramid-second-4.mtl
o Pyramid_Cube
v 10.000000 34.000000 -10.000000
v 30.000000 17.000000 -30.000000
v 10.000000 34.000000 10.000000
v 30.000000 17.000000 30.000000
v -10.000000 34.000000 -10.000000
v -30.000000 17.000000 -30.000000
v -10.000000 34.000000 10.000000
v -30.000000 17.000000 30.000000
v -3.000000 34.000000 5.000000
v -3.000000 41.000000 5.000000
v -3.000000 34.000000 -5.000000
v -3.000000 41.000000 -5.000000
v 4.000000 34.000000 5.000000
v 4.000000 37.931805 3.399148
v 4.000000 34.000000 -5.000000
v 4.000000 37.931805 -3.399148
v -3.700000 41.000000 6.000000
v -3.700000 41.000000 -6.000000
v 4.700000 41.000000 -6.000000
v 4.700000 41.000000 6.000000
v -2.278425 44.171074 3.969179
v -2.278425 44.171074 -3.969179
v 3.278425 44.171074 -3.969179
v 3.278425 44.171074 3.969179
v 4.000000 41.000000 -5.000000
v 4.000000 34.000000 3.399148
v 4.000000 34.000000 -3.399148
v 4.000000 41.000000 5.000000
v -2.000000 34.000000 3.399148
v -2.000000 34.000000 -3.399148
v -2.000000 37.931805 -3.399148
v -2.000000 37.931805 3.399148
v 3.000000 38.000000 1.500000
v 3.000000 34.000000 1.500000
v 3.000000 34.000000 -2.500000
v 3.000000 38.000000 -2.500000
v 3.250000 34.000000 -2.433013
v 3.250000 38.000000 -2.433013
v 3.433013 34.000000 -2.250000
v 3.433013 38.000000 -2.250000
v 3.500000 34.000000 -2.000000
v 3.500000 38.000000 -2.000000
v 3.433013 34.000000 -1.750000
v 3.433013 38.000000 -1.750000
v 3.250000 34.000000 -1.566987
v 3.250000 38.000000 -1.566987
v 3.000000 34.000000 -1.500000
v 3.000000 38.000000 -1.500000
v 2.750000 34.000000 -1.566987
v 2.750000 38.000000 -1.566987
v 2.566988 34.000000 -1.750000
v 2.566988 38.000000 -1.750000
v 2.500000 34.000000 -2.000000
v 2.500000 38.000000 -2.000000
v 2.566987 34.000000 -2.250000
v 2.566987 38.000000 -2.250000
v 2.750000 34.000000 -2.433012
v 2.750000 38.000000 -2.433012
v 3.250000 34.000000 1.566987
v 3.250000 38.000000 1.566987
v 3.433013 34.000000 1.750000
v 3.433013 38.000000 1.750000
v 3.500000 34.000000 2.000000
v 3.500000 38.000000 2.000000
v 3.433013 34.000000 2.250000
v 3.433013 38.000000 2.250000
v 3.250000 34.000000 2.433012
v 3.250000 38.000000 2.433012
v 3.000000 34.000000 2.500000
v 3.000000 38.000000 2.500000
v 2.750000 34.000000 2.433012
v 2.750000 38.000000 2.433012
v 2.566988 34.000000 2.250000
v 2.566988 38.000000 2.250000
v 2.500000 34.000000 2.000000
v 2.500000 38.000000 2.000000
v 2.566987 34.000000 1.750000
v 2.566987 38.000000 1.750000
v 2.750000 34.000000 1.566987
v 2.750000 38.000000 1.566987
v -61.000000 0.000000 61.000000
v -50.000000 17.000000 49.000000
v -61.000000 0.000000 -61.000000
v -50.000000 17.000000 -49.000000
v 62.000000 0.000000 61.000000
v 50.000000 17.000000 49.000000
v 62.000000 0.000000 -61.000000
v 50.000000 17.000000 -49.000000
v 79.450027 -0.109995 -5.000000
v 50.004978 16.890003 -5.000000
v 79.450027 -0.109995 5.000000
v 50.004978 16.890003 5.000000
v 50.004978 -0.109995 -5.000000
v 50.004978 -0.109995 5.000000
v 9.984999 16.933331 5.000000
v 9.984999 16.933331 -5.000000
v 9.984999 33.933338 5.000000
v 39.430000 16.933331 5.000000
v 9.984999 33.933338 -5.000000
v 39.430000 16.933331 -5.000000
v -4.999998 -0.109995 -78.630035
v -5.000001 16.890003 -49.184986
v 5.000002 -0.109995 -78.630035
v 4.999999 16.890003 -49.184986
v -5.000001 -0.109995 -49.184986
v 4.999999 -0.109995 -49.184986
v 5.000001 16.933331 -9.984999
v -4.999999 16.933331 -9.984999
v 5.000001 33.933338 -9.984999
v 5.000004 16.933331 -39.430000
v -4.999999 33.933338 -9.984999
v -4.999996 16.933331 -39.430000
v -79.450027 -0.109995 4.999989
v -50.004978 16.890003 4.999992
v -79.450027 -0.109995 -5.000011
v -50.004978 16.890003 -5.000008
v -50.004978 -0.109995 4.999992
v -50.004978 -0.109995 -5.000008
v -9.984999 16.933331 -5.000002
v -9.984999 16.933331 4.999998
v -9.984999 33.933338 -5.000002
v -39.430000 16.933331 -5.000006
v -9.984999 33.933338 4.999998
v -39.430000 16.933331 4.999994
v 4.999981 -0.109995 78.630035
v 4.999989 16.890003 49.184986
v -5.000019 -0.109995 78.630035
v -5.000011 16.890003 49.184986
v 4.999989 -0.109995 49.184986
v -5.000011 -0.109995 49.184986
v -5.000003 16.933331 9.984999
v 4.999997 16.933331 9.984999
v -5.000003 33.933338 9.984999
v -5.000010 16.933331 39.430000
v 4.999997 33.933338 9.984999
v 4.999990 16.933331 39.430000
vt 0.625000 0.500000
vt 0.875000 0.500000
vt 0.875000 0.750000
vt 0.625000 0.750000
vt 0.375000 0.750000
vt 0.625000 1.000000
vt 0.375000 1.000000
vt 0.375000 0.000000
vt 0.625000 0.000000
vt 0.625000 0.250000
vt 0.375000 0.250000
vt 0.375000 0.500000
vt 0.375000 0.000000
vt 0.625000 0.000000
vt 0.625000 0.250000
vt 0.375000 0.250000
vt 0.625000 0.500000
vt 0.375000 0.500000
vt 0.375000 0.750000
vt 0.625000 0.750000
vt 0.625000 1.000000
vt 0.375000 1.000000
vt 0.625000 0.250000
vt 0.625000 0.500000
vt 0.625000 1.000000
vt 0.625000 0.750000
vt 0.625000 0.750000
vt 0.625000 1.000000
vt 0.625000 0.000000
vt 0.625000 0.500000
vt 0.875000 0.500000
vt 0.875000 0.750000
vt 0.625000 0.250000
vt 0.625000 0.000000
vt 0.571590 0.526705
vt 0.428410 0.526705
vt 0.428410 0.526705
vt 0.571590 0.526705
vt 0.571590 0.723295
vt 0.428410 0.723295
vt 0.571590 0.723295
vt 0.428410 0.723295
vt 0.370000 0.457846
vt 0.250000 0.490000
vt 0.130000 0.457846
vt 0.042154 0.370000
vt 0.010000 0.250000
vt 0.042154 0.130000
vt 0.130000 0.042154
vt 0.250000 0.010000
vt 0.370000 0.042154
vt 0.457846 0.130000
vt 0.490000 0.250000
vt 0.457846 0.370000
vt 1.000000 0.500000
vt 1.000000 1.000000
vt 0.916667 1.000000
vt 0.916667 0.500000
vt 0.250000 0.500000
vt 0.250000 1.000000
vt 0.166667 1.000000
vt 0.166667 0.500000
vt 0.833333 1.000000
vt 0.833333 0.500000
vt 0.333333 0.500000
vt 0.333333 1.000000
vt 0.750000 1.000000
vt 0.750000 0.500000
vt 0.416667 0.500000
vt 0.416667 1.000000
vt 0.666667 1.000000
vt 0.666667 0.500000
vt 0.500000 0.500000
vt 0.500000 1.000000
vt 0.583333 1.000000
vt 0.583333 0.500000
vt 0.583333 0.500000
vt 0.583333 1.000000
vt 0.500000 1.000000
vt 0.500000 0.500000
vt 0.666667 0.500000
vt 0.666667 1.000000
vt 0.416667 1.000000
vt 0.416667 0.500000
vt 0.750000 0.500000
vt 0.750000 1.000000
vt 0.333333 1.000000
vt 0.333333 0.500000
vt 0.750000 0.490000
vt 0.870000 0.457846
vt 0.957846 0.370000
vt 0.990000 0.250000
vt 0.957846 0.130000
vt 0.870000 0.042154
vt 0.750000 0.010000
vt 0.630000 0.042154
vt 0.542154 0.130000
vt 0.510000 0.250000
vt 0.542154 0.370000
vt 0.630000 0.457846
vt 0.833333 0.500000
vt 0.833333 1.000000
vt 0.250000 1.000000
vt 0.250000 0.500000
vt 0.083333 0.500000
vt 0.083333 1.000000
vt 0.000000 1.000000
vt 0.000000 0.500000
vt 0.916667 0.500000
vt 0.916667 1.000000
vt 0.166667 1.000000
vt 0.166667 0.500000
vt 0.370000 0.457846
vt 0.250000 0.490000
vt 0.130000 0.457846
vt 0.042154 0.370000
vt 0.010000 0.250000
vt 0.042154 0.130000
vt 0.130000 0.042154
vt 0.250000 0.010000
vt 0.370000 0.042154
vt 0.457846 0.130000
vt 0.490000 0.250000
vt 0.457846 0.370000
vt 1.000000 0.500000
vt 1.000000 1.000000
vt 0.083333 1.000000
vt 0.083333 0.500000
vt 0.000000 1.000000
vt 0.000000 0.500000
vt 0.750000 0.490000
vt 0.870000 0.457846
vt 0.957846 0.370000
vt 0.990000 0.250000
vt 0.957846 0.130000
vt 0.870000 0.042154
vt 0.750000 0.010000
vt 0.630000 0.042154
vt 0.542154 0.130000
vt 0.510000 0.250000
vt 0.542154 0.370000
vt 0.630000 0.457846
vt 0.375000 0.000000
vt 0.625000 0.000000
vt 0.625000 0.250000
vt 0.375000 0.250000
vt 0.625000 0.500000
vt 0.375000 0.500000
vt 0.625000 0.750000
vt 0.375000 0.750000
vt 0.625000 1.000000
vt 0.375000 1.000000
vt 0.875000 0.500000
vt 0.875000 0.750000
vt 0.000000 0.000000
vt 1.000000 0.000000
vt 1.000000 1.000000
vt 0.000000 1.000000
vt 0.000000 0.000000
vt 0.000000 1.000000
vt 1.000000 0.000000
vt 0.000000 0.000000
vt 0.000000 0.000000
vt 1.000000 1.000000
vt 0.000000 1.000000
vt 0.000000 1.000000
vt 0.000000 0.000000
vt 1.000000 0.000000
vt 1.000000 1.000000
vt 0.000000 1.000000
vt 0.000000 0.000000
vt 0.000000 1.000000
vt 1.000000 0.000000
vt 0.000000 0.000000
vt 0.000000 0.000000
vt 1.000000 1.000000
vt 0.000000 1.000000
vt 0.000000 1.000000
vt 0.000000 0.000000
vt 1.000000 0.000000
vt 1.000000 1.000000
vt 0.000000 1.000000
vt 0.000000 0.000000
vt 0.000000 1.000000
vt 1.000000 0.000000
vt 0.000000 0.000000
vt 0.000000 0.000000
vt 1.000000 1.000000
vt 0.000000 1.000000
vt 0.000000 1.000000
vt 0.000000 0.000000
vt 1.000000 0.000000
vt 1.000000 1.000000
vt 0.000000 1.000000
vt 0.000000 0.000000
vt 0.000000 1.000000
vt 1.000000 0.000000
vt 0.000000 0.000000
vt 0.000000 0.000000
vt 1.000000 1.000000
vt 0.000000 1.000000
vt 0.000000 1.000000
vn 0.0000 1.0000 0.0000
vn 0.0000 0.7619 0.6476
vn -0.6476 0.7619 0.0000
vn 0.6476 0.7619 0.0000
vn 0.0000 0.7619 -0.6476
vn -1.0000 0.0000 0.0000
vn 0.0000 0.0000 -1.0000
vn 0.0000 0.0000 1.0000
vn 0.0000 -1.0000 0.0000
vn 0.0000 0.5393 0.8421
vn 0.0000 0.5393 -0.8421
vn 0.9125 0.4091 0.0000
vn -0.9125 0.4091 0.0000
vn 1.0000 0.0000 0.0000
vn 0.2588 0.0000 -0.9659
vn -0.9659 0.0000 -0.2588
vn 0.7071 0.0000 -0.7071
vn -0.9659 0.0000 0.2588
vn 0.9659 0.0000 -0.2588
vn -0.7071 0.0000 0.7071
vn 0.9659 0.0000 0.2588
vn -0.2588 0.0000 0.9659
vn 0.7071 0.0000 0.7071
vn 0.2588 0.0000 0.9659
vn -0.2588 0.0000 -0.9659
vn -0.7071 0.0000 -0.7071
vn -0.8396 0.5433 0.0000
vn 0.0000 0.5767 -0.8170
vn 0.8170 0.5767 0.0000
vn 0.0000 0.5767 0.8170
vn 0.5000 0.8660 0.0000
vn 0.0000 0.8660 -0.5000
vn -0.5000 0.8660 0.0000
vn 0.0000 0.8660 0.5000
usemtl Material
s off
f 1/1/1 5/2/1 7/3/1 3/4/1
f 4/5/2 3/4/2 7/6/2 8/7/2
f 8/8/3 7/9/3 5/10/3 6/11/3
f 2/12/4 1/1/4 3/4/4 4/5/4
f 6/11/5 5/10/5 1/1/5 2/12/5
f 9/13/6 10/14/6 12/15/6 11/16/6
f 11/16/7 12/15/7 25/17/7 15/18/7
f 13/19/8 28/20/8 10/21/8 9/22/8
f 25/17/9 12/15/9 18/23/9 19/24/9
f 17/25/10 20/26/10 24/27/10 21/28/10
f 28/20/9 25/17/9 19/24/9 20/26/9
f 12/15/9 10/14/9 17/29/9 18/23/9
f 10/21/9 28/20/9 20/26/9 17/25/9
f 23/30/1 22/31/1 21/32/1 24/27/1
f 19/24/11 18/23/11 22/33/11 23/30/11
f 20/26/12 19/24/12 23/30/12 24/27/12
f 18/23/13 17/29/13 21/34/13 22/33/13
f 16/35/14 27/36/14 15/18/14 25/17/14
f 30/37/14 31/38/14 32/39/14 29/40/14
f 14/41/14 16/35/14 25/17/14 28/20/14
f 26/42/14 14/41/14 28/20/14 13/19/14
f 16/35/9 14/41/9 32/39/9 31/38/9
f 27/36/8 16/35/8 31/38/8 30/37/8
f 14/41/7 26/42/7 29/40/7 32/39/7
f 60/43/1 33/44/1 80/45/1 78/46/1 76/47/1 74/48/1 72/49/1 70/50/1 68/51/1 66/52/1 64/53/1 62/54/1
f 35/55/15 36/56/15 38/57/15 37/58/15
f 75/59/16 76/60/16 78/61/16 77/62/16
f 37/58/17 38/57/17 40/63/17 39/64/17
f 73/65/18 74/66/18 76/60/18 75/59/18
f 39/64/19 40/63/19 42/67/19 41/68/19
f 71/69/20 72/70/20 74/66/20 73/65/20
f 41/68/21 42/67/21 44/71/21 43/72/21
f 69/73/22 70/74/22 72/70/22 71/69/22
f 43/72/23 44/71/23 46/75/23 45/76/23
f 67/77/24 68/78/24 70/74/24 69/73/24
f 45/76/24 46/75/24 48/79/24 47/80/24
f 65/81/23 66/82/23 68/78/23 67/77/23
f 47/80/22 48/79/22 50/83/22 49/84/22
f 63/85/21 64/86/21 66/82/21 65/81/21
f 49/84/20 50/83/20 52/87/20 51/88/20
f 34/89/9 59/90/9 61/91/9 63/92/9 65/93/9 67/94/9 69/95/9 71/96/9 73/97/9 75/98/9 77/99/9 79/100/9
f 61/101/19 62/102/19 64/86/19 63/85/19
f 51/88/18 52/87/18 54/103/18 53/104/18
f 79/105/25 80/106/25 33/107/25 34/108/25
f 59/109/17 60/110/17 62/102/17 61/101/17
f 53/104/16 54/103/16 56/111/16 55/112/16
f 38/113/1 36/114/1 58/115/1 56/116/1 54/117/1 52/118/1 50/119/1 48/120/1 46/121/1 44/122/1 42/123/1 40/124/1
f 34/125/15 33/126/15 60/110/15 59/109/15
f 55/112/26 56/111/26 58/127/26 57/128/26
f 77/62/26 78/61/26 80/106/26 79/105/26
f 57/128/25 58/127/25 36/129/25 35/130/25
f 35/131/9 37/132/9 39/133/9 41/134/9 43/135/9 45/136/9 47/137/9 49/138/9 51/139/9 53/140/9 55/141/9 57/142/9
f 81/143/27 82/144/27 84/145/27 83/146/27
f 83/146/28 84/145/28 88/147/28 87/148/28
f 87/148/29 88/147/29 86/149/29 85/150/29
f 85/150/30 86/149/30 82/151/30 81/152/30
f 88/147/1 84/153/1 82/154/1 86/149/1
f 92/155/31 91/156/31 89/157/31 90/158/31
f 91/156/8 92/155/8 94/159/8
f 90/158/7 89/157/7 93/160/7
f 98/161/8 97/162/8 95/163/8
f 97/162/31 98/161/31 100/164/31 99/165/31
f 99/165/7 100/164/7 96/166/7
f 104/167/32 103/168/32 101/169/32 102/170/32
f 103/168/14 104/167/14 106/171/14
f 102/170/6 101/169/6 105/172/6
f 110/173/14 109/174/14 107/175/14
f 109/174/32 110/173/32 112/176/32 111/177/32
f 111/177/6 112/176/6 108/178/6
f 116/179/33 115/180/33 113/181/33 114/182/33
f 115/180/7 116/179/7 118/183/7
f 114/182/8 113/181/8 117/184/8
f 122/185/7 121/186/7 119/187/7
f 121/186/33 122/185/33 124/188/33 123/189/33
f 123/189/8 124/188/8 120/190/8
f 128/191/34 127/192/34 125/193/34 126/194/34
f 127/192/6 128/191/6 130/195/6
f 126/194/14 125/193/14 129/196/14
f 134/197/6 133/198/6 131/199/6
f 133/198/34 134/197/34 136/200/34 135/201/34
f 135/201/14 136/200/14 132/202/14
